SplineFontDB: 1.0
FontName: DBThaiText-Oblique
FullName: DBThaiText Oblique
FamilyName: DBThaiText
Weight: Medium
Copyright: Typeface (c) The Monotype Corporation plc. Data (c) The Monotype Corporation plc/Type Solutions Inc. 1990-1992. All Rights Reserved\n\nModified by TLWG
Version: 2.0 : Dec 10, 2003
ItalicAngle: -12
UnderlinePosition: -50
UnderlineWidth: 40
Ascent: 800
Descent: 200
NeedsXUIDChange: 1
FSType: 0
PfmFamily: 33
TTFWeight: 500
TTFWidth: 5
Panose: 2 0 6 3 0 0 0 0 0 0
LineGap: 184
VLineGap: 0
OS2WinAscent: 0
OS2WinAOffset: 1
OS2WinDescent: 0
OS2WinDOffset: 1
ScriptLang: 4
 1 DFLT 1 dflt 
 1 thai 4 KUY  PAL  THA  dflt 
 1 latn 1 dflt 
 1 thai 1 PAL  
ContextSub: glyph 0 3 ' RQD' 0 0 0 1
 String: 15 uni0E0D uni0E10
 BString: 0 
 FString: 0 
 1
  SeqLookup: 0 'nds0'
EndFPST
ChainSub: coverage 0 1 'ccmp' 0 0 0 1
 2 0 0
  Coverage: 19 uni0E4B uni0E4B.low
  Coverage: 7 uni0E4D
 2
  SeqLookup: 0 'amni'
  SeqLookup: 1 'G006'
EndFPST
ChainSub: coverage 0 1 'ccmp' 0 0 0 1
 2 0 0
  Coverage: 19 uni0E4A uni0E4A.low
  Coverage: 7 uni0E4D
 2
  SeqLookup: 0 'amni'
  SeqLookup: 1 'G005'
EndFPST
ChainSub: coverage 0 1 'ccmp' 0 0 0 1
 2 0 0
  Coverage: 19 uni0E49 uni0E49.low
  Coverage: 7 uni0E4D
 2
  SeqLookup: 0 'amni'
  SeqLookup: 1 'G004'
EndFPST
ChainSub: coverage 0 1 'ccmp' 0 0 0 1
 2 0 0
  Coverage: 19 uni0E48 uni0E48.low
  Coverage: 7 uni0E4D
 2
  SeqLookup: 0 'amni'
  SeqLookup: 1 'G003'
EndFPST
ChainSub: coverage 0 1 'ccmp' 0 0 0 1
 1 0 1
  Coverage: 15 uni0E0D uni0E10
  FCoverage: 23 uni0E38 uni0E39 uni0E3A
 1
  SeqLookup: 0 'ndsc'
EndFPST
ChainSub: coverage 0 1 'ccmp' 0 0 0 1
 1 2 0
  Coverage: 39 uni0E48 uni0E49 uni0E4A uni0E4B uni0E4C
  BCoverage: 23 uni0E38 uni0E39 uni0E3A

StartChar: .notdef
Encoding: 0 -1 0
OldEncoding: 0
Width: 532
VWidth: 2048
Flags: W
HStem: -26 70<118 456> 853 70<234 572>
DStem: 234 923 290 853 32 -26 118 44 572 853 658 923 400 44 456 -26
Fore
32 -26 m 1
 234 923 l 1
 658 923 l 1
 456 -26 l 1
 32 -26 l 1
118 44 m 1
 400 44 l 1
 572 853 l 1
 290 853 l 1
 118 44 l 1
EndSplineSet
EndChar
StartChar: exclam
Encoding: 3 33 3
OldEncoding: 33
Width: 188
Flags: W
HStem: 0 21G<84 141> 474 20G<189 246>
DStem: 99 70 156 70 84 0 141 0 189 494 246 494 137 251 194 251
Fore
151 113 m 1
 122 113 l 1
 137 251 l 1
 189 494 l 1
 246 494 l 1
 194 251 l 1
 151 113 l 1
99 70 m 1
 156 70 l 1
 141 0 l 1
 84 0 l 1
 99 70 l 1
EndSplineSet
EndChar
StartChar: quotedbl
Encoding: 4 34 4
OldEncoding: 34
Width: 226
VWidth: 2048
Flags: W
HStem: 474 20G<135 192 241 298>
DStem: 135 494 192 494 119 417 176 417 241 494 298 494 225 417 282 417
Fore
114 328 m 1
 119 417 l 1
 135 494 l 1
 192 494 l 1
 176 417 l 1
 142 328 l 1
 114 328 l 1
220 328 m 1
 225 417 l 1
 241 494 l 1
 298 494 l 5
 282 417 l 1
 248 328 l 1
 220 328 l 1
EndSplineSet
EndChar
StartChar: numbersign
Encoding: 5 35 5
OldEncoding: 35
Width: 377
Flags: W
HStem: -14 21G<49 100 186 237> 129 54<47 104 179 241 316 372> 287 54<106 167 239 303 377 428>
DStem: 104 129 157 129 49 -14 100 -14 167 287 219 287 126 183 179 183 241 473 293 473 187 341 239 341 241 129 293 129 186 -14 237 -14 303 287 356 287 263 183 316 183 377 473 430 473 324 341 377 341
Fore
241 473 m 1
 293 473 l 1
 239 341 l 1
 324 341 l 1
 377 473 l 1
 430 473 l 1
 377 341 l 1
 439 341 l 1
 428 287 l 1
 356 287 l 1
 316 183 l 1
 384 183 l 1
 372 129 l 1
 293 129 l 1
 237 -14 l 1
 186 -14 l 1
 241 129 l 1
 157 129 l 1
 100 -14 l 1
 49 -14 l 1
 104 129 l 1
 36 129 l 1
 48 183 l 1
 126 183 l 1
 167 287 l 1
 96 287 l 1
 107 341 l 1
 187 341 l 1
 241 473 l 1
219 287 m 1
 179 183 l 1
 263 183 l 1
 303 287 l 1
 219 287 l 1
EndSplineSet
EndChar
StartChar: dollar
Encoding: 6 36 6
OldEncoding: 36
Width: 377
Flags: W
HStem: 436 86<276 313.058>
DStem: 162 -16 203 -15 147 -85 188 -85 211 216 250 209 172 32 213 33 258 437 299 436 224 276 263 270
Fore
412 353 m 1
 357 353 l 1
 361 377 360 397 350 410 c 1
 342 427 325 436 299 436 c 1
 263 270 l 1
 296 260 321 251 337 243 c 0
 352 236 364 224 375 205 c 0
 384 185 385 160 378 128 c 0
 371 93 353 62 326 37 c 0
 296 11 268 -3 241 -8 c 2
 203 -15 l 1
 188 -85 l 1
 147 -85 l 1
 162 -16 l 1
 136 -10 114 -5 98 1 c 0
 82 8 68 23 56 44 c 0
 45 66 44 98 53 141 c 1
 105 141 l 1
 103 121 102 104 104 92 c 0
 104 79 109 67 119 55 c 0
 130 45 147 37 172 32 c 1
 211 216 l 1
 201 219 189 224 175 228 c 0
 162 233 150 238 140 245 c 0
 129 251 122 259 116 267 c 1
 103 288 101 320 110 364 c 1
 123 403 144 433 172 452 c 0
 199 471 233 483 268 486 c 1
 276 522 l 1
 317 522 l 1
 309 486 l 1
 346 483 375 470 394 450 c 0
 406 437 413 423 415 405 c 0
 416 385 415 368 412 353 c 1
224 276 m 1
 258 437 l 1
 238 436 218 429 199 416 c 0
 180 401 167 384 163 365 c 0
 156 341 160 322 171 306 c 0
 183 290 200 280 224 276 c 1
250 209 m 1
 213 33 l 1
 224 34 237 37 251 43 c 0
 264 47 279 56 293 71 c 0
 306 85 316 103 321 127 c 0
 327 153 323 172 309 182 c 0
 294 193 275 201 250 209 c 1
EndSplineSet
EndChar
StartChar: percent
Encoding: 7 37 7
OldEncoding: 37
Width: 602
Flags: W
HStem: -14 48<462 476> 171 47<501 515> 233 47<184 198> 417 47<223 237>
DStem: 514 480 561 480 142 -14 188 -14
Fore
514 480 m 1
 561 480 l 1
 188 -14 l 1
 142 -14 l 1
 514 480 l 1
93 348 m 0
 100 381 118 408 145 431 c 0
 173 453 203 464 235 464 c 0
 267 464 291 453 310 431 c 0
 328 408 333 381 326 348 c 0
 319 316 302 289 274 267 c 0
 246 244 217 233 186 233 c 0
 155 233 130 244 111 267 c 0
 92 289 86 316 93 348 c 0
372 103 m 0
 378 134 396 162 423 184 c 0
 451 207 480 218 513 218 c 0
 534 218 552 212 567 202 c 0
 583 192 594 179 600 160 c 0
 607 144 608 124 604 103 c 0
 597 70 580 43 552 20 c 0
 525 -2 495 -14 464 -14 c 0
 432 -14 408 -2 388 20 c 0
 371 43 365 70 372 103 c 0
141 348 m 0
 137 329 140 313 151 301 c 0
 162 287 176 280 196 280 c 0
 215 280 233 287 249 301 c 0
 265 313 275 329 279 348 c 0
 282 360 280 373 276 383 c 0
 274 393 266 402 258 408 c 0
 248 414 237 417 225 417 c 0
 205 417 188 411 172 398 c 0
 153 383 145 367 141 348 c 0
420 103 m 0
 416 84 419 67 429 54 c 0
 441 41 454 34 474 34 c 0
 493 34 511 41 526 54 c 0
 542 67 552 84 556 103 c 0
 560 122 557 138 546 150 c 0
 536 164 521 171 503 171 c 0
 483 171 467 164 450 150 c 0
 434 138 424 122 420 103 c 0
EndSplineSet
EndChar
StartChar: ampersand
Encoding: 8 38 8
OldEncoding: 38
Width: 452
Flags: W
HStem: -16 54<168 189> 0 21G<357 432> 434 47<293 309>
DStem: 223 227 279 257 304 92 344 147
Fore
432 0 m 1
 357 0 l 1
 326 50 l 1
 322 47 316 43 307 36 c 0
 298 28 289 23 280 17 c 0
 269 10 259 5 247 -1 c 1
 218 -11 191 -16 168 -16 c 0
 141 -16 118 -10 99 2 c 0
 65 26 49 61 58 110 c 0
 64 141 76 167 93 188 c 0
 110 208 132 227 159 243 c 2
 199 267 l 1
 184 299 l 2
 172 324 164 348 170 375 c 0
 177 410 200 441 237 462 c 0
 260 476 284 481 309 481 c 0
 339 481 363 471 380 452 c 0
 398 429 405 405 399 376 c 0
 395 357 385 339 370 322 c 0
 355 304 338 289 319 279 c 2
 279 257 l 1
 344 147 l 1
 365 176 377 202 382 226 c 1
 437 226 l 1
 433 208 424 188 411 164 c 0
 398 140 385 120 370 103 c 1
 432 0 l 1
341 406 m 0
 340 415 334 421 327 426 c 0
 319 432 308 434 295 434 c 0
 282 434 269 431 257 423 c 0
 245 415 237 405 231 390 c 1
 226 368 225 353 229 344 c 0
 233 334 242 320 255 298 c 1
 272 304 290 313 308 327 c 0
 326 340 338 357 342 376 c 0
 344 386 344 396 341 406 c 0
304 92 m 1
 223 227 l 1
 216 224 206 218 195 211 c 0
 184 205 173 197 163 189 c 0
 153 180 143 168 135 155 c 0
 126 141 120 127 117 111 c 1
 115 96 121 80 132 63 c 0
 143 46 163 38 189 38 c 0
 206 38 223 42 238 49 c 0
 254 54 276 69 304 92 c 1
EndSplineSet
EndChar
StartChar: quotesingle
Encoding: 9 39 9
OldEncoding: 39
Width: 121
VWidth: 2048
Flags: W
HStem: 474 20G<135 192>
DStem: 135 494 192 494 119 417 176 417
Fore
114 328 m 1
 119 417 l 1
 135 494 l 1
 192 494 l 5
 176 417 l 1
 142 328 l 1
 114 328 l 1
EndSplineSet
EndChar
StartChar: parenleft
Encoding: 10 40 10
OldEncoding: 40
Width: 226
Flags: W
HStem: 474 20G<264 303>
Fore
264 494 m 1
 303 494 l 1
 258 438 223 384 198 329 c 0
 171 273 153 221 143 175 c 0
 133 129 130 78 133 23 c 0
 134 -33 146 -89 167 -145 c 1
 128 -145 l 1
 119 -124 109 -101 100 -75 c 0
 92 -50 85 -23 81 7 c 0
 78 36 77 66 78 94 c 0
 78 123 82 150 87 175 c 0
 95 212 108 250 125 288 c 0
 145 328 165 365 189 400 c 0
 214 436 238 468 264 494 c 1
EndSplineSet
EndChar
StartChar: parenright
Encoding: 11 41 11
OldEncoding: 41
Width: 226
Flags: W
HStem: 474 20G<131 168>
Fore
131 494 m 1
 168 494 l 1
 184 466 195 435 205 400 c 0
 215 365 219 327 220 287 c 0
 223 247 219 210 211 175 c 0
 204 139 192 102 172 63 c 0
 154 24 134 -14 110 -49 c 0
 85 -84 60 -116 32 -145 c 1
 -5 -145 l 1
 26 -107 52 -69 74 -29 c 0
 96 8 113 44 127 79 c 0
 139 114 149 146 155 175 c 0
 160 199 163 221 165 245 c 0
 167 269 167 294 166 321 c 0
 166 347 162 376 157 408 c 0
 150 440 141 468 131 494 c 1
EndSplineSet
EndChar
StartChar: asterisk
Encoding: 12 42 12
OldEncoding: 42
Width: 263
Flags: W
HStem: 482 20G<215 257>
DStem: 182 391 209 370 123 331 151 307 209 370 242 391 237 306 275 330 215 502 257 502 202 426 239 426
Fore
115 412 m 1
 136 452 l 1
 202 426 l 1
 215 502 l 1
 257 502 l 1
 239 426 l 1
 314 451 l 1
 320 409 l 1
 242 391 l 1
 275 330 l 1
 237 306 l 1
 209 370 l 1
 151 307 l 1
 123 331 l 1
 182 391 l 1
 115 412 l 1
EndSplineSet
EndChar
StartChar: plus
Encoding: 13 43 13
OldEncoding: 43
Width: 395
Flags: W
HStem: 219 48<90 221 278 409>
DStem: 221 219 268 219 191 79 238 79 261 407 308 407 231 267 278 267
Fore
261 407 m 5
 308 407 l 5
 278 267 l 5
 419 267 l 5
 409 219 l 5
 268 219 l 5
 238 79 l 5
 191 79 l 5
 221 219 l 5
 81 219 l 5
 91 267 l 5
 231 267 l 5
 261 407 l 5
EndSplineSet
EndChar
StartChar: comma
Encoding: 14 44 14
OldEncoding: 44
Width: 188
Flags: W
Fore
151 34 m 0
 145 3 130 -21 108 -38 c 0
 85 -55 64 -64 42 -68 c 0
 32 -68 27 -66 28 -62 c 0
 28 -61 29 -59 32 -56 c 1
 43 -53 56 -46 72 -37 c 0
 89 -28 99 -17 105 -2 c 1
 102 -3 98 -3 95 -5 c 0
 92 -6 87 -7 83 -7 c 0
 52 -3 41 12 47 41 c 0
 49 54 57 66 67 75 c 0
 77 84 89 88 104 88 c 0
 141 88 157 70 151 34 c 0
EndSplineSet
EndChar
StartChar: hyphen
Encoding: 15 45 15
OldEncoding: 45
Width: 226
Flags: W
HStem: 163 49<76 227>
Fore
237 212 m 1
 227 163 l 1
 67 163 l 1
 77 212 l 1
 237 212 l 1
EndSplineSet
EndChar
StartChar: period
Encoding: 16 46 16
OldEncoding: 46
Width: 188
Flags: W
Fore
47 52 m 0
 50 64 57 76 69 86 c 0
 81 96 93 101 106 101 c 0
 114 101 122 98 128 94 c 0
 135 89 140 84 143 76 c 0
 145 68 146 60 144 52 c 0
 142 40 135 28 123 18 c 0
 112 8 99 3 86 3 c 0
 73 3 63 8 55 18 c 0
 47 28 45 40 47 52 c 0
EndSplineSet
EndChar
StartChar: slash
Encoding: 17 47 17
OldEncoding: 47
Width: 188
Flags: W
HStem: -15 21G<-9 29>
DStem: 257 480 294 480 -9 -15 29 -15
Fore
-9 -15 m 1
 257 480 l 1
 294 480 l 1
 29 -15 l 1
 -9 -15 l 1
EndSplineSet
EndChar
StartChar: zero
Encoding: 18 48 18
OldEncoding: 48
Width: 387
Flags: W
HStem: -17 58<187 202> 434 60<281 298>
Fore
187 -17 m 0
 163 -17 142 -11 122 1 c 0
 101 13 88 33 77 57 c 0
 70 80 67 108 69 143 c 0
 71 177 74 208 81 240 c 0
 87 270 97 302 110 336 c 0
 123 370 138 399 155 422 c 1
 176 445 196 463 223 476 c 0
 248 488 272 494 296 494 c 0
 323 494 345 488 365 476 c 0
 384 463 399 445 407 422 c 0
 421 382 421 322 404 240 c 0
 386 157 361 97 329 57 c 0
 311 33 289 13 263 1 c 0
 238 -11 213 -17 187 -17 c 0
200 41 m 0
 234 41 265 57 291 92 c 0
 296 98 303 109 310 125 c 0
 316 139 321 157 328 178 c 0
 335 198 341 219 345 238 c 0
 348 255 352 276 353 298 c 0
 356 318 357 336 358 351 c 0
 358 367 355 378 353 385 c 0
 342 419 317 434 283 434 c 0
 269 434 253 431 238 422 c 0
 222 414 207 402 195 385 c 0
 185 373 177 353 165 323 c 0
 154 293 144 264 139 238 c 0
 133 212 131 183 129 154 c 0
 126 125 127 104 133 92 c 0
 138 75 146 63 159 54 c 0
 172 45 186 41 200 41 c 0
EndSplineSet
EndChar
StartChar: one
Encoding: 19 49 19
OldEncoding: 49
Width: 387
Flags: W
HStem: 0 21G<183 242> 474 20G<306 347>
DStem: 257 348 347 494 183 0 242 0
Fore
242 0 m 1
 183 0 l 1
 257 348 l 1
 145 348 l 1
 155 397 l 1
 190 401 216 407 232 411 c 0
 249 417 259 425 270 436 c 0
 278 448 290 466 306 494 c 1
 347 494 l 5
 242 0 l 1
EndSplineSet
EndChar
StartChar: two
Encoding: 20 50 20
OldEncoding: 50
Width: 387
Flags: W
HStem: 0 57<100 353> 440 54<290 313>
Fore
302 202 m 2
 211 160 l 2
 193 151 172 138 147 117 c 0
 120 97 104 77 100 57 c 1
 365 57 l 1
 353 0 l 1
 23 0 l 1
 37 40 47 68 56 87 c 0
 64 105 80 125 102 145 c 0
 122 166 155 188 195 208 c 2
 280 250 l 2
 328 273 358 305 366 341 c 0
 372 362 369 381 364 397 c 0
 357 411 347 422 333 430 c 0
 320 436 305 440 290 440 c 0
 253 439 225 428 206 408 c 0
 186 387 172 359 163 323 c 1
 103 323 l 1
 110 355 122 381 134 404 c 0
 145 427 163 445 190 461 c 1
 209 474 228 483 246 486 c 0
 264 491 287 494 313 494 c 0
 353 492 383 482 404 460 c 0
 423 438 433 410 433 378 c 0
 434 365 432 355 431 346 c 0
 424 316 408 288 383 263 c 0
 356 236 328 214 302 202 c 2
EndSplineSet
EndChar
StartChar: three
Encoding: 21 51 21
OldEncoding: 51
Width: 387
Flags: W
HStem: -17 57<167 185> 227 53<215 233> 439 55<270 290>
Fore
53 144 m 1
 112 144 l 1
 111 138 110 129 110 117 c 0
 109 106 108 96 112 83 c 0
 114 71 121 62 131 54 c 1
 143 45 158 40 178 40 c 0
 258 39 308 74 321 144 c 0
 327 175 322 196 305 208 c 0
 290 220 266 227 231 227 c 0
 219 227 209 227 203 225 c 1
 215 280 l 1
 258 281 291 286 311 295 c 0
 330 305 346 327 352 361 c 0
 358 392 352 414 336 424 c 0
 321 433 299 439 270 439 c 1
 248 434 230 430 216 421 c 0
 203 413 192 403 187 393 c 0
 178 382 173 371 169 359 c 0
 166 347 164 339 163 334 c 1
 105 335 l 1
 116 386 136 424 169 453 c 0
 200 480 241 494 288 494 c 0
 317 494 342 488 363 479 c 0
 384 469 400 453 409 432 c 0
 417 410 420 385 413 353 c 0
 408 328 399 309 386 296 c 0
 372 283 353 270 334 255 c 1
 359 243 375 227 380 209 c 0
 387 191 388 167 382 137 c 0
 377 105 360 77 339 53 c 0
 318 28 290 8 255 -2 c 0
 229 -11 206 -15 185 -17 c 0
 164 -17 151 -13 141 -12 c 0
 102 -2 76 13 63 41 c 0
 52 68 47 103 53 144 c 1
EndSplineSet
EndChar
StartChar: four
Encoding: 22 52 22
OldEncoding: 52
Width: 387
Flags: W
HStem: 0 21G<232 290> 116 58<111 257 327 387> 474 20G<349 395>
DStem: 257 116 315 116 232 0 290 0 316 396 395 494 269 174 327 174 349 494 316 396 58 182 111 174
Fore
257 116 m 1
 44 116 l 1
 58 182 l 1
 349 494 l 1
 395 494 l 1
 327 174 l 1
 399 174 l 1
 387 116 l 1
 315 116 l 1
 290 0 l 1
 232 0 l 1
 257 116 l 1
269 174 m 1
 316 396 l 1
 111 174 l 1
 269 174 l 1
EndSplineSet
EndChar
StartChar: five
Encoding: 23 53 23
OldEncoding: 53
Width: 387
Flags: W
HStem: -17 59<193 206> 267 58<244 263> 433 61<182 426>
DStem: 182 494 219 433 88 224 169 296
Fore
144 224 m 1
 88 224 l 1
 182 494 l 1
 439 494 l 1
 426 433 l 1
 219 433 l 1
 169 296 l 1
 196 316 228 325 263 325 c 0
 288 325 309 322 327 315 c 0
 387 290 409 236 391 155 c 0
 382 119 365 88 343 63 c 0
 324 39 299 19 272 6 c 0
 251 -4 227 -11 196 -17 c 1
 171 -17 148 -13 129 -8 c 0
 108 -1 90 10 79 23 c 0
 66 35 60 46 57 59 c 0
 53 71 51 83 50 96 c 0
 51 108 50 116 50 120 c 1
 113 120 l 1
 115 99 122 82 134 65 c 0
 147 51 169 42 206 42 c 1
 264 50 301 80 319 136 c 1
 328 180 327 214 311 236 c 0
 297 257 275 267 246 267 c 0
 211 267 176 253 144 224 c 1
EndSplineSet
EndChar
StartChar: six
Encoding: 24 54 24
OldEncoding: 54
Width: 387
Flags: W
HStem: -17 55<189 205> 253 54<249 271> 365 21G<365 425> 494 21G<296 331>
Fore
425 365 m 1
 365 365 l 1
 368 382 367 399 357 411 c 0
 347 424 333 433 313 438 c 1
 261 438 221 416 192 373 c 0
 165 335 150 299 143 267 c 0
 141 261 141 255 141 250 c 1
 154 260 165 267 173 275 c 0
 182 282 189 287 200 292 c 0
 211 296 221 301 232 304 c 0
 242 306 254 307 271 307 c 0
 297 307 321 302 339 292 c 0
 358 281 372 265 381 248 c 0
 389 230 395 211 393 190 c 1
 395 179 393 166 390 150 c 0
 387 136 383 122 377 113 c 1
 366 86 353 64 334 46 c 0
 311 24 290 8 271 -1 c 0
 250 -11 221 -17 190 -17 c 0
 165 -17 144 -11 125 0 c 0
 105 10 91 24 84 42 c 1
 69 70 63 98 65 129 c 0
 67 160 73 201 84 252 c 0
 92 292 105 329 123 364 c 0
 149 409 177 442 212 462 c 0
 246 483 279 494 313 494 c 0
 349 494 378 482 400 459 c 0
 411 445 419 432 423 419 c 0
 427 407 427 388 425 365 c 1
297 81 m 0
 313 97 321 117 326 143 c 0
 332 168 331 194 322 220 c 0
 312 242 289 253 251 253 c 0
 236 253 221 250 207 243 c 0
 189 236 177 229 167 219 c 0
 146 201 132 179 126 150 c 0
 121 125 124 99 133 77 c 0
 148 52 170 38 205 38 c 0
 239 35 271 52 297 81 c 0
EndSplineSet
EndChar
StartChar: seven
Encoding: 25 55 25
OldEncoding: 55
Width: 387
Flags: W
HStem: 0 21G<96 161> 436 58<137 391>
DStem: 391 436 456 442 326 358 384 364
Fore
126 436 m 1
 138 494 l 1
 467 494 l 1
 456 442 l 1
 384 364 l 2
 358 335 329 298 297 253 c 0
 244 179 197 94 161 0 c 1
 96 0 l 1
 124 63 148 109 166 139 c 0
 181 168 205 203 239 248 c 0
 261 276 291 313 326 358 c 0
 361 402 384 428 391 436 c 1
 126 436 l 1
EndSplineSet
EndChar
StartChar: eight
Encoding: 26 56 26
OldEncoding: 56
Width: 387
Flags: W
HStem: 232 52<235 243> 440 54<274 302>
Fore
195 465 m 0
 225 484 256 494 291 494 c 0
 330 494 366 485 393 465 c 0
 406 455 412 439 417 420 c 0
 421 401 421 381 417 362 c 0
 411 335 401 315 386 301 c 1
 373 287 354 273 332 260 c 1
 348 257 363 243 376 219 c 0
 389 194 392 162 385 125 c 1
 370 81 343 45 300 17 c 1
 263 -6 223 -18 181 -17 c 0
 161 -17 142 -11 122 -4 c 0
 103 2 89 13 77 28 c 0
 53 52 47 85 55 125 c 0
 60 165 76 194 96 212 c 1
 104 224 125 241 160 260 c 1
 150 270 143 275 141 280 c 0
 136 283 132 287 129 293 c 0
 126 298 124 304 120 311 c 0
 117 325 117 344 121 362 c 0
 130 404 155 439 195 465 c 0
340 422 m 0
 328 434 312 440 286 440 c 0
 260 440 237 433 218 420 c 0
 201 407 187 387 182 362 c 0
 180 355 178 344 181 330 c 0
 186 302 206 284 243 284 c 0
 281 283 310 294 330 315 c 0
 343 329 354 346 357 362 c 0
 362 387 357 408 340 422 c 0
315 197 m 0
 300 220 274 234 237 232 c 0
 200 232 172 219 148 196 c 0
 132 179 121 157 116 131 c 0
 114 103 117 83 129 71 c 1
 138 57 159 48 192 41 c 1
 217 42 241 48 264 57 c 1
 297 76 316 103 322 134 c 0
 326 149 327 161 324 171 c 0
 323 182 321 190 315 197 c 0
EndSplineSet
EndChar
StartChar: nine
Encoding: 27 57 27
OldEncoding: 57
Width: 387
Flags: W
HStem: -17 59<176 183> 168 52<235 240> 438 56<278 295>
Fore
58 109 m 1
 120 109 l 1
 117 93 120 77 131 65 c 0
 142 53 158 45 176 42 c 1
 227 42 266 62 294 102 c 0
 305 117 313 136 323 156 c 0
 331 175 339 192 342 208 c 0
 343 212 343 219 343 225 c 1
 325 207 304 191 280 180 c 0
 269 175 255 171 239 168 c 1
 218 168 201 169 186 171 c 0
 154 175 132 189 116 211 c 0
 100 231 92 255 90 284 c 0
 91 294 93 307 97 325 c 0
 99 335 103 348 108 367 c 1
 118 392 133 413 152 431 c 0
 177 454 197 471 217 480 c 0
 237 488 262 494 295 494 c 0
 349 495 385 473 403 433 c 0
 418 402 421 355 415 290 c 0
 415 281 411 265 407 244 c 0
 403 224 399 209 396 200 c 0
 388 172 377 144 362 113 c 0
 339 67 308 31 268 11 c 0
 241 -4 211 -12 182 -17 c 1
 156 -17 136 -13 121 -10 c 0
 105 -4 93 4 81 17 c 0
 61 42 55 74 58 109 c 1
189 397 m 0
 174 380 163 358 158 333 c 0
 152 306 154 281 163 255 c 0
 174 232 197 219 235 220 c 0
 250 220 267 225 281 232 c 0
 297 240 310 248 319 257 c 1
 340 275 353 296 359 324 c 0
 365 351 362 376 351 399 c 0
 347 410 338 420 325 427 c 0
 312 433 299 438 282 438 c 0
 244 438 215 424 189 397 c 0
EndSplineSet
EndChar
StartChar: colon
Encoding: 28 58 28
OldEncoding: 58
Width: 188
Flags: W
HStem: 8 97<100 120> 293 97<160 181>
Fore
62 56 m 0
 65 69 71 80 83 90 c 0
 96 101 108 105 120 105 c 0
 129 105 137 103 143 98 c 0
 150 95 155 88 157 80 c 0
 160 72 161 64 159 56 c 0
 156 44 149 33 137 23 c 0
 125 12 113 8 100 8 c 0
 88 8 78 12 69 23 c 0
 61 33 59 44 62 56 c 0
122 341 m 0
 125 354 132 366 144 376 c 0
 157 385 169 390 181 390 c 0
 195 390 205 385 213 376 c 1
 220 366 222 354 219 341 c 0
 217 329 210 318 197 307 c 0
 185 297 173 293 160 293 c 0
 148 293 138 297 129 307 c 0
 122 318 120 329 122 341 c 0
EndSplineSet
EndChar
StartChar: semicolon
Encoding: 29 59 29
OldEncoding: 59
Width: 188
Flags: W
HStem: -7 95<87 108> 288 97<141 162>
Fore
155 34 m 0
 149 3 135 -21 112 -38 c 0
 90 -55 68 -64 47 -68 c 0
 37 -68 31 -66 32 -62 c 0
 32 -61 33 -59 37 -56 c 1
 48 -53 60 -46 77 -37 c 0
 93 -28 104 -17 110 -2 c 1
 106 -3 103 -3 100 -5 c 0
 95 -6 91 -7 87 -7 c 0
 57 -3 46 12 52 41 c 0
 54 54 61 66 71 75 c 0
 81 84 94 88 108 88 c 0
 146 88 162 70 155 34 c 0
104 337 m 0
 106 349 113 360 125 371 c 0
 137 381 150 385 162 385 c 0
 170 385 177 383 185 379 c 0
 191 374 197 368 199 360 c 0
 202 354 203 346 201 337 c 0
 198 324 191 313 178 303 c 0
 166 293 154 288 141 288 c 0
 129 288 118 293 110 303 c 0
 103 313 101 324 104 337 c 0
EndSplineSet
EndChar
StartChar: less
Encoding: 30 60 30
OldEncoding: 60
Width: 395
Flags: W
DStem: 78 220 146 244 379 80 390 134 449 408 437 354 88 268 146 244
Fore
449 408 m 5
 437 354 l 5
 146 244 l 5
 390 134 l 5
 379 80 l 5
 78 220 l 5
 88 268 l 5
 449 408 l 5
EndSplineSet
EndChar
StartChar: equal
Encoding: 31 61 31
OldEncoding: 61
Width: 395
Flags: W
HStem: 162 47<77 396> 277 47<102 421>
Fore
103 324 m 5
 431 324 l 5
 421 277 l 5
 93 277 l 5
 103 324 l 5
78 209 m 5
 406 209 l 5
 396 162 l 5
 68 162 l 5
 78 209 l 5
EndSplineSet
EndChar
StartChar: greater
Encoding: 32 62 32
OldEncoding: 62
Width: 395
Flags: W
DStem: 109 354 121 408 351 244 422 268 351 244 412 220 62 134 51 80
Fore
422 268 m 5
 412 220 l 5
 51 80 l 5
 62 134 l 5
 351 244 l 5
 109 354 l 5
 121 408 l 5
 422 268 l 5
EndSplineSet
EndChar
StartChar: question
Encoding: 33 63 33
OldEncoding: 63
Width: 377
Flags: W
HStem: 0 21G<163 225> 449 52<294 311>
DStem: 178 70 240 70 163 0 225 0
Fore
253 132 m 1
 191 132 l 1
 200 173 l 2
 204 192 213 210 229 226 c 0
 245 243 262 258 281 272 c 0
 290 279 297 285 304 290 c 0
 324 307 l 0
 331 314 336 321 341 327 c 0
 352 345 361 360 363 374 c 0
 367 389 365 401 361 412 c 0
 356 424 349 433 338 440 c 0
 327 445 312 449 296 449 c 0
 275 449 256 444 242 436 c 0
 227 428 216 417 207 405 c 0
 198 392 194 380 191 367 c 0
 187 355 186 347 183 341 c 1
 124 341 l 1
 131 371 141 398 156 421 c 0
 171 445 190 463 217 478 c 0
 243 493 273 501 311 501 c 0
 321 501 329 501 334 499 c 0
 363 496 385 487 398 472 c 0
 413 459 422 443 424 425 c 0
 428 407 428 389 424 371 c 0
 420 355 414 340 407 325 c 0
 397 304 365 273 313 234 c 0
 300 224 289 215 280 205 c 0
 269 194 263 181 260 164 c 2
 253 132 l 1
163 0 m 1
 178 70 l 1
 240 70 l 1
 225 0 l 1
 163 0 l 1
EndSplineSet
EndChar
StartChar: at
Encoding: 34 64 34
OldEncoding: 64
Width: 688
Flags: W
HStem: -99 50<296 335> 36 48<469 497> 40 42<295 323> 304 50<410 428>
DStem: 523 338 579 338 498 293 470 134
Fore
579 338 m 1
 470 134 l 2
 464 124 462 118 461 114 c 0
 460 108 462 102 463 96 c 0
 468 88 479 84 497 84 c 1
 517 88 535 96 553 108 c 0
 571 121 584 133 595 147 c 0
 620 179 637 217 647 262 c 1
 648 280 645 299 639 321 c 0
 633 342 625 359 616 372 c 0
 606 385 588 400 563 415 c 0
 537 429 512 440 484 445 c 0
 470 447 457 449 443 449 c 0
 413 449 382 443 352 432 c 0
 321 420 294 406 269 389 c 0
 240 368 214 345 192 319 c 0
 169 293 153 270 143 251 c 0
 134 229 125 208 121 188 c 0
 113 150 113 114 122 80 c 0
 128 59 141 38 161 19 c 0
 181 -1 204 -19 234 -33 c 0
 260 -44 288 -49 321 -49 c 0
 362 -49 407 -41 459 -25 c 1
 469 -70 l 1
 412 -89 359 -99 309 -99 c 0
 273 -99 238 -94 206 -82 c 0
 181 -73 153 -56 122 -32 c 0
 92 -7 71 21 62 53 c 0
 51 90 51 132 61 179 c 0
 67 205 74 227 84 246 c 0
 101 279 123 313 150 346 c 0
 177 379 210 408 249 433 c 0
 269 445 291 458 316 468 c 0
 343 478 369 486 397 492 c 0
 424 497 451 501 479 499 c 0
 513 498 548 488 586 471 c 0
 624 454 650 431 669 402 c 0
 682 384 693 364 698 339 c 0
 704 313 705 289 701 266 c 0
 695 234 686 209 677 191 c 0
 668 174 656 155 641 136 c 0
 628 119 612 101 592 82 c 0
 573 66 549 51 521 43 c 0
 503 37 486 36 469 36 c 0
 454 36 443 37 437 40 c 0
 425 43 417 50 411 60 c 0
 405 69 402 78 402 87 c 1
 387 73 l 0
 380 68 373 63 366 59 c 0
 356 53 344 49 332 45 c 0
 321 42 308 40 295 40 c 0
 281 40 269 42 259 46 c 0
 240 54 230 64 224 76 c 0
 218 86 213 99 209 115 c 0
 208 130 208 146 212 163 c 0
 215 177 219 190 225 202 c 0
 247 251 281 293 328 322 c 0
 363 345 397 354 428 354 c 0
 437 354 445 353 451 350 c 0
 466 346 477 338 486 327 c 0
 493 314 497 303 498 293 c 1
 523 338 l 1
 579 338 l 1
465 255 m 0
 467 268 466 278 462 285 c 0
 458 292 448 297 435 301 c 0
 429 303 423 304 415 304 c 0
 399 304 383 299 366 290 c 0
 350 281 337 271 325 259 c 0
 313 246 303 231 294 212 c 0
 284 195 278 179 275 163 c 0
 270 142 271 124 281 108 c 0
 290 92 304 82 323 82 c 0
 329 82 336 84 341 85 c 0
 361 90 382 104 402 128 c 1
 415 141 426 160 440 186 c 0
 452 211 461 234 465 255 c 0
EndSplineSet
EndChar
StartChar: A
Encoding: 35 65 35
OldEncoding: 65
Width: 452
Flags: W
HStem: 0 21G<11 79 372 443> 148 53<192 352> 474 20G<296 374>
DStem: 296 494 318 417 11 0 192 201 296 494 163 148 11 0 79 0 318 417 374 494 346 201 443 0 352 148 374 494 372 0 443 0
Fore
163 148 m 1
 79 0 l 1
 11 0 l 1
 296 494 l 1
 374 494 l 1
 443 0 l 1
 372 0 l 1
 352 148 l 1
 163 148 l 1
318 417 m 1
 192 201 l 1
 346 201 l 1
 318 417 l 1
EndSplineSet
EndChar
StartChar: B
Encoding: 36 66 36
OldEncoding: 66
Width: 452
Flags: W
HStem: 0 56<130 299> 226 56<178 311> 438 56<158 342>
DStem: 158 494 211 438 53 0 178 282 158 494 166 226 53 0 130 56
Fore
297 0 m 2
 53 0 l 1
 158 494 l 1
 377 494 l 2
 394 494 411 490 427 483 c 0
 442 475 454 466 463 453 c 0
 478 436 485 414 482 385 c 1
 468 321 440 280 394 262 c 1
 401 259 408 255 415 251 c 0
 422 246 430 240 437 231 c 0
 444 221 450 209 453 193 c 0
 457 176 456 157 451 133 c 0
 443 104 431 79 412 60 c 0
 393 41 373 26 351 16 c 0
 330 6 312 0 297 0 c 2
211 438 m 1
 178 282 l 1
 309 282 l 2
 341 282 367 290 383 306 c 0
 399 323 410 346 415 374 c 1
 417 398 407 415 385 425 c 0
 363 434 343 438 326 438 c 2
 211 438 l 1
166 226 m 1
 130 56 l 1
 289 56 l 2
 317 56 341 66 357 85 c 0
 375 104 386 128 392 156 c 1
 395 184 388 202 370 212 c 0
 353 221 326 226 290 226 c 2
 166 226 l 1
EndSplineSet
EndChar
StartChar: C
Encoding: 37 67 37
OldEncoding: 67
Width: 489
Flags: W
HStem: -16 58<244 263> 445 58<345 365>
Fore
522 341 m 1
 456 341 l 1
 453 365 446 383 439 398 c 0
 433 408 425 417 414 424 c 0
 404 432 394 437 383 441 c 0
 372 444 361 445 347 445 c 0
 327 445 306 441 285 433 c 0
 264 425 246 414 230 398 c 0
 211 380 194 357 180 330 c 0
 166 302 155 272 149 243 c 0
 142 214 142 185 145 158 c 0
 148 130 153 107 164 89 c 0
 183 58 215 42 261 42 c 0
 304 42 341 58 373 89 c 0
 383 99 394 113 405 130 c 0
 416 147 426 164 432 181 c 1
 497 181 l 1
 475 121 440 72 392 35 c 0
 378 24 358 12 329 1 c 0
 301 -10 273 -16 246 -16 c 0
 217 -16 192 -10 168 1 c 0
 144 11 128 23 118 35 c 0
 97 61 83 93 79 130 c 0
 73 167 77 205 85 243 c 0
 93 282 106 320 127 357 c 0
 147 394 175 426 207 452 c 0
 222 464 243 476 271 486 c 0
 299 496 327 503 356 503 c 0
 383 503 408 496 432 486 c 0
 456 476 472 464 481 452 c 0
 505 426 518 389 522 341 c 1
EndSplineSet
EndChar
StartChar: D
Encoding: 38 68 38
OldEncoding: 68
Width: 489
Flags: W
HStem: 0 56<136 288> 438 56<165 356>
DStem: 165 494 217 438 60 0 136 56
Fore
286 0 m 2
 60 0 l 1
 165 494 l 1
 356 494 l 2
 409 494 450 476 480 441 c 0
 510 405 520 355 512 293 c 0
 509 270 506 254 504 245 c 0
 489 174 460 116 416 73 c 0
 391 49 367 31 343 19 c 0
 319 7 301 0 286 0 c 2
338 438 m 2
 217 438 l 1
 136 56 l 1
 274 56 l 2
 291 56 309 60 327 67 c 0
 338 71 353 82 370 99 c 0
 389 118 399 132 405 145 c 0
 420 179 433 212 441 245 c 0
 454 302 453 345 442 375 c 0
 425 417 390 438 338 438 c 2
EndSplineSet
EndChar
StartChar: E
Encoding: 39 69 39
OldEncoding: 69
Width: 452
Flags: W
HStem: 0 56<136 416> 226 56<184 441> 438 56<166 498>
DStem: 166 494 217 438 61 0 184 282 166 494 172 226 61 0 136 56
Fore
61 0 m 1
 166 494 l 1
 510 494 l 1
 498 438 l 1
 217 438 l 1
 184 282 l 1
 453 282 l 1
 441 226 l 1
 172 226 l 1
 136 56 l 1
 428 56 l 1
 416 0 l 1
 61 0 l 1
EndSplineSet
EndChar
StartChar: F
Encoding: 40 70 40
OldEncoding: 70
Width: 414
Flags: W
HStem: 0 21G<61 124> 226 56<184 407> 438 56<166 485>
DStem: 166 494 217 438 61 0 184 282 166 494 172 226 61 0 124 0
Fore
61 0 m 1
 166 494 l 1
 497 494 l 1
 485 438 l 1
 217 438 l 1
 184 282 l 1
 419 282 l 1
 407 226 l 1
 172 226 l 1
 124 0 l 1
 61 0 l 1
EndSplineSet
EndChar
StartChar: G
Encoding: 41 71 41
OldEncoding: 71
Width: 527
Flags: W
HStem: -16 56<248 278> -2 21G<440 480> 206 56<328 468> 445 58<359 378>
Fore
317 206 m 1
 329 262 l 1
 536 262 l 1
 480 -2 l 1
 440 -2 l 1
 438 59 l 1
 404 34 374 15 348 2 c 0
 323 -10 290 -16 248 -16 c 0
 225 -16 201 -10 177 0 c 0
 153 10 135 20 123 32 c 0
 98 58 83 90 77 128 c 0
 71 165 71 203 80 242 c 0
 86 267 96 292 107 316 c 0
 117 341 132 366 150 390 c 0
 167 414 188 434 212 452 c 0
 230 464 252 476 283 486 c 0
 313 496 344 503 376 503 c 0
 421 504 454 496 477 483 c 0
 509 463 530 442 539 418 c 0
 547 394 550 371 548 345 c 1
 485 345 l 1
 489 368 481 392 460 414 c 0
 438 435 406 445 364 445 c 0
 341 445 318 441 294 433 c 0
 271 425 251 414 233 398 c 0
 212 381 195 358 178 330 c 0
 162 302 152 272 145 242 c 0
 139 212 137 184 141 156 c 0
 146 128 153 105 166 87 c 0
 191 55 227 40 278 40 c 0
 313 40 342 47 368 63 c 0
 389 76 405 88 419 102 c 0
 431 114 441 128 447 141 c 0
 454 154 459 165 461 175 c 0
 463 184 465 194 468 206 c 1
 317 206 l 1
EndSplineSet
EndChar
StartChar: H
Encoding: 42 72 42
OldEncoding: 72
Width: 489
Flags: W
HStem: 0 21G<56 120 373 436> 226 56<180 421> 474 20G<161 225 478 541>
DStem: 161 494 225 494 56 0 180 282 161 494 168 226 56 0 120 0 421 226 541 494 373 0 436 0 478 494 541 494 433 282 436 0
Fore
373 0 m 1
 421 226 l 1
 168 226 l 1
 120 0 l 1
 56 0 l 1
 161 494 l 1
 225 494 l 1
 180 282 l 1
 433 282 l 1
 478 494 l 1
 541 494 l 1
 436 0 l 1
 373 0 l 1
EndSplineSet
EndChar
StartChar: I
Encoding: 43 73 43
OldEncoding: 73
Width: 188
Flags: W
HStem: 0 21G<68 131> 474 20G<173 236>
DStem: 173 494 236 494 68 0 131 0
Fore
68 0 m 1
 173 494 l 1
 236 494 l 5
 131 0 l 1
 68 0 l 1
EndSplineSet
EndChar
StartChar: J
Encoding: 44 74 44
OldEncoding: 74
Width: 339
Flags: W
HStem: -16 56<128 159> 474 20G<330 394>
DStem: 330 494 394 494 259 158 311 103
Fore
44 157 m 1
 109 157 l 1
 99 107 l 2
 95 90 96 76 104 64 c 0
 110 53 122 45 136 42 c 0
 143 41 150 40 154 40 c 0
 180 40 203 50 223 69 c 0
 236 82 249 112 259 158 c 2
 330 494 l 1
 394 494 l 1
 311 103 l 1
 295 59 267 25 227 2 c 0
 206 -10 172 -17 128 -16 c 0
 86 -15 59 1 46 27 c 0
 31 54 28 80 33 105 c 2
 44 157 l 1
EndSplineSet
EndChar
StartChar: K
Encoding: 45 75 45
OldEncoding: 75
Width: 452
Flags: W
HStem: 0 21G<53 118 371 444> 474 20G<158 223 468 551>
DStem: 158 494 223 494 53 0 171 250 158 494 154 168 53 0 118 0 252 249 304 293 371 0 444 0 468 494 551 494 171 250 304 293
Fore
158 494 m 1
 223 494 l 1
 171 250 l 1
 468 494 l 1
 551 494 l 1
 304 293 l 1
 444 0 l 1
 371 0 l 1
 252 249 l 1
 154 168 l 1
 118 0 l 1
 53 0 l 1
 158 494 l 1
EndSplineSet
EndChar
StartChar: L
Encoding: 46 76 46
OldEncoding: 76
Width: 377
Flags: W
HStem: 0 56<130 362> 474 20G<159 223>
DStem: 159 494 223 494 54 0 130 56
Fore
159 494 m 1
 223 494 l 1
 130 56 l 1
 374 56 l 1
 362 0 l 1
 54 0 l 1
 159 494 l 1
EndSplineSet
EndChar
StartChar: M
Encoding: 47 77 47
OldEncoding: 77
Width: 565
Flags: W
HStem: 0 21G<51 116 251 316 451 516> 474 20G<156 246 531 621>
DStem: 156 494 201 401 51 0 116 0 201 401 246 494 251 0 300 73 531 494 536 401 300 73 316 0 536 401 621 494 451 0 516 0
Fore
316 0 m 1
 251 0 l 1
 201 401 l 1
 116 0 l 1
 51 0 l 1
 156 494 l 1
 246 494 l 1
 300 73 l 1
 531 494 l 1
 621 494 l 1
 516 0 l 1
 451 0 l 1
 536 401 l 1
 316 0 l 1
EndSplineSet
EndChar
StartChar: N
Encoding: 48 78 48
OldEncoding: 78
Width: 489
Flags: W
HStem: 0 21G<52 115 365 438> 474 20G<157 232 479 543>
DStem: 157 494 199 396 52 0 115 0 199 396 232 494 365 0 394 94 479 494 543 494 394 94 438 0
Fore
438 0 m 1
 365 0 l 1
 199 396 l 1
 115 0 l 1
 52 0 l 1
 157 494 l 1
 232 494 l 1
 394 94 l 1
 479 494 l 1
 543 494 l 1
 438 0 l 1
EndSplineSet
EndChar
StartChar: O
Encoding: 49 79 49
OldEncoding: 79
Width: 527
Flags: W
HStem: -16 58<259 281> 445 58<352 375>
Fore
371 503 m 0
 402 503 430 496 457 486 c 0
 483 476 502 464 512 452 c 0
 536 426 551 394 557 357 c 0
 564 320 563 282 555 243 c 0
 547 205 531 167 509 130 c 0
 488 93 459 61 423 35 c 0
 408 24 385 12 354 1 c 0
 323 -10 292 -16 261 -16 c 0
 231 -16 203 -10 176 1 c 0
 150 11 133 23 120 35 c 0
 95 61 81 93 75 130 c 0
 68 167 70 205 78 243 c 0
 83 267 91 292 103 318 c 0
 114 344 128 368 146 392 c 0
 164 415 186 435 209 452 c 0
 227 464 249 476 279 486 c 0
 310 496 341 503 371 503 c 0
359 445 m 0
 337 445 314 441 291 433 c 0
 267 425 247 414 230 398 c 0
 209 381 191 358 175 330 c 0
 160 303 148 273 142 243 c 0
 135 212 134 184 138 157 c 0
 142 130 151 107 164 89 c 0
 186 58 223 42 273 42 c 0
 324 42 367 58 403 89 c 0
 424 106 441 129 457 157 c 0
 472 184 483 212 490 243 c 0
 496 273 497 303 494 330 c 0
 490 358 482 381 469 398 c 0
 458 412 443 425 423 433 c 0
 404 441 383 445 359 445 c 0
EndSplineSet
EndChar
StartChar: P
Encoding: 50 80 50
OldEncoding: 80
Width: 452
Flags: W
HStem: 0 21G<62 125> 209 57<182 346> 438 56<167 376>
DStem: 167 494 218 438 62 0 182 266 167 494 169 209 62 0 125 0
Fore
62 0 m 1
 167 494 l 1
 374 494 l 2
 411 494 442 485 466 467 c 0
 491 449 500 418 496 374 c 0
 496 368 494 359 492 349 c 0
 483 304 462 269 428 245 c 0
 395 221 364 209 333 209 c 2
 169 209 l 1
 125 0 l 1
 62 0 l 1
218 438 m 1
 182 266 l 1
 344 266 l 2
 356 266 371 273 391 288 c 0
 410 303 424 325 430 357 c 0
 435 388 428 408 412 420 c 0
 398 433 380 438 361 438 c 2
 218 438 l 1
EndSplineSet
EndChar
StartChar: Q
Encoding: 51 81 51
OldEncoding: 81
Width: 527
Flags: W
HStem: -16 58<259 279> 445 58<352 375>
DStem: 315 101 354 139 357 60 405 89 398 18 444 52 455 -40 497 0
Fore
444 52 m 1
 497 0 l 1
 455 -40 l 1
 398 18 l 1
 352 -3 305 -15 261 -16 c 0
 231 -16 203 -10 176 1 c 0
 150 11 133 23 120 35 c 0
 95 61 81 93 75 130 c 0
 68 167 70 205 78 243 c 0
 83 267 91 292 103 318 c 0
 114 344 128 368 146 392 c 0
 164 415 186 435 209 452 c 0
 227 464 249 476 279 486 c 0
 310 496 341 503 371 503 c 0
 402 503 430 496 457 486 c 0
 483 476 502 464 512 452 c 0
 536 426 551 394 557 357 c 0
 564 320 563 282 555 243 c 0
 547 208 534 173 516 139 c 0
 497 105 473 76 444 52 c 1
357 60 m 1
 315 101 l 1
 354 139 l 1
 405 89 l 1
 418 101 430 114 442 131 c 0
 452 148 463 165 472 184 c 0
 479 203 485 223 490 243 c 0
 496 273 497 303 494 330 c 0
 490 358 482 381 469 398 c 0
 458 412 443 425 423 433 c 0
 404 441 383 445 359 445 c 0
 337 445 314 441 291 433 c 0
 267 425 247 414 230 398 c 0
 209 381 191 358 175 330 c 0
 160 303 148 273 142 243 c 0
 135 212 134 184 138 157 c 0
 142 130 151 107 164 89 c 0
 186 58 223 42 273 42 c 0
 302 42 330 47 357 60 c 1
EndSplineSet
EndChar
StartChar: R
Encoding: 52 82 52
OldEncoding: 82
Width: 489
Flags: W
HStem: 0 21G<63 127 384 460> 212 57<184 352> 438 56<168 396>
DStem: 168 494 220 438 63 0 184 269 168 494 172 212 63 0 127 0
Fore
63 0 m 1
 168 494 l 1
 389 494 l 2
 435 494 472 487 497 470 c 0
 521 454 529 419 520 368 c 0
 515 337 505 313 491 296 c 0
 479 280 457 263 428 244 c 1
 450 228 463 214 467 200 c 0
 468 185 467 158 459 118 c 0
 453 85 449 62 450 49 c 0
 450 35 455 24 463 16 c 1
 460 0 l 1
 384 0 l 1
 380 15 381 36 383 62 c 1
 396 120 l 2
 402 149 401 172 394 189 c 0
 388 205 367 212 334 212 c 2
 172 212 l 1
 127 0 l 1
 63 0 l 1
379 438 m 2
 220 438 l 1
 184 269 l 1
 343 269 l 2
 398 269 434 294 450 344 c 1
 464 407 440 438 379 438 c 2
EndSplineSet
EndChar
StartChar: S
Encoding: 53 83 53
OldEncoding: 83
Width: 452
Flags: W
HStem: -16 58<222 261> 449 54<300 330>
Fore
479 350 m 1
 418 350 l 1
 426 385 416 411 390 429 c 0
 379 437 366 443 355 445 c 0
 342 447 329 449 312 449 c 0
 277 449 250 441 228 424 c 0
 206 407 190 388 186 366 c 0
 184 356 185 346 188 337 c 0
 192 328 198 320 207 313 c 0
 223 302 247 296 276 288 c 0
 343 271 380 259 391 255 c 0
 411 247 429 233 441 211 c 0
 452 190 457 168 452 145 c 0
 447 112 431 82 410 59 c 0
 387 35 359 16 328 3 c 0
 294 -9 260 -16 223 -16 c 0
 186 -15 157 -10 136 -1 c 0
 113 7 93 23 79 46 c 0
 67 66 61 82 61 97 c 0
 60 112 62 132 66 157 c 1
 125 157 l 1
 120 133 122 111 131 88 c 0
 139 64 161 50 197 44 c 0
 207 43 228 42 261 42 c 1
 294 45 318 53 336 66 c 0
 362 84 377 105 383 131 c 0
 388 154 381 173 360 190 c 1
 338 202 305 211 263 221 c 0
 231 228 213 235 206 238 c 0
 197 242 184 246 169 252 c 0
 132 264 116 294 123 342 c 1
 129 373 141 400 159 425 c 0
 176 449 198 468 227 483 c 0
 254 496 287 503 323 503 c 0
 375 503 412 494 437 477 c 0
 477 447 491 406 479 350 c 1
EndSplineSet
EndChar
StartChar: T
Encoding: 54 84 54
OldEncoding: 84
Width: 414
Flags: W
HStem: 0 21G<177 241> 438 56<119 270 120 495>
DStem: 270 438 334 438 177 0 241 0
Fore
177 0 m 1
 270 438 l 1
 108 438 l 1
 120 494 l 1
 507 494 l 1
 495 438 l 1
 334 438 l 1
 241 0 l 1
 177 0 l 1
EndSplineSet
EndChar
StartChar: U
Encoding: 55 85 55
OldEncoding: 85
Width: 489
Flags: W
HStem: -16 54<242 261> 474 20G<163 226 479 542>
DStem: 163 494 226 494 87 138 151 141 479 494 542 494 404 141 466 138
Fore
163 494 m 1
 226 494 l 1
 151 141 l 2
 146 116 151 93 166 71 c 0
 183 50 211 38 255 38 c 0
 300 38 334 50 359 71 c 0
 384 93 399 116 404 141 c 2
 479 494 l 1
 542 494 l 1
 466 138 l 2
 463 123 457 107 447 90 c 0
 439 73 424 56 407 40 c 0
 388 23 365 10 338 0 c 0
 311 -10 279 -16 244 -16 c 0
 199 -16 163 -8 139 9 c 0
 114 26 98 47 91 71 c 0
 83 95 83 116 87 138 c 2
 163 494 l 1
EndSplineSet
EndChar
StartChar: V
Encoding: 56 86 56
OldEncoding: 86
Width: 452
Flags: W
HStem: 0 21G<195 263> 474 20G<125 193 475 542>
DStem: 125 494 193 494 195 0 248 76
Fore
248 76 m 1
 475 494 l 1
 542 494 l 1
 263 0 l 1
 195 0 l 1
 125 494 l 1
 193 494 l 1
 248 76 l 1
EndSplineSet
EndChar
StartChar: W
Encoding: 57 87 57
OldEncoding: 87
Width: 639
Flags: W
HStem: 0 21G<140 209 434 504> 474 20G<120 191 392 461 664 734>
DStem: 392 494 406 402 197 96 209 0 406 402 461 494 434 0 486 96 664 494 734 494 486 96 504 0
Fore
486 96 m 1
 664 494 l 1
 734 494 l 1
 504 0 l 1
 434 0 l 1
 406 402 l 1
 209 0 l 1
 140 0 l 1
 120 494 l 1
 191 494 l 1
 197 96 l 1
 392 494 l 1
 461 494 l 1
 486 96 l 1
EndSplineSet
EndChar
StartChar: X
Encoding: 58 88 58
OldEncoding: 88
Width: 452
Flags: W
HStem: 0 21G<15 94 362 440> 474 20G<132 209 461 538>
DStem: 132 494 209 494 243 253 294 305 243 253 272 201 15 0 94 0 272 201 322 253 362 0 440 0 461 494 538 494 294 305 322 253
Fore
538 494 m 1
 322 253 l 1
 440 0 l 1
 362 0 l 1
 272 201 l 1
 94 0 l 1
 15 0 l 1
 243 253 l 1
 132 494 l 1
 209 494 l 1
 294 305 l 1
 461 494 l 1
 538 494 l 1
EndSplineSet
EndChar
StartChar: Y
Encoding: 59 89 59
OldEncoding: 89
Width: 452
Flags: W
HStem: 0 21G<198 262> 474 20G<114 192 476 554>
DStem: 114 494 192 494 239 193 283 254 239 193 303 193 198 0 262 0 476 494 554 494 283 254 303 193
Fore
114 494 m 1
 192 494 l 1
 283 254 l 1
 476 494 l 1
 554 494 l 1
 303 193 l 1
 262 0 l 1
 198 0 l 1
 239 193 l 1
 114 494 l 1
EndSplineSet
MinimumDistance: x0,4 
EndChar
StartChar: Z
Encoding: 60 90 60
OldEncoding: 90
Width: 414
Flags: W
HStem: 0 56<111 396> 438 56<144 407>
DStem: 407 438 487 436 30 54 111 56
Fore
133 438 m 1
 145 494 l 1
 499 494 l 1
 487 436 l 1
 111 56 l 1
 408 56 l 1
 396 0 l 1
 19 0 l 1
 30 54 l 1
 407 438 l 1
 133 438 l 1
EndSplineSet
EndChar
StartChar: bracketleft
Encoding: 61 91 61
OldEncoding: 91
Width: 188
Flags: W
HStem: -145 51<81 139> 443 51<148 264>
DStem: 148 494 195 443 12 -145 81 -94
Fore
148 494 m 1
 275 494 l 1
 264 443 l 1
 195 443 l 1
 81 -94 l 1
 150 -94 l 1
 139 -145 l 1
 12 -145 l 1
 148 494 l 1
EndSplineSet
EndChar
StartChar: backslash
Encoding: 62 92 62
OldEncoding: 92
Width: 188
Flags: W
HStem: -14 21G<152 189> 474 20G<99 137>
DStem: 99 494 137 494 152 -14 189 -14
Fore
152 -14 m 1
 99 494 l 1
 137 494 l 1
 189 -14 l 1
 152 -14 l 1
EndSplineSet
EndChar
StartChar: bracketright
Encoding: 63 93 63
OldEncoding: 93
Width: 188
Flags: W
HStem: -146 51<-5 110> 443 51<120 178>
DStem: 178 443 246 494 64 -95 110 -146
Fore
110 443 m 1
 121 494 l 1
 246 494 l 1
 110 -146 l 1
 -15 -146 l 1
 -4 -95 l 1
 64 -95 l 1
 178 443 l 1
 110 443 l 1
EndSplineSet
EndChar
StartChar: asciicircum
Encoding: 64 94 64
OldEncoding: 94
Width: 317
Flags: W
DStem: 237 484 249 426 77 226 125 226 249 426 287 484 289 226 336 226
Fore
77 226 m 1
 237 484 l 1
 287 484 l 1
 336 226 l 1
 289 226 l 1
 249 426 l 1
 125 226 l 1
 77 226 l 1
EndSplineSet
EndChar
StartChar: underscore
Encoding: 65 95 65
OldEncoding: 95
Width: 377
Flags: W
HStem: -119 34<-34 367>
Fore
374 -85 m 1
 367 -119 l 1
 -40 -119 l 1
 -33 -85 l 1
 374 -85 l 1
EndSplineSet
EndChar
StartChar: grave
Encoding: 66 96 66
OldEncoding: 96
Width: 182
VWidth: 2048
Flags: W
HStem: 404 90<133 234>
Fore
234 404 m 1
 188 404 l 1
 133 494 l 5
 210 494 l 1
 234 404 l 1
EndSplineSet
EndChar
StartChar: a
Encoding: 67 97 67
OldEncoding: 97
Width: 377
Flags: W
HStem: -16 49<143 156>
DStem: 300 174 385 292 285 103 334 53
Fore
385 292 m 2
 334 53 l 2
 333 47 336 43 341 38 c 0
 347 35 357 33 370 33 c 1
 361 -9 l 1
 312 -16 l 1
 284 -7 270 10 274 36 c 1
 248 19 227 7 211 -1 c 0
 195 -9 173 -16 150 -16 c 0
 109 -17 81 -6 64 14 c 0
 47 33 40 61 48 96 c 0
 54 123 68 144 85 158 c 0
 101 172 120 182 143 189 c 0
 161 194 178 198 193 200 c 0
 208 202 225 205 244 206 c 0
 262 207 273 208 279 209 c 0
 300 215 311 224 313 236 c 2
 322 279 l 1
 323 290 315 301 298 306 c 0
 281 313 258 316 232 315 c 0
 190 314 164 292 151 250 c 1
 98 250 l 1
 106 280 l 1
 112 294 121 307 135 320 c 0
 148 332 162 342 180 350 c 0
 197 358 219 363 248 366 c 1
 276 366 298 364 317 360 c 0
 338 355 358 347 370 334 c 0
 383 323 388 308 385 292 c 2
285 103 m 2
 300 174 l 1
 286 168 270 165 253 163 c 0
 235 159 216 157 197 154 c 0
 177 150 161 146 151 142 c 0
 144 139 134 133 124 124 c 0
 115 116 110 106 107 94 c 0
 103 73 106 59 115 49 c 0
 126 38 139 33 156 33 c 0
 179 32 200 37 219 46 c 0
 238 55 254 66 265 77 c 0
 278 89 284 97 285 103 c 2
EndSplineSet
EndChar
StartChar: b
Encoding: 68 98 68
OldEncoding: 98
Width: 377
Flags: W
HStem: -16 54<193 203> 0 21G<36 86> 308 58<256 281> 474 20G<141 199>
VStem: 334 66<223 235>
DStem: 141 494 199 494 36 0 161 313
Fore
141 494 m 1
 199 494 l 1
 161 313 l 1
 168 324 182 334 200 345 c 0
 211 350 224 356 237 360 c 0
 250 364 266 366 281 366 c 0
 322 366 354 351 375 321 c 0
 384 311 390 297 393 282 c 0
 398 268 401 252 400 235 c 0
 400 218 397 199 393 180 c 0
 391 168 389 159 387 154 c 0
 378 119 361 88 341 61 c 0
 320 33 295 11 267 -1 c 0
 241 -12 217 -16 194 -16 c 0
 168 -16 148 -11 136 -1 c 0
 113 16 100 29 95 40 c 1
 86 0 l 1
 36 0 l 1
 141 494 l 1
275 71 m 0
 301 99 318 134 328 177 c 0
 332 198 334 217 334 234 c 0
 333 251 329 263 324 273 c 1
 314 297 292 310 256 308 c 0
 225 308 200 296 179 275 c 0
 170 264 160 251 151 232 c 0
 141 211 134 191 129 170 c 0
 122 136 123 105 134 77 c 0
 143 54 164 42 193 38 c 1
 228 38 256 50 275 71 c 0
EndSplineSet
EndChar
StartChar: c
Encoding: 69 99 69
OldEncoding: 99
Width: 339
Flags: W
HStem: 314 52<248 259>
Fore
295 123 m 1
 349 123 l 1
 342 94 331 70 315 51 c 0
 298 29 275 12 249 1 c 0
 223 -10 195 -17 168 -16 c 0
 141 -16 118 -7 97 6 c 0
 77 18 64 36 58 60 c 0
 49 94 49 134 59 181 c 0
 73 235 100 280 140 318 c 0
 173 349 212 365 257 366 c 0
 277 366 295 364 311 358 c 0
 328 353 341 345 350 334 c 1
 363 327 370 313 373 296 c 0
 377 279 377 259 373 236 c 1
 317 236 l 1
 317 255 317 270 314 280 c 0
 310 289 304 297 293 303 c 0
 278 311 262 314 248 314 c 0
 222 313 195 301 170 277 c 0
 151 260 133 231 122 189 c 0
 110 142 110 110 116 93 c 0
 126 56 152 37 192 38 c 0
 207 38 221 43 237 51 c 0
 251 59 261 67 268 77 c 0
 281 94 290 108 295 123 c 1
EndSplineSet
EndChar
StartChar: d
Encoding: 70 100 70
OldEncoding: 100
Width: 377
Flags: W
HStem: -16 54<173 194> -1 21G<286 336> 307 59<246 259> 474 20G<384 441>
DStem: 384 494 441 494 346 313 336 -1
Fore
384 494 m 1
 441 494 l 1
 336 -1 l 1
 286 -1 l 1
 295 41 l 1
 276 24 257 9 237 -2 c 0
 222 -11 200 -16 173 -16 c 0
 146 -16 123 -11 105 -1 c 0
 82 11 68 32 59 60 c 0
 50 87 48 118 52 153 c 0
 52 158 54 168 56 181 c 0
 62 208 73 234 86 259 c 0
 99 285 115 305 132 320 c 0
 169 350 207 366 246 366 c 0
 276 366 300 359 319 345 c 0
 332 334 341 324 346 313 c 1
 384 494 l 1
127 70 m 0
 139 49 162 37 194 38 c 0
 209 38 224 43 238 50 c 0
 252 56 263 66 271 77 c 0
 293 104 307 134 315 168 c 0
 320 191 321 212 319 232 c 0
 317 251 315 266 310 273 c 0
 298 296 276 307 246 307 c 0
 212 307 185 296 164 273 c 0
 142 250 127 217 118 176 c 0
 109 133 113 98 127 70 c 0
EndSplineSet
EndChar
StartChar: e
Encoding: 71 101 71
OldEncoding: 101
Width: 377
Flags: W
HStem: -16 50<180 201> 155 51<134 381> 320 46<266 280>
Fore
381 155 m 1
 121 155 l 1
 118 139 116 125 116 115 c 0
 116 105 119 93 124 78 c 1
 139 49 162 34 195 34 c 0
 212 34 226 36 240 42 c 0
 252 47 262 54 272 62 c 0
 281 70 288 79 293 87 c 0
 298 95 302 102 305 108 c 1
 363 108 l 1
 350 78 333 54 316 37 c 0
 299 20 282 8 259 -1 c 0
 235 -11 211 -16 186 -16 c 0
 161 -16 138 -11 119 -1 c 0
 99 9 83 23 72 42 c 0
 55 72 52 118 64 175 c 0
 78 235 103 281 138 313 c 0
 178 348 225 367 280 366 c 0
 294 366 306 363 319 358 c 0
 332 354 343 348 353 340 c 0
 363 332 370 324 374 315 c 0
 383 298 389 282 391 267 c 0
 393 251 395 236 394 224 c 0
 392 210 387 188 381 155 c 1
134 206 m 1
 330 206 l 1
 333 220 332 237 331 254 c 0
 329 271 326 282 321 288 c 1
 320 296 314 303 302 308 c 0
 293 314 282 320 267 320 c 0
 231 321 203 310 182 288 c 1
 175 284 166 272 156 255 c 0
 144 237 139 220 134 206 c 1
EndSplineSet
EndChar
StartChar: f
Encoding: 72 102 72
OldEncoding: 102
Width: 188
Flags: W
HStem: 0 21G<60 118> 304 52<87 125 194 239> 446 50<248 270>
DStem: 125 304 183 304 60 0 118 0
Fore
60 0 m 1
 125 304 l 1
 77 304 l 1
 88 356 l 1
 136 356 l 1
 148 416 l 2
 154 440 166 459 183 473 c 0
 201 487 213 494 223 494 c 0
 228 495 237 496 250 496 c 0
 263 496 273 495 280 494 c 1
 270 446 l 1
 249 446 232 444 224 440 c 0
 214 434 208 424 205 408 c 2
 194 356 l 1
 250 356 l 1
 239 304 l 1
 183 304 l 1
 118 0 l 1
 60 0 l 1
EndSplineSet
EndChar
StartChar: g
Encoding: 73 103 73
OldEncoding: 103
Width: 377
Flags: W
HStem: -148 50<133 157> -16 54<155 180> 304 62<238 251> 336 20G<351 407>
VStem: 22 61<-75 -50>
Fore
351 356 m 1
 407 356 l 1
 344 60 l 2
 336 25 327 -5 318 -29 c 0
 309 -54 296 -76 279 -95 c 0
 263 -114 243 -127 218 -134 c 0
 195 -141 174 -146 157 -148 c 1
 120 -148 93 -145 78 -138 c 0
 60 -130 46 -121 38 -110 c 0
 29 -98 24 -87 22 -75 c 0
 22 -63 22 -52 23 -41 c 1
 80 -41 l 1
 81 -43 82 -46 82 -52 c 0
 82 -58 82 -62 83 -66 c 0
 83 -69 86 -73 91 -77 c 0
 95 -81 101 -86 110 -90 c 0
 120 -96 134 -98 152 -98 c 0
 171 -98 190 -95 206 -89 c 1
 223 -81 234 -73 240 -66 c 0
 246 -59 253 -47 260 -32 c 0
 270 -8 279 17 284 43 c 1
 242 3 198 -17 155 -16 c 0
 129 -15 106 -3 87 16 c 1
 70 28 59 47 52 72 c 0
 48 97 46 124 52 155 c 0
 58 184 68 214 80 242 c 0
 93 270 108 294 125 311 c 0
 135 321 152 333 177 347 c 0
 200 359 226 366 251 366 c 0
 290 365 320 348 342 313 c 1
 351 356 l 1
257 66 m 0
 283 88 301 123 311 171 c 0
 316 193 318 215 317 235 c 0
 315 255 309 270 302 280 c 0
 299 285 291 290 280 296 c 0
 269 302 256 304 244 304 c 0
 206 304 174 287 151 252 c 0
 136 231 125 205 117 172 c 0
 107 130 109 98 119 77 c 0
 131 53 152 38 180 38 c 0
 210 37 236 47 257 66 c 0
EndSplineSet
EndChar
StartChar: h
Encoding: 74 104 74
OldEncoding: 104
Width: 377
Flags: W
HStem: 0 21G<47 104 272 330> 314 52<249 292> 474 20G<152 209>
DStem: 152 494 209 494 47 0 171 313 152 494 153 232 47 0 104 0 324 243 387 270 272 0 330 0
Fore
47 0 m 1
 152 494 l 1
 209 494 l 1
 171 313 l 1
 193 332 216 347 241 357 c 1
 263 363 280 366 292 366 c 0
 311 366 329 360 346 354 c 0
 368 345 381 333 385 315 c 0
 388 297 390 282 387 270 c 2
 330 0 l 1
 272 0 l 1
 324 243 l 2
 331 276 325 296 308 305 c 1
 291 311 272 314 249 314 c 1
 231 311 211 301 187 284 c 0
 169 270 158 253 153 232 c 2
 104 0 l 1
 47 0 l 1
EndSplineSet
EndChar
StartChar: i
Encoding: 75 105 75
OldEncoding: 105
Width: 150
Flags: W
HStem: 0 21G<45 102> 336 20G<121 178> 474 20G<150 207>
DStem: 121 356 178 356 45 0 102 0 150 494 207 494 135 424 192 424
Fore
178 356 m 1
 102 0 l 1
 45 0 l 1
 121 356 l 1
 178 356 l 1
207 494 m 1
 192 424 l 1
 135 424 l 1
 150 494 l 1
 207 494 l 1
EndSplineSet
EndChar
StartChar: j
Encoding: 76 106 76
OldEncoding: 106
Width: 150
Flags: W
HStem: 336 20G<122 180> 474 20G<151 209>
DStem: 122 356 180 356 32 -66 87 -78 151 494 209 494 136 424 194 424
Fore
136 424 m 1
 151 494 l 1
 209 494 l 1
 194 424 l 1
 136 424 l 1
-43 -148 m 1
 -33 -98 l 1
 1 -95 l 2
 9 -94 17 -90 23 -84 c 0
 27 -78 31 -71 32 -66 c 2
 122 356 l 1
 180 356 l 1
 87 -78 l 2
 85 -90 79 -103 68 -116 c 0
 58 -129 42 -138 21 -144 c 0
 7 -147 -14 -148 -43 -148 c 1
EndSplineSet
EndChar
StartChar: k
Encoding: 77 107 77
OldEncoding: 107
Width: 339
Flags: W
HStem: 0 21G<40 96 270 340> 336 20G<322 396> 474 20G<145 201>
DStem: 145 494 201 494 40 0 140 208 145 494 124 133 40 0 96 0 194 190 245 233 270 0 340 0 322 356 396 356 140 208 245 233
Fore
145 494 m 1
 201 494 l 1
 140 208 l 1
 322 356 l 1
 396 356 l 1
 245 233 l 1
 340 0 l 1
 270 0 l 1
 194 190 l 1
 124 133 l 1
 96 0 l 1
 40 0 l 1
 145 494 l 1
EndSplineSet
EndChar
StartChar: l
Encoding: 78 108 78
OldEncoding: 108
Width: 150
Flags: W
HStem: 0 21G<46 103> 474 20G<151 208>
DStem: 151 494 208 494 46 0 103 0
Fore
46 0 m 1
 151 494 l 1
 208 494 l 1
 103 0 l 1
 46 0 l 1
EndSplineSet
EndChar
StartChar: m
Encoding: 79 109 79
OldEncoding: 109
Width: 565
Flags: W
HStem: 0 21G<49 105 254 311 460 518> 314 52<256 287 459 484> 336 20G<125 181>
DStem: 125 356 154 229 49 0 105 0 308 255 362 242 254 0 311 0 514 254 577 278 460 0 518 0
Fore
49 0 m 1
 125 356 l 1
 181 356 l 1
 171 311 l 1
 191 333 206 347 217 351 c 0
 237 362 261 366 287 366 c 0
 314 366 334 362 344 353 c 0
 357 342 366 330 373 313 c 1
 381 321 389 328 393 332 c 0
 397 337 402 341 410 346 c 0
 415 350 422 354 430 357 c 0
 445 363 463 366 484 366 c 0
 515 366 537 363 547 355 c 0
 554 351 560 346 566 337 c 0
 572 329 575 319 577 308 c 0
 578 298 579 288 577 278 c 2
 518 0 l 1
 460 0 l 1
 514 254 l 1
 516 294 499 314 459 314 c 0
 434 314 413 307 398 294 c 0
 382 280 370 263 362 242 c 1
 311 0 l 1
 254 0 l 1
 308 255 l 2
 317 295 295 314 256 314 c 0
 233 314 212 306 193 290 c 0
 174 275 161 254 154 229 c 1
 105 0 l 1
 49 0 l 1
EndSplineSet
EndChar
StartChar: n
Encoding: 80 110 80
OldEncoding: 110
Width: 377
Flags: W
HStem: 0 21G<47 104 273 330> 314 52<269 294> 336 20G<123 180>
DStem: 123 356 144 189 47 0 104 0 326 247 389 277 273 0 330 0
Fore
123 356 m 1
 180 356 l 1
 170 311 l 1
 189 331 205 345 219 350 c 1
 236 360 261 367 294 366 c 0
 320 366 338 363 349 357 c 0
 362 349 373 339 381 329 c 0
 389 318 391 301 389 277 c 1
 330 0 l 1
 273 0 l 1
 326 247 l 2
 329 262 328 273 324 284 c 0
 320 294 313 302 302 306 c 0
 293 312 282 314 269 314 c 0
 242 314 216 304 193 285 c 0
 170 266 154 233 144 189 c 2
 104 0 l 1
 47 0 l 1
 123 356 l 1
EndSplineSet
EndChar
StartChar: o
Encoding: 81 111 81
OldEncoding: 111
Width: 377
Flags: W
HStem: -16 58<180 200> 310 56<245 265>
Fore
63 54 m 0
 52 85 52 125 62 175 c 0
 73 226 91 266 115 296 c 0
 135 320 158 339 184 350 c 0
 210 362 236 366 263 366 c 0
 289 366 314 360 335 349 c 0
 357 338 371 320 381 296 c 0
 393 264 394 224 383 175 c 0
 373 128 355 87 329 54 c 0
 310 31 288 12 261 1 c 0
 235 -10 208 -16 182 -16 c 0
 155 -16 131 -10 110 1 c 0
 89 12 74 31 63 54 c 0
194 42 m 0
 212 42 230 46 247 55 c 0
 265 64 278 78 289 96 c 0
 306 123 319 149 324 175 c 0
 330 200 329 227 323 255 c 0
 319 273 311 287 298 296 c 0
 284 305 268 310 251 310 c 0
 233 310 215 305 197 297 c 0
 179 288 163 275 151 255 c 1
 144 238 136 223 132 210 c 0
 126 198 121 185 119 175 c 0
 115 154 115 127 121 96 c 0
 125 78 135 64 148 55 c 0
 160 46 176 42 194 42 c 0
EndSplineSet
EndChar
StartChar: p
Encoding: 82 112 82
OldEncoding: 112
Width: 377
Flags: W
HStem: -16 59<200 213> 313 53<252 273> 336 20G<112 162>
DStem: 112 356 102 38 5 -148 63 -148
Fore
63 -148 m 1
 5 -148 l 1
 112 356 l 1
 162 356 l 1
 152 311 l 1
 164 324 183 338 209 353 c 0
 226 362 248 366 273 366 c 0
 299 366 322 362 342 351 c 0
 365 339 381 319 390 290 c 0
 398 262 402 232 396 198 c 0
 396 192 394 183 392 172 c 0
 386 144 375 116 362 92 c 0
 348 66 332 45 314 31 c 0
 278 0 240 -16 200 -16 c 0
 171 -16 146 -9 128 6 c 0
 115 16 107 26 102 38 c 1
 63 -148 l 1
320 280 m 0
 308 302 286 314 252 313 c 0
 238 313 223 307 210 302 c 1
 195 294 185 285 176 273 c 0
 153 246 139 216 132 182 c 0
 127 162 126 141 128 122 c 0
 129 103 132 87 137 77 c 0
 144 66 152 58 164 52 c 0
 175 46 186 43 200 43 c 0
 235 43 261 54 282 77 c 0
 302 99 318 131 327 173 c 0
 336 216 334 252 320 280 c 0
EndSplineSet
EndChar
StartChar: q
Encoding: 83 113 83
OldEncoding: 113
Width: 377
Flags: W
HStem: -16 59<165 190> 313 53<233.205 256> 336 20G<362 412>
DStem: 287 38 412 356 248 -148 305 -148
Fore
305 -148 m 1
 248 -148 l 1
 287 38 l 1
 279 27 265 16 247 6 c 0
 222 -9 195 -16 165 -16 c 0
 126 -16 95 0 71 31 c 0
 47 62 41 108 54 170 c 0
 57 182 59 192 61 198 c 0
 72 232 88 262 108 290 c 0
 129 319 152 339 180 351 c 0
 202 362 227 366 254 366 c 0
 280 366 300 362 312 353 c 0
 330 340 343 327 352 311 c 1
 362 356 l 1
 412 356 l 1
 305 -148 l 1
172 280 m 0
 144 252 126 215 118 172 c 0
 109 130 113 98 122 77 c 0
 133 54 156 43 190 43 c 0
 204 43 219 46 232 52 c 0
 246 58 258 67 268 77 c 0
 286 96 301 122 311 156 c 0
 313 162 315 170 317 181 c 0
 325 217 323 247 313 273 c 0
 310 285 303 294 292 301 c 0
 281 307 268 313 253 313 c 0
 221 314 192 303 172 280 c 0
EndSplineSet
EndChar
StartChar: r
Encoding: 84 114 84
OldEncoding: 114
Width: 226
Flags: W
HStem: 0 21G<46 104> 306 60<262 283> 336 20G<122 180>
DStem: 122 356 143 185 46 0 104 0
Fore
46 0 m 1
 122 356 l 1
 180 356 l 1
 168 301 l 1
 182 320 199 336 218 348 c 0
 234 359 251 365 263 366 c 2
 296 366 l 1
 283 306 l 1
 262 306 244 304 227 298 c 0
 205 289 188 276 174 259 c 0
 159 240 150 216 143 185 c 2
 104 0 l 1
 46 0 l 1
EndSplineSet
EndChar
StartChar: s
Encoding: 85 115 85
OldEncoding: 115
Width: 339
Flags: W
HStem: 346 20G<223.5 285>
Fore
45 105 m 1
 99 105 l 1
 99 90 99 80 101 73 c 0
 101 68 106 61 112 54 c 0
 118 47 130 42 146 36 c 1
 154 35 171 34 196 34 c 1
 217 37 233 42 243 49 c 0
 249 52 257 59 263 68 c 0
 269 76 273 84 275 92 c 0
 279 113 270 129 246 137 c 0
 239 139 229 141 216 145 c 0
 202 148 190 151 181 154 c 0
 171 156 161 159 149 163 c 0
 137 166 128 170 122 173 c 0
 89 185 79 215 88 260 c 0
 95 293 113 319 143 338 c 0
 172 357 205 366 242 366 c 0
 328 366 364 330 351 257 c 1
 295 257 l 1
 298 272 295 286 287 296 c 0
 279 306 258 312 225 313 c 1
 189 311 164 298 148 276 c 0
 146 272 144 267 142 259 c 0
 139 243 143 232 154 226 c 0
 161 223 168 219 174 217 c 0
 179 215 187 214 199 210 c 0
 209 207 220 203 233 200 c 0
 265 194 290 185 309 173 c 0
 332 158 338 129 329 85 c 1
 322 67 313 50 297 35 c 0
 283 19 265 7 246 -1 c 0
 227 -9 205 -15 179 -16 c 0
 150 -17 128 -15 111 -11 c 0
 53 1 32 41 45 105 c 1
EndSplineSet
EndChar
StartChar: t
Encoding: 86 116 86
OldEncoding: 116
Width: 188
Flags: W
HStem: -16 52<108 154> 304 52<84 124 192 237>
DStem: 124 304 181 304 66 35 128 56 155 452 212 452 135 356 192 356
Fore
212 452 m 1
 192 356 l 1
 248 356 l 1
 237 304 l 1
 181 304 l 1
 128 56 l 2
 125 43 135 36 154 36 c 0
 159 36 167 37 180 38 c 1
 170 -11 l 1
 153 -15 133 -16 108 -16 c 1
 91 -14 79 -7 72 5 c 0
 66 16 65 26 66 35 c 2
 124 304 l 1
 74 304 l 1
 85 356 l 1
 135 356 l 1
 155 452 l 1
 212 452 l 1
EndSplineSet
EndChar
StartChar: u
Encoding: 87 117 87
OldEncoding: 117
Width: 377
Flags: W
HStem: -16 54<154 172> 0 21G<270 327> 336 20G<120 177 346 403>
DStem: 120 356 177 356 59 72 123 104 346 356 403 356 305 163 327 0
Fore
327 0 m 1
 270 0 l 1
 278 38 l 1
 259 18 243 6 229 -1 c 0
 209 -10 185 -16 154 -16 c 0
 133 -16 113 -14 99 -8 c 1
 71 9 57 35 59 72 c 1
 120 356 l 1
 177 356 l 1
 123 104 l 2
 118 78 123 60 138 47 c 0
 147 42 156 38 168 38 c 0
 185 38 199 40 209 42 c 0
 239 52 260 67 276 88 c 0
 289 107 298 132 305 163 c 2
 346 356 l 1
 403 356 l 1
 327 0 l 1
EndSplineSet
EndChar
StartChar: v
Encoding: 88 118 88
OldEncoding: 118
Width: 339
Flags: W
HStem: 0 21G<131 193> 336 20G<83 146 342 406>
DStem: 83 356 146 356 131 0 177 68 342 356 406 356 177 68 193 0
Fore
193 0 m 1
 131 0 l 1
 83 356 l 1
 146 356 l 1
 177 68 l 1
 342 356 l 1
 406 356 l 1
 193 0 l 1
EndSplineSet
EndChar
StartChar: w
Encoding: 89 119 89
OldEncoding: 119
Width: 489
Flags: W
HStem: 0 21G<106 171 311 375> 336 20G<81 144 283 353 492 556>
DStem: 81 356 144 356 106 0 155 79 283 356 295 270 155 79 171 0 295 270 353 356 311 0 361 79
Fore
106 0 m 1
 81 356 l 1
 144 356 l 1
 155 79 l 1
 283 356 l 1
 353 356 l 1
 361 79 l 1
 492 356 l 1
 556 356 l 1
 375 0 l 1
 311 0 l 1
 295 270 l 1
 171 0 l 1
 106 0 l 1
EndSplineSet
EndChar
StartChar: x
Encoding: 90 120 90
OldEncoding: 120
Width: 339
Flags: W
HStem: 0 21G<11 76 257 321> 336 20G<95 160 331 396>
DStem: 95 356 160 356 176 182 219 231 176 182 195 133 11 0 76 0 195 133 238 183 257 0 321 0 331 356 396 356 219 231 238 183
Fore
195 133 m 1
 76 0 l 1
 11 0 l 1
 176 182 l 1
 95 356 l 1
 160 356 l 1
 219 231 l 1
 331 356 l 1
 396 356 l 1
 238 183 l 1
 321 0 l 1
 257 0 l 1
 195 133 l 1
EndSplineSet
EndChar
StartChar: y
Encoding: 91 121 91
OldEncoding: 121
Width: 339
Flags: W
HStem: -148 55<36 57> 336 20G<90 149 339 400>
DStem: 90 356 149 356 129 -6 182 87 129 -6 400 356 97 -62 146 -82 339 356 400 356 182 87 146 -82
Fore
339 356 m 1
 400 356 l 1
 146 -82 l 2
 129 -111 109 -129 83 -139 c 0
 70 -145 54 -148 36 -148 c 0
 23 -148 13 -146 5 -140 c 1
 17 -87 l 1
 24 -90 38 -93 57 -93 c 1
 73 -90 86 -80 97 -62 c 2
 129 -6 l 1
 90 356 l 1
 149 356 l 1
 182 87 l 1
 339 356 l 1
EndSplineSet
EndChar
StartChar: z
Encoding: 92 122 92
OldEncoding: 122
Width: 339
Flags: W
HStem: 0 56<109 310> 299 57<111 293>
DStem: 293 299 367 306 31 46 109 56
Fore
378 356 m 1
 367 306 l 1
 109 56 l 1
 322 56 l 1
 310 0 l 1
 21 0 l 1
 31 46 l 1
 293 299 l 1
 100 299 l 1
 112 356 l 1
 378 356 l 1
EndSplineSet
EndChar
StartChar: braceleft
Encoding: 93 123 93
OldEncoding: 123
Width: 226
Flags: W
DStem: 94 55 147 67 69 -61 122 -53 169 411 219 405 145 296 193 284
Fore
61 151 m 1
 71 199 l 1
 94 203 111 214 120 228 c 0
 131 243 139 266 145 296 c 2
 169 411 l 2
 174 435 186 454 202 470 c 0
 217 485 232 494 243 494 c 2
 293 496 l 1
 284 451 l 1
 252 447 l 2
 243 446 236 443 232 436 c 0
 227 429 222 419 219 405 c 2
 193 284 l 2
 187 253 177 229 163 214 c 0
 149 198 135 185 121 175 c 1
 130 168 138 157 146 140 c 0
 154 123 154 98 147 67 c 2
 122 -53 l 2
 119 -68 119 -79 121 -86 c 0
 122 -93 128 -96 136 -97 c 2
 167 -101 l 1
 157 -145 l 1
 107 -144 l 2
 96 -144 86 -134 77 -119 c 0
 67 -104 64 -85 69 -61 c 2
 94 55 l 2
 100 86 102 108 98 123 c 0
 93 138 82 147 61 151 c 1
EndSplineSet
EndChar
StartChar: bar
Encoding: 94 124 94
OldEncoding: 124
Width: 176
Flags: W
HStem: 474 20G<173 213>
DStem: 173 494 213 494 37 -146 77 -146
Fore
213 494 m 1
 77 -146 l 1
 37 -146 l 1
 173 494 l 1
 213 494 l 1
EndSplineSet
EndChar
StartChar: braceright
Encoding: 95 125 95
OldEncoding: 125
Width: 226
Flags: W
DStem: 87 67 136 55 62 -53 111 -61 159 405 211 411 133 284 187 296
Fore
219 199 m 1
 209 151 l 1
 187 147 170 138 160 123 c 0
 151 108 142 86 136 55 c 2
 111 -61 l 2
 108 -77 102 -90 93 -103 c 0
 84 -115 75 -124 65 -132 c 0
 55 -139 47 -142 38 -144 c 2
 -12 -145 l 1
 -2 -101 l 1
 29 -97 l 2
 39 -96 46 -92 51 -85 c 0
 55 -78 59 -68 62 -53 c 2
 87 67 l 2
 94 97 105 122 122 139 c 0
 136 156 149 168 160 175 c 0
 159 175 158 179 153 184 c 0
 147 190 143 198 139 208 c 0
 134 218 130 228 130 241 c 0
 130 253 130 267 133 284 c 2
 159 405 l 2
 162 419 163 429 162 436 c 0
 160 443 154 446 145 447 c 2
 115 451 l 1
 124 496 l 1
 174 494 l 2
 182 493 189 489 196 483 c 0
 202 475 207 466 211 453 c 0
 215 441 215 427 211 411 c 2
 187 296 l 2
 181 266 180 243 182 228 c 0
 186 214 199 203 219 199 c 1
EndSplineSet
EndChar
StartChar: asciitilde
Encoding: 96 126 96
OldEncoding: 126
Width: 395
Flags: W
HStem: 181 46<310 323> 254 43<175 186>
DStem: 199 244 219 288 261 198 297 235
Fore
129 198 m 1
 93 198 l 1
 102 233 115 259 131 273 c 0
 149 289 167 297 186 297 c 0
 199 297 210 295 219 288 c 2
 297 235 l 2
 304 231 312 227 323 227 c 0
 332 227 339 229 346 234 c 0
 355 241 362 255 367 279 c 1
 403 279 l 1
 397 250 385 226 367 208 c 0
 351 190 332 181 310 181 c 0
 296 181 277 185 261 198 c 2
 199 244 l 1
 192 251 185 254 177 254 c 0
 167 254 157 249 148 238 c 0
 138 228 133 215 129 198 c 1
EndSplineSet
EndChar
StartChar: exclamdown
Encoding: 98 161 223
OldEncoding: 161
Width: 145
VWidth: 2048
Flags: W
DStem: 31 16 113 16 8 -96 90 -96
Fore
195 414 m 1
 180 342 l 1
 102 342 l 1
 117 414 l 1
 195 414 l 1
153 287 m 1
 113 16 l 1
 90 -96 l 1
 8 -96 l 1
 31 16 l 1
 106 287 l 1
 153 287 l 1
EndSplineSet
EndChar
StartChar: cent
Encoding: 99 162 224
OldEncoding: 162
Width: 348
VWidth: 2048
Flags: W
HStem: 6 53<169 182>
DStem: 95 24 133 10 21 -122 60 -134 262 349 299 341 122 71 159 62 361 549 398 538 289 408 327 396
Fore
299 341 m 1
 159 62 l 1
 180 59 l 1
 237 59 278 92 301 156 c 1
 364 149 l 1
 348 107 322 72 288 46 c 0
 253 19 213 6 169 6 c 0
 156 6 143 7 133 10 c 1
 60 -134 l 1
 21 -122 l 1
 95 24 l 1
 39 55 20 118 39 207 c 0
 52 266 76 313 109 350 c 1
 150 390 198 410 253 410 c 1
 289 408 l 1
 361 549 l 1
 398 538 l 1
 327 396 l 1
 368 377 388 342 386 288 c 1
 320 279 l 1
 320 306 313 328 299 341 c 1
262 349 m 1
 244 350 l 2
 173 353 126 303 105 202 c 0
 91 138 97 94 122 71 c 1
 262 349 l 1
EndSplineSet
EndChar
StartChar: sterling
Encoding: 100 163 225
OldEncoding: 163
Width: 294
VWidth: 2048
Flags: W
HStem: -2 46<218 233> 21 42<97 112> 188 41<47 92 144 223> 377 42<221 242>
Fore
144 229 m 1
 232 229 l 1
 223 188 l 1
 144 188 l 1
 145 180 147 172 145 164 c 0
 137 127 113 92 72 58 c 1
 88 61 101 63 112 63 c 0
 128 63 146 61 163 55 c 0
 194 47 214 44 225 44 c 0
 238 44 256 49 282 60 c 1
 288 15 l 1
 259 3 235 -2 218 -2 c 1
 193 0 l 1
 161 9 l 1
 126 20 l 1
 100 21 l 1
 71 21 41 14 13 -3 c 1
 2 44 l 1
 50 69 78 105 89 153 c 1
 92 188 l 1
 39 188 l 1
 48 229 l 1
 89 229 l 1
 87 260 87 284 91 303 c 0
 99 338 116 366 145 386 c 0
 173 408 204 419 240 419 c 0
 312 419 344 383 342 313 c 1
 291 305 l 1
 293 354 273 377 231 377 c 0
 212 377 194 371 177 357 c 0
 160 345 150 329 145 308 c 0
 141 289 141 263 144 229 c 1
EndSplineSet
EndChar
StartChar: currency
Encoding: 101 164 226
OldEncoding: 164
Width: 350
VWidth: 2048
Flags: W
HStem: 52 55<173 188> 281 53<221 237>
DStem: 62 116 96 78 3 70 35 31 373 358 405 318 313 311 346 272
Fore
95 272 m 1
 56 318 l 1
 104 358 l 1
 145 311 l 1
 174 328 203 334 235 334 c 0
 265 334 291 328 313 311 c 1
 373 358 l 1
 405 318 l 1
 346 272 l 1
 358 249 360 223 354 194 c 0
 348 166 335 140 313 116 c 1
 352 70 l 1
 304 31 l 1
 264 78 l 1
 234 61 205 52 175 52 c 0
 142 52 116 61 96 78 c 1
 35 31 l 1
 3 70 l 1
 62 116 l 1
 51 140 47 166 53 194 c 0
 59 223 74 249 95 272 c 1
111 194 m 0
 106 170 111 149 124 132 c 0
 140 116 160 107 186 107 c 0
 212 107 235 116 256 132 c 0
 277 149 290 170 295 194 c 0
 300 218 296 238 282 255 c 0
 267 272 248 281 223 281 c 0
 197 281 173 272 151 255 c 0
 130 238 116 218 111 194 c 0
EndSplineSet
EndChar
StartChar: yen
Encoding: 102 165 227
OldEncoding: 165
Width: 437
VWidth: 2048
Flags: W
HStem: 119 51<53 198 276 418> 219 54<75 220 324 440>
DStem: 106 525 180 525 203 273 248 341 198 119 265 119 173 2 240 2 449 525 529 525 309 346 324 273
Fore
173 2 m 1
 198 119 l 1
 43 119 l 1
 54 170 l 1
 209 170 l 1
 220 219 l 1
 65 219 l 1
 76 273 l 1
 203 273 l 1
 106 525 l 1
 180 525 l 1
 248 341 l 1
 266 287 l 1
 309 346 l 1
 449 525 l 1
 529 525 l 1
 324 273 l 1
 451 273 l 1
 440 219 l 1
 287 219 l 1
 276 170 l 1
 429 170 l 1
 418 119 l 1
 265 119 l 1
 240 2 l 1
 173 2 l 1
EndSplineSet
EndChar
StartChar: brokenbar
Encoding: 103 166 228
OldEncoding: 166
Width: 88
VWidth: 2048
Flags: W
DStem: 28 78 83 78 -23 -160 32 -160 100 421 155 421 50 183 105 183
Fore
155 421 m 1
 105 183 l 1
 50 183 l 1
 100 421 l 1
 155 421 l 1
83 78 m 1
 32 -160 l 1
 -23 -160 l 1
 28 78 l 1
 83 78 l 1
EndSplineSet
EndChar
StartChar: section
Encoding: 104 167 229
OldEncoding: 167
Width: 393
VWidth: 2048
Flags: W
HStem: -124 52<163 187> 473 60<284 293>
VStem: 20 73<-4 7>
Fore
20 -2 m 1
 93 7 l 1
 93 -46 122 -72 176 -72 c 0
 199 -72 219 -68 237 -58 c 0
 258 -47 270 -33 274 -15 c 0
 278 5 263 27 227 52 c 1
 150 99 l 2
 114 122 89 141 74 156 c 0
 49 181 41 209 48 238 c 0
 58 286 93 319 155 333 c 1
 127 360 116 389 122 417 c 0
 129 450 150 476 183 496 c 0
 215 515 240 527 258 531 c 0
 266 533 276 533 284 533 c 0
 353 533 398 512 418 468 c 2
 418 467 l 2
 425 449 428 429 428 407 c 1
 353 400 l 1
 355 450 332 473 284 473 c 0
 265 473 245 470 227 461 c 1
 208 450 196 436 192 420 c 0
 188 401 202 381 233 357 c 1
 304 313 l 2
 343 289 371 271 384 259 c 0
 408 235 418 208 412 177 c 0
 402 134 367 102 303 80 c 1
 339 54 353 23 345 -12 c 0
 338 -47 315 -76 278 -97 c 0
 246 -115 209 -124 167 -124 c 0
 68 -124 18 -84 20 -2 c 1
271 103 m 1
 313 120 336 141 341 166 c 0
 347 193 319 226 255 263 c 0
 226 281 203 296 185 311 c 1
 141 292 117 269 112 244 c 0
 106 217 133 188 192 153 c 0
 229 132 255 115 271 103 c 1
EndSplineSet
EndChar
StartChar: dieresis
Encoding: 105 168 230
OldEncoding: 168
Width: 237
VWidth: 2048
Flags: W
HStem: 446 70<108 171 258 320>
Fore
94 446 m 1
 109 516 l 1
 186 516 l 1
 171 446 l 1
 94 446 l 1
244 446 m 1
 259 516 l 1
 335 516 l 1
 320 446 l 1
 244 446 l 1
EndSplineSet
EndChar
StartChar: copyright
Encoding: 106 169 231
OldEncoding: 169
Width: 440
VWidth: 2048
Flags: W
HStem: 1 39<205 228> 97 35<226 245> 315 34<274 286> 410 36<282 309>
Fore
302 446 m 0
 362 446 408 424 438 381 c 1
 471 339 480 286 467 224 c 0
 454 163 423 111 371 67 c 0
 321 24 266 1 207 1 c 0
 147 1 102 23 70 66 c 0
 39 108 29 162 43 224 c 0
 56 286 87 339 136 382 c 0
 186 425 242 446 302 446 c 0
294 410 m 0
 244 410 198 392 157 356 c 0
 114 320 88 276 77 224 c 0
 66 172 73 128 101 93 c 0
 127 58 166 40 216 40 c 0
 266 40 310 58 352 93 c 0
 394 128 421 172 432 224 c 0
 442 275 435 319 407 355 c 0
 381 392 344 410 294 410 c 0
315 189 m 1
 348 177 l 1
 322 123 282 97 228 97 c 0
 193 97 167 108 152 132 c 0
 138 156 135 186 143 224 c 0
 150 261 167 292 192 314 c 0
 218 338 248 349 284 349 c 0
 333 349 362 327 364 279 c 1
 329 271 l 1
 324 301 305 315 276 315 c 0
 251 315 230 306 212 287 c 0
 197 270 187 249 181 223 c 0
 168 162 186 132 234 132 c 0
 270 132 298 150 315 189 c 1
EndSplineSet
EndChar
StartChar: ordfeminine
Encoding: 107 170 232
OldEncoding: 170
Width: 177
VWidth: 2048
Flags: W
HStem: 330 32<131 147> 495 30<185 196>
Fore
200 358 m 1
 177 340 154 330 131 330 c 0
 91 330 75 349 83 388 c 0
 89 412 105 429 129 438 c 1
 155 444 l 1
 192 449 l 1
 218 455 l 1
 223 481 213 495 187 495 c 0
 163 495 147 484 140 462 c 1
 108 471 l 1
 122 507 152 525 194 525 c 0
 244 525 263 504 254 462 c 2
 237 383 l 1
 233 360 232 344 237 334 c 1
 201 334 l 1
 200 342 198 350 200 358 c 1
211 424 m 1
 160 415 l 1
 136 409 123 400 120 388 c 0
 117 371 126 362 147 362 c 0
 181 362 202 382 211 424 c 1
EndSplineSet
EndChar
StartChar: guillemotleft
Encoding: 108 171 233
OldEncoding: 171
Width: 398
VWidth: 2048
Flags: W
Fore
137 206 m 1
 204 9 l 1
 143 9 l 1
 49 206 l 1
 226 401 l 1
 288 401 l 1
 137 206 l 1
303 206 m 1
 373 9 l 1
 307 9 l 1
 216 206 l 1
 390 401 l 1
 456 401 l 1
 303 206 l 1
EndSplineSet
EndChar
StartChar: logicalnot
Encoding: 109 172 234
OldEncoding: 172
Width: 294
VWidth: 2048
Flags: W
HStem: 332 33<79 298>
DStem: 298 332 354 365 280 250 329 250
Fore
329 250 m 1
 280 250 l 1
 298 332 l 1
 73 332 l 1
 80 365 l 1
 354 365 l 1
 329 250 l 1
EndSplineSet
EndChar
StartChar: uni00AD
Encoding: 110 173 235
OldEncoding: 173
Width: 149
VWidth: 2048
Flags: W
HStem: 180 38<51 172>
Fore
44 180 m 1
 52 218 l 1
 180 218 l 1
 172 180 l 1
 44 180 l 1
EndSplineSet
EndChar
StartChar: registered
Encoding: 111 174 236
OldEncoding: 174
Width: 565
VWidth: 2048
Flags: W
HStem: -12 31<249 290> 119 14<169 184.53 280 291 446 451> 255 17<286 303> 394 16<233 327 360 376> 397 13<233 253.023> 486 30<354 393>
DStem: 259 374 308 379 213 153 286 272 259 374 282 255 213 153 261 156 303 255 359 261 374 119 427 144
Fore
586 252 m 0
 578 216 564 183 544 151 c 0
 523 119 499 90 469 66 c 0
 442 43 410 24 372 8 c 0
 337 -6 301 -12 265 -12 c 0
 216 -12 175 0 139 24 c 0
 104 47 79 78 65 119 c 0
 50 162 47 206 57 252 c 0
 64 287 78 322 99 354 c 0
 123 390 148 418 175 440 c 0
 205 464 237 484 272 496 c 0
 306 510 342 516 378 516 c 0
 414 516 446 510 475 496 c 1
 508 480 532 461 549 440 c 0
 566 419 579 390 587 354 c 1
 593 322 593 288 586 252 c 0
556 252 m 0
 562 282 562 313 557 344 c 0
 551 370 539 394 522 417 c 0
 503 441 481 457 457 468 c 0
 431 480 401 486 371 486 c 0
 329 486 289 476 248 455 c 1
 208 433 173 405 145 368 c 0
 116 332 96 294 87 251 c 0
 78 209 81 171 96 137 c 0
 109 101 131 72 162 51 c 0
 192 29 229 19 272 19 c 0
 314 19 355 29 395 51 c 0
 435 71 470 101 500 137 c 1
 529 172 547 210 556 252 c 0
282 255 m 1
 261 156 l 2
 258 141 268 133 291 133 c 1
 288 119 l 1
 166 119 l 1
 169 133 l 1
 195 133 210 140 213 153 c 2
 259 374 l 2
 262 385 262 392 259 394 c 0
 254 397 244 397 230 397 c 1
 233 410 l 1
 360 410 l 2
 386 410 406 408 418 402 c 1
 437 394 447 383 452 373 c 0
 454 364 456 353 453 339 c 0
 448 316 436 297 417 284 c 1
 396 270 378 262 359 261 c 1
 427 144 l 2
 429 137 438 133 451 133 c 1
 448 119 l 1
 374 119 l 1
 303 255 l 1
 282 255 l 1
308 379 m 1
 286 272 l 1
 311 272 329 275 341 278 c 1
 377 290 396 312 403 342 c 0
 406 358 403 371 393 379 c 1
 385 388 376 392 368 392 c 2
 327 394 l 2
 318 394 311 389 308 379 c 1
EndSplineSet
MinimumDistance: x33,30 
EndChar
StartChar: macron
Encoding: 112 175 237
OldEncoding: 175
Width: 145
VWidth: 2048
Flags: W
HStem: 494 25<107 245>
Fore
103 494 m 1
 108 519 l 1
 250 519 l 1
 245 494 l 1
 103 494 l 1
EndSplineSet
EndChar
StartChar: degree
Encoding: 113 176 238
OldEncoding: 176
Width: 154
VWidth: 2048
Flags: W
HStem: 398 27<155 164> 514 27<177 189>
Fore
101 470 m 0
 105 489 116 506 132 521 c 0
 150 536 168 541 187 541 c 0
 209 541 225 536 235 521 c 0
 247 506 249 489 245 470 c 0
 240 449 231 432 213 418 c 0
 196 403 178 398 157 398 c 0
 138 398 122 403 110 418 c 0
 100 432 96 449 101 470 c 0
129 470 m 0
 126 458 129 447 136 438 c 0
 142 429 151 425 162 425 c 0
 175 425 186 429 197 438 c 0
 208 447 215 458 218 470 c 0
 220 481 218 493 210 501 c 0
 203 510 194 514 181 514 c 0
 170 514 159 510 150 502 c 0
 139 493 131 481 129 470 c 0
EndSplineSet
EndChar
StartChar: plusminus
Encoding: 114 177 239
OldEncoding: 177
Width: 368
VWidth: 2048
Flags: W
HStem: 5 65<2 360> 263 66<57 197 276 415>
DStem: 197 263 262 263 164 106 229 106 244 483 309 483 211 329 276 329
Fore
164 106 m 1
 197 263 l 1
 44 263 l 1
 58 329 l 1
 211 329 l 1
 244 483 l 1
 309 483 l 1
 276 329 l 1
 429 329 l 1
 415 263 l 1
 262 263 l 1
 229 106 l 1
 164 106 l 1
360 5 m 1
 -11 5 l 1
 3 70 l 1
 374 70 l 1
 360 5 l 1
EndSplineSet
EndChar
StartChar: twosuperior
Encoding: 115 178 240
OldEncoding: 178
Width: 124
VWidth: 2048
Flags: W
HStem: 345 25<125 185> 476 23<159 170>
Fore
80 345 m 1
 85 362 104 382 136 407 c 2
 161 426 l 1
 172 436 179 445 180 452 c 0
 183 468 178 476 163 476 c 0
 148 476 137 468 131 452 c 1
 107 455 l 1
 119 485 140 499 168 499 c 0
 200 499 213 486 207 458 c 0
 204 444 196 431 183 418 c 0
 178 412 166 403 149 390 c 0
 139 382 131 375 125 370 c 1
 191 370 l 1
 185 345 l 1
 80 345 l 1
EndSplineSet
EndChar
StartChar: threesuperior
Encoding: 116 179 241
OldEncoding: 179
Width: 120
VWidth: 2048
Flags: W
HStem: 351 23<127 144> 421 21<144 151> 479 22<156 167>
Fore
86 393 m 1
 112 396 l 1
 114 381 121 374 135 374 c 0
 154 374 166 383 170 400 c 0
 173 415 164 421 145 421 c 1
 139 420 l 1
 135 420 l 1
 144 442 l 1
 163 442 173 449 176 461 c 0
 179 473 172 479 158 479 c 0
 146 479 135 472 129 460 c 1
 104 464 l 1
 116 488 135 501 162 501 c 0
 195 501 210 488 205 464 c 0
 202 450 191 440 173 434 c 1
 193 427 201 415 197 396 c 0
 194 381 185 371 171 363 c 0
 159 355 146 351 133 351 c 0
 100 351 85 365 86 393 c 1
EndSplineSet
EndChar
StartChar: acute
Encoding: 117 180 242
OldEncoding: 180
Width: 118
VWidth: 2048
Flags: W
Fore
103 452 m 1
 156 518 l 1
 226 518 l 1
 147 452 l 1
 103 452 l 1
EndSplineSet
EndChar
StartChar: mu
Encoding: 118 181 243
OldEncoding: 181
Width: 315
VWidth: 2048
Flags: W
HStem: 14 58<148 167>
DStem: 88 409 150 409 -26 -125 115 245 88 409 76 62 -26 -125 36 -125 323 409 384 409 288 244 302 24
Fore
384 409 m 1
 302 24 l 1
 246 24 l 1
 256 69 l 1
 228 32 194 14 153 14 c 0
 118 14 92 29 76 62 c 1
 36 -125 l 1
 -26 -125 l 1
 88 409 l 1
 150 409 l 1
 115 245 l 2
 104 191 100 155 100 133 c 0
 104 94 123 72 162 72 c 0
 203 72 232 93 254 132 c 0
 266 154 277 191 288 244 c 2
 323 409 l 1
 384 409 l 1
EndSplineSet
EndChar
StartChar: paragraph
Encoding: 119 182 244
OldEncoding: 182
Width: 400
VWidth: 2048
Flags: W
HStem: 486 54<274 378 274 491>
DStem: 194 280 296 486 116 -84 175 -84 378 486 439 486 257 -84 318 -84
Fore
116 -84 m 1
 194 280 l 1
 153 280 120 292 96 315 c 0
 74 340 68 371 76 407 c 0
 85 451 108 485 145 508 c 1
 180 529 223 540 274 540 c 2
 503 540 l 1
 491 486 l 1
 439 486 l 1
 318 -84 l 1
 257 -84 l 1
 378 486 l 1
 296 486 l 1
 175 -84 l 1
 116 -84 l 1
EndSplineSet
EndChar
StartChar: periodcentered
Encoding: 120 183 245
OldEncoding: 183
Width: 70
VWidth: 2048
Flags: W
DStem: 74 313 128 313 62 257 116 257
Fore
62 257 m 1
 74 313 l 1
 128 313 l 1
 116 257 l 1
 62 257 l 1
EndSplineSet
EndChar
StartChar: cedilla
Encoding: 121 184 246
OldEncoding: 184
Width: 154
VWidth: 2048
Flags: W
Fore
37 5 m 1
 65 53 l 1
 112 53 l 1
 94 24 l 1
 131 20 147 7 142 -17 c 0
 139 -35 124 -49 100 -58 c 0
 80 -66 58 -70 35 -70 c 0
 17 -70 0 -69 -14 -66 c 1
 -2 -34 l 1
 28 -35 l 2
 63 -36 84 -28 87 -14 c 0
 90 -1 73 5 37 5 c 1
EndSplineSet
EndChar
StartChar: onesuperior
Encoding: 122 185 247
OldEncoding: 185
Width: 108
VWidth: 2048
Flags: W
DStem: 155 445 193 486 130 331 160 331
Fore
130 331 m 1
 155 445 l 1
 137 434 120 426 102 423 c 1
 107 447 l 1
 130 454 150 468 170 486 c 1
 193 486 l 1
 160 331 l 1
 130 331 l 1
EndSplineSet
EndChar
StartChar: ordmasculine
Encoding: 123 186 248
OldEncoding: 186
Width: 157
VWidth: 2048
Flags: W
HStem: 340 31<143 154> 479 31<167 185>
Fore
181 510 m 0
 204 510 222 502 231 485 c 0
 240 470 242 450 236 425 c 0
 231 401 221 381 206 366 c 0
 189 349 168 340 145 340 c 0
 123 340 107 349 97 366 c 0
 88 381 86 400 91 424 c 0
 96 449 107 469 122 484 c 0
 139 502 158 510 181 510 c 0
175 479 m 0
 149 479 132 462 124 425 c 0
 117 389 126 371 152 371 c 0
 178 371 196 389 204 426 c 0
 211 462 201 479 175 479 c 0
EndSplineSet
EndChar
StartChar: guillemotright
Encoding: 124 187 249
OldEncoding: 187
Width: 398
VWidth: 2048
Flags: W
Fore
326 206 m 1
 175 10 l 1
 237 10 l 1
 415 206 l 1
 320 401 l 1
 257 401 l 1
 326 206 l 1
162 206 m 1
 7 10 l 1
 72 10 l 1
 247 206 l 1
 155 401 l 1
 90 401 l 1
 162 206 l 1
EndSplineSet
EndChar
StartChar: onequarter
Encoding: 125 188 250
OldEncoding: 188
Width: 635
VWidth: 2048
Flags: W
HStem: -17 21G<50 111> -9 87<431 554> 43 35<431 510 573 605>
DStem: 175 424 245 488 136 242 192 242 536 164 606 237 518 78 573 78 560 237 536 164 373 84 431 78 575 489 636 489 50 -17 111 -17
Fore
50 -17 m 1
 575 489 l 1
 636 489 l 1
 111 -17 l 1
 50 -17 l 1
136 242 m 1
 175 424 l 1
 146 406 116 394 82 386 c 1
 91 427 l 1
 131 438 169 459 203 488 c 1
 245 488 l 1
 192 242 l 1
 136 242 l 1
499 -9 m 1
 510 43 l 1
 364 43 l 1
 373 84 l 1
 560 237 l 1
 606 237 l 1
 573 78 l 1
 613 78 l 1
 605 43 l 1
 565 43 l 1
 554 -9 l 1
 499 -9 l 1
518 78 m 1
 536 164 l 1
 431 78 l 1
 518 78 l 1
EndSplineSet
EndChar
StartChar: onehalf
Encoding: 126 189 251
OldEncoding: 189
Width: 635
VWidth: 2048
Flags: W
HStem: -19 40<471 582> -17 21G<51 112> 189 38<530 545>
DStem: 176 424 245 488 137 242 192 242 576 490 637 490 51 -17 112 -17
Fore
51 -17 m 1
 576 490 l 1
 637 490 l 1
 112 -17 l 1
 51 -17 l 1
137 242 m 1
 176 424 l 1
 147 406 117 394 83 386 c 1
 92 427 l 1
 133 438 170 459 205 488 c 1
 245 488 l 1
 192 242 l 1
 137 242 l 1
390 -19 m 1
 395 7 429 41 489 81 c 0
 539 114 566 138 570 153 c 0
 574 176 562 189 534 189 c 0
 511 189 492 176 480 153 c 1
 434 156 l 1
 455 203 492 227 543 227 c 0
 603 227 629 205 619 160 c 0
 615 139 600 118 577 96 c 1
 515 52 l 1
 471 21 l 1
 590 21 l 1
 582 -19 l 1
 390 -19 l 1
EndSplineSet
EndChar
StartChar: threequarters
Encoding: 127 190 252
OldEncoding: 190
Width: 635
VWidth: 2048
Flags: W
HStem: -17 21G<51 112> -9 86<431 555> 42 35<431 511 573 606> 235 40<137 158> 356 35<156 164> 454 39<175 193>
DStem: 537 163 607 237 518 77 573 77 561 237 537 163 374 84 431 77 576 489 637 489 51 -17 112 -17
Fore
48 306 m 1
 100 311 l 1
 102 287 116 275 144 275 c 0
 179 275 201 289 208 319 c 0
 213 344 197 356 162 356 c 1
 148 354 l 1
 142 354 l 1
 156 391 l 1
 193 391 213 402 218 425 c 0
 222 444 211 454 183 454 c 0
 159 454 140 444 126 421 c 1
 80 429 l 1
 103 471 141 493 191 493 c 0
 254 493 281 471 272 429 c 0
 267 403 247 386 214 376 c 1
 251 366 266 345 259 311 c 0
 254 287 239 268 213 254 c 0
 190 241 166 235 139 235 c 0
 78 235 48 259 48 306 c 1
51 -17 m 1
 576 489 l 1
 637 489 l 1
 112 -17 l 1
 51 -17 l 1
500 -9 m 1
 511 42 l 1
 365 42 l 1
 374 84 l 1
 561 237 l 1
 607 237 l 1
 573 77 l 1
 613 77 l 1
 606 42 l 1
 566 42 l 1
 555 -9 l 1
 500 -9 l 1
518 77 m 1
 537 163 l 1
 431 77 l 1
 518 77 l 1
EndSplineSet
EndChar
StartChar: questiondown
Encoding: 128 191 253
OldEncoding: 191
Width: 320
VWidth: 2048
Flags: W
HStem: -134 52<118 136>
DStem: 199 382 266 382 184 311 251 311
Fore
266 382 m 1
 251 311 l 1
 184 311 l 1
 199 382 l 1
 266 382 l 1
236 258 m 1
 232 240 l 2
 225 206 211 176 196 155 c 0
 183 138 159 118 126 92 c 0
 85 62 63 34 58 9 c 0
 52 -17 58 -38 72 -56 c 0
 87 -73 107 -82 132 -82 c 0
 186 -82 225 -49 250 19 c 1
 310 12 l 1
 277 -86 214 -134 122 -134 c 0
 80 -134 46 -122 23 -98 c 0
 -5 -73 -14 -38 -5 5 c 0
 4 45 38 88 97 134 c 0
 125 156 143 174 153 186 c 0
 163 202 171 226 178 258 c 1
 236 258 l 1
EndSplineSet
EndChar
StartChar: caron
Encoding: 129 711 254
OldEncoding: 711
Width: 720
VWidth: 2048
Flags: W
DStem: 320 706 360 749 462 577 476 643 636 748 657 706 476 643 462 577
Fore
462 577 m 1
 320 706 l 1
 308 721 l 1
 308 731 l 1
 310 740 315 747 322 751 c 1
 327 756 334 758 341 758 c 0
 346 758 352 755 360 749 c 2
 476 643 l 1
 636 748 l 1
 646 755 654 758 659 758 c 0
 667 758 674 756 678 751 c 0
 681 746 682 740 680 731 c 0
 679 724 671 715 657 706 c 1
 462 577 l 1
EndSplineSet
EndChar
StartChar: ring
Encoding: 130 730 255
OldEncoding: 730
Width: 720
VWidth: 2048
Flags: W
HStem: 575 37<459 471> 760 38<495 513>
Fore
598 686 m 0
 592 658 575 631 547 609 c 0
 522 586 493 575 461 575 c 0
 429 575 405 586 388 609 c 0
 370 632 365 658 371 686 c 0
 377 716 394 742 422 766 c 0
 447 786 476 798 509 798 c 0
 541 798 565 786 581 766 c 0
 599 744 604 716 598 686 c 0
561 686 m 0
 565 706 561 724 549 739 c 0
 536 754 520 760 501 760 c 0
 481 760 461 754 442 739 c 0
 424 724 412 707 408 686 c 0
 404 667 408 650 420 635 c 0
 433 619 449 612 469 612 c 0
 489 612 509 619 527 635 c 1
 545 649 557 666 561 686 c 0
EndSplineSet
EndChar
StartChar: uni0E01
Encoding: 131 3585 131
OldEncoding: 3585
Width: 410
Flags: W
HStem: 0 21G<63 111 304 351> 350 41<270 288>
DStem: 104 191 152 193 63 0 111 0 361 267 408 267 304 0 351 0
Fore
88 302 m 1
 101 316 125 336 160 358 c 0
 194 380 234 391 281 391 c 0
 309 391 334 386 356 377 c 0
 377 368 393 355 402 336 c 0
 412 316 413 293 408 267 c 2
 351 0 l 1
 304 0 l 1
 361 267 l 2
 364 284 362 298 355 311 c 0
 349 323 339 333 324 340 c 0
 310 347 292 350 273 350 c 0
 232 350 195 338 161 313 c 1
 167 312 177 307 192 301 c 0
 206 294 218 284 230 271 c 1
 219 269 205 262 187 251 c 0
 170 240 158 220 152 193 c 2
 111 0 l 1
 63 0 l 1
 104 191 l 2
 108 214 117 231 128 243 c 0
 139 254 152 263 165 269 c 1
 161 273 153 279 140 287 c 0
 127 295 109 301 88 302 c 1
EndSplineSet
EndChar
StartChar: uni0E02
Encoding: 132 3586 132
OldEncoding: 3586
Width: 416
Flags: W
HStem: 0 41<128 295> 226 36<135 153> 355 36<220 232> 364 20G<393 440>
DStem: 204 176 251 170 176 41 224 41 393 384 440 384 327 73 374 73
Fore
220 391 m 0
 243 391 263 386 278 377 c 0
 293 367 303 355 310 340 c 0
 316 325 318 310 314 293 c 0
 311 278 308 267 302 259 c 0
 297 251 292 243 284 233 c 0
 274 223 269 215 263 207 c 0
 258 199 255 186 251 170 c 2
 224 41 l 1
 285 41 l 2
 299 41 310 43 315 47 c 0
 319 51 324 60 327 73 c 2
 393 384 l 1
 440 384 l 1
 374 73 l 2
 367 43 358 23 345 14 c 0
 332 5 308 0 276 0 c 2
 120 0 l 1
 129 41 l 1
 176 41 l 1
 204 176 l 2
 207 190 211 201 216 209 c 0
 220 216 227 224 235 234 c 0
 244 243 251 251 256 259 c 0
 262 267 266 277 269 289 c 0
 273 308 271 324 262 337 c 0
 251 349 237 355 220 355 c 0
 216 355 211 354 203 353 c 1
 209 351 216 346 225 337 c 0
 233 328 234 312 228 289 c 0
 224 269 212 253 197 243 c 0
 179 232 159 226 135 226 c 1
 94 232 79 260 90 311 c 1
 98 334 116 355 143 370 c 0
 170 384 195 391 220 391 c 0
168 332 m 0
 157 332 147 329 139 322 c 0
 133 315 127 307 125 297 c 0
 123 288 126 280 129 273 c 0
 134 266 142 262 153 262 c 0
 164 262 175 266 181 273 c 0
 189 280 193 288 195 297 c 0
 197 307 196 315 191 322 c 0
 188 329 179 332 168 332 c 0
EndSplineSet
EndChar
StartChar: uni0E03
Encoding: 133 3587 133
OldEncoding: 3587
Width: 442
Flags: W
HStem: 0 41<154 322> 172 35<122 137> 277 33<144 154> 364 20G<419 466>
DStem: 246 247 293 245 202 41 250 41 419 384 466 384 353 73 400 73
Fore
344 319 m 0
 342 311 340 304 335 299 c 0
 331 295 326 290 320 285 c 0
 313 280 307 275 302 269 c 0
 298 263 295 255 293 245 c 2
 250 41 l 1
 311 41 l 2
 325 41 336 43 340 47 c 1
 345 51 350 60 353 73 c 2
 419 384 l 1
 466 384 l 1
 400 73 l 2
 393 43 384 23 371 14 c 0
 359 5 336 0 302 0 c 2
 146 0 l 1
 155 41 l 1
 202 41 l 1
 246 247 l 2
 248 261 252 271 257 279 c 0
 262 286 268 292 273 296 c 0
 278 299 285 304 294 310 c 0
 300 313 302 316 303 322 c 0
 305 328 303 336 297 344 c 0
 290 350 284 355 278 356 c 1
 225 324 l 1
 178 356 l 1
 161 353 146 344 136 331 c 0
 124 319 117 307 115 297 c 1
 117 299 122 302 128 305 c 0
 134 308 143 310 154 310 c 0
 172 308 188 303 200 293 c 0
 211 281 214 264 209 241 c 0
 205 219 193 202 176 190 c 0
 159 177 141 172 124 172 c 0
 101 172 82 181 71 198 c 0
 60 216 58 238 64 267 c 0
 67 284 73 301 82 315 c 1
 92 338 110 356 133 371 c 0
 155 384 175 391 189 391 c 1
 233 360 l 1
 283 391 l 1
 301 385 316 376 329 364 c 0
 343 351 347 336 344 319 c 0
146 277 m 0
 136 277 126 273 119 267 c 0
 110 260 106 252 103 242 c 0
 102 233 103 225 108 218 c 0
 113 210 121 207 131 207 c 0
 142 207 152 210 159 217 c 0
 167 225 172 233 173 242 c 0
 176 252 174 260 170 267 c 0
 165 273 157 277 146 277 c 0
EndSplineSet
EndChar
StartChar: uni0E04
Encoding: 134 3588 134
OldEncoding: 3588
Width: 414
Flags: W
HStem: 0 21G<97 144 308 356> 160 34<218 229> 264 35<238 252> 356 38<256 280>
DStem: 112 69 181 174 97 0 144 0 363 257 411 261 308 0 356 0
Fore
129 254 m 0
 126 241 127 225 131 208 c 0
 136 191 137 177 137 167 c 1
 145 203 l 2
 151 232 162 254 181 272 c 0
 200 290 223 299 250 299 c 0
 272 299 287 293 296 279 c 0
 307 266 308 249 304 229 c 0
 300 210 291 194 275 181 c 0
 260 167 242 160 220 160 c 0
 201 160 188 165 181 174 c 1
 144 0 l 1
 97 0 l 1
 112 69 l 2
 115 86 116 101 113 114 c 0
 111 127 105 142 96 162 c 0
 88 181 84 197 81 210 c 0
 78 223 79 238 83 257 c 0
 89 286 102 311 122 331 c 0
 143 353 166 368 195 379 c 0
 222 389 250 394 278 394 c 0
 322 394 357 382 383 359 c 0
 411 336 421 304 411 261 c 2
 356 0 l 1
 308 0 l 1
 363 257 l 2
 369 288 364 313 343 330 c 0
 324 347 299 356 267 356 c 0
 234 356 205 347 178 330 c 0
 153 313 136 287 129 254 c 0
242 264 m 0
 231 264 221 261 214 254 c 0
 208 247 202 240 200 229 c 0
 198 220 200 212 204 206 c 0
 208 198 216 194 227 194 c 0
 239 194 249 198 256 206 c 0
 263 212 268 220 270 229 c 0
 272 240 271 247 266 254 c 0
 262 261 254 264 242 264 c 0
EndSplineSet
EndChar
StartChar: uni0E05
Encoding: 135 3589 135
OldEncoding: 3589
Width: 414
Flags: W
HStem: 0 21G<97 144 308 356> 160 34<218 229> 264 35<238 252>
DStem: 112 69 181 174 97 0 144 0 350 391 339 351 276 347 268 311 363 257 411 261 308 0 356 0
Fore
83 257 m 0
 88 282 103 308 131 333 c 0
 157 358 186 377 220 391 c 1
 276 347 l 1
 350 391 l 1
 404 363 424 319 411 261 c 2
 356 0 l 1
 308 0 l 1
 363 257 l 2
 366 273 368 288 369 299 c 0
 368 311 366 320 363 325 c 0
 360 331 356 336 351 340 c 0
 346 345 342 348 339 351 c 1
 268 311 l 1
 268 312 261 316 250 327 c 0
 237 337 224 345 216 351 c 1
 190 340 172 327 158 311 c 0
 143 294 135 276 129 254 c 0
 126 241 127 225 131 208 c 0
 136 191 137 177 137 167 c 1
 145 203 l 2
 151 232 162 254 181 272 c 0
 200 290 223 299 250 299 c 0
 272 299 287 293 296 279 c 0
 307 266 308 249 304 229 c 0
 300 210 291 194 275 181 c 0
 260 167 242 160 220 160 c 0
 201 160 188 165 181 174 c 1
 144 0 l 1
 97 0 l 1
 112 69 l 2
 115 86 116 101 113 114 c 0
 111 127 105 142 96 162 c 0
 88 181 84 197 81 210 c 0
 78 223 79 238 83 257 c 0
242 264 m 0
 231 264 221 261 214 254 c 0
 208 247 202 240 200 229 c 0
 198 220 200 212 204 206 c 0
 208 198 216 194 227 194 c 0
 239 194 249 198 256 206 c 0
 263 212 268 220 270 229 c 0
 272 240 271 247 266 254 c 0
 262 261 254 264 242 264 c 0
EndSplineSet
EndChar
StartChar: uni0E06
Encoding: 136 3590 136
OldEncoding: 3590
Width: 518
Flags: W
HStem: -7 40<185 200> 0 21G<412 460> 172 35<131 147> 277 33<154 163> 364 20G<494 542>
DStem: 230 132 278 130 213 52 263 59 255 247 302 245 237 167 285 167 494 384 542 384 429 80 460 0
Fore
237 167 m 1
 255 247 l 2
 257 260 263 271 267 279 c 0
 272 287 277 293 283 297 c 0
 289 301 296 305 304 310 c 0
 310 313 312 316 313 322 c 0
 315 329 313 336 307 344 c 0
 300 350 293 355 288 356 c 1
 234 324 l 1
 187 356 l 1
 171 353 158 344 145 331 c 0
 134 319 126 307 124 297 c 1
 127 299 131 302 137 305 c 0
 143 308 153 310 163 310 c 0
 181 308 197 303 209 292 c 0
 220 281 223 264 218 241 c 0
 214 219 202 202 185 190 c 0
 168 177 151 172 134 172 c 0
 110 172 92 181 82 198 c 0
 71 216 68 238 74 267 c 0
 77 282 82 298 91 315 c 0
 103 338 120 356 142 371 c 0
 164 384 184 391 198 391 c 1
 242 360 l 1
 293 391 l 1
 310 385 325 376 338 364 c 0
 352 351 356 336 353 319 c 0
 351 311 349 304 344 299 c 0
 340 295 335 290 329 285 c 0
 321 279 316 275 311 269 c 0
 307 263 304 255 302 245 c 2
 285 167 l 1
 310 165 332 159 353 149 c 0
 372 140 389 129 402 116 c 0
 415 103 424 90 429 80 c 1
 494 384 l 1
 542 384 l 1
 460 0 l 1
 412 0 l 1
 415 15 413 32 402 51 c 0
 391 70 375 88 352 103 c 0
 330 118 305 127 278 130 c 1
 263 59 l 2
 258 38 249 23 236 11 c 0
 223 -1 206 -7 185 -7 c 0
 163 -7 146 1 137 18 c 0
 128 34 125 53 130 76 c 0
 135 99 148 121 168 139 c 0
 186 156 209 166 237 167 c 1
174 43 m 0
 179 36 184 33 192 33 c 0
 204 33 211 40 213 52 c 2
 230 132 l 1
 214 132 201 127 191 116 c 0
 180 105 174 93 171 78 c 0
 167 63 168 51 174 43 c 0
156 277 m 0
 145 277 135 273 128 267 c 0
 121 261 116 252 113 242 c 0
 112 233 114 225 117 217 c 0
 122 210 130 207 141 207 c 0
 152 207 163 210 169 217 c 0
 177 224 181 232 183 242 c 0
 186 252 184 261 180 267 c 0
 176 273 167 277 156 277 c 0
EndSplineSet
EndChar
StartChar: uni0E07
Encoding: 137 3591 137
OldEncoding: 3591
Width: 325
Flags: W
HStem: -8 43<202 213> 250 35<248 260> 354 35<270 280>
DStem: 68 241 109 261 150 26 192 47 273 254 335 319 230 53 278 50
Fore
230 53 m 2
 273 254 l 1
 267 251 260 250 250 250 c 0
 228 250 213 257 204 271 c 0
 194 285 192 301 196 320 c 0
 200 339 209 356 225 370 c 0
 239 382 258 389 280 389 c 0
 294 389 306 385 315 380 c 0
 323 374 331 365 334 355 c 0
 337 345 338 332 335 319 c 2
 278 50 l 2
 274 32 265 17 251 7 c 0
 237 -3 222 -8 205 -8 c 0
 192 -8 182 -6 172 0 c 0
 163 6 153 14 150 26 c 2
 68 241 l 1
 109 261 l 1
 192 47 l 2
 195 40 200 35 209 35 c 0
 215 35 219 36 224 40 c 0
 227 43 229 47 230 53 c 2
272 354 m 0
 261 354 251 350 245 344 c 0
 236 336 232 328 230 320 c 0
 228 311 229 303 234 296 c 0
 238 288 247 285 258 285 c 0
 269 285 278 288 287 296 c 0
 293 303 299 311 301 320 c 0
 303 328 300 336 296 344 c 0
 290 350 282 354 272 354 c 0
EndSplineSet
EndChar
StartChar: uni0E08
Encoding: 138 3592 138
OldEncoding: 3592
Width: 386
Flags: W
HStem: 0 21G<280 328> 140 34<191 200> 243 37<213 225> 355 36<237 268>
DStem: 336 264 384 264 313 156 328 0
Fore
223 280 m 0
 245 280 263 273 276 257 c 0
 289 240 297 220 303 197 c 0
 308 174 313 160 313 156 c 1
 336 264 l 2
 342 293 337 315 321 330 c 0
 305 346 281 355 250 355 c 0
 200 356 155 334 116 293 c 1
 91 316 l 1
 106 336 129 353 159 368 c 0
 189 383 223 391 259 391 c 0
 288 391 313 386 334 376 c 0
 355 366 370 353 378 333 c 0
 388 314 390 292 384 264 c 2
 328 0 l 1
 280 0 l 1
 284 21 288 45 287 70 c 0
 287 94 284 116 280 137 c 0
 275 157 270 172 264 182 c 1
 260 175 252 167 241 157 c 0
 229 147 213 141 193 140 c 0
 174 140 158 147 148 160 c 0
 138 174 135 191 139 212 c 0
 144 233 154 249 168 261 c 0
 183 273 201 280 223 280 c 0
215 243 m 0
 203 243 193 240 187 233 c 0
 179 226 174 218 172 209 c 0
 171 200 172 192 177 185 c 0
 182 177 190 174 200 174 c 0
 210 174 220 177 227 184 c 0
 234 191 239 199 241 209 c 0
 243 218 242 226 239 233 c 0
 234 240 226 243 215 243 c 0
EndSplineSet
EndChar
StartChar: uni0E09
Encoding: 139 3593 139
OldEncoding: 3593
Width: 442
Flags: W
HStem: -7 38<357 374> 0 21G<115 163> 130 34<120 133> 234 35<141 153> 354 37<285 305>
DStem: 143 134 205 198 115 0 180 82 340 128 387 128 321 38 369 41 369 264 416 264 348 165 395 165
Fore
205 198 m 2
 180 82 l 1
 203 106 228 124 261 139 c 0
 291 153 319 162 348 165 c 1
 369 264 l 2
 375 293 371 315 356 330 c 0
 342 346 318 354 287 354 c 0
 261 354 237 347 212 334 c 0
 189 322 170 306 155 289 c 1
 130 313 l 1
 149 334 172 354 201 368 c 0
 230 383 263 391 295 391 c 4
 340 391 374 380 396 357 c 0
 418 336 425 304 416 264 c 2
 395 165 l 1
 418 160 435 150 445 136 c 0
 454 120 455 99 450 76 c 0
 445 52 434 32 416 17 c 0
 398 1 379 -7 357 -7 c 0
 344 -7 333 -2 326 6 c 0
 321 14 318 25 321 38 c 2
 340 128 l 1
 311 122 284 113 257 99 c 0
 230 85 209 69 193 51 c 0
 177 33 166 16 163 0 c 1
 115 0 l 1
 143 134 l 1
 139 131 132 130 122 130 c 0
 100 130 84 137 75 151 c 0
 66 165 62 181 67 200 c 0
 71 219 79 235 95 249 c 0
 110 262 128 269 151 269 c 0
 172 269 187 262 197 249 c 0
 206 235 209 218 205 198 c 2
144 234 m 0
 132 234 122 231 116 224 c 0
 108 217 103 209 101 199 c 0
 99 189 100 181 105 174 c 0
 108 167 117 164 129 164 c 0
 140 164 149 167 157 174 c 0
 164 182 169 190 171 199 c 0
 173 209 171 217 168 224 c 0
 163 231 155 234 144 234 c 0
414 76 m 0
 417 89 416 102 413 112 c 0
 408 121 400 127 387 128 c 1
 369 41 l 2
 367 34 370 31 374 31 c 0
 382 31 390 35 398 44 c 0
 405 53 411 63 414 76 c 0
EndSplineSet
EndChar
StartChar: uni0E0A
Encoding: 140 3594 140
OldEncoding: 3594
Width: 416
Flags: W
HStem: 0 41<128 300> 226 36<135 153> 289 34<314 323.623> 355 36<220 232>
DStem: 204 176 251 170 176 41 224 41 358 221 407 231 327 73 374 73
Fore
369 308 m 1
 372 308 379 307 387 304 c 0
 394 301 400 294 406 281 c 0
 411 269 412 252 407 231 c 2
 374 73 l 2
 367 43 358 23 345 14 c 0
 332 5 308 0 276 0 c 2
 120 0 l 1
 129 41 l 1
 176 41 l 1
 204 176 l 2
 207 190 211 201 216 209 c 0
 220 216 227 224 235 234 c 0
 244 243 251 251 256 259 c 0
 262 267 266 277 269 289 c 0
 273 308 271 324 262 337 c 0
 251 349 237 355 220 355 c 0
 216 355 211 354 203 353 c 1
 209 351 216 346 225 337 c 0
 233 328 234 312 228 289 c 0
 224 269 212 253 197 243 c 0
 179 232 159 226 135 226 c 1
 94 232 79 260 90 311 c 1
 98 334 116 355 143 370 c 0
 170 384 195 391 220 391 c 0
 238 391 254 388 267 382 c 0
 281 376 292 367 300 357 c 0
 308 347 312 336 314 323 c 1
 326 323 345 329 370 341 c 0
 397 353 426 376 455 412 c 1
 484 391 l 1
 467 365 446 345 424 332 c 0
 399 320 381 312 369 308 c 1
312 289 m 1
 310 277 307 266 301 258 c 0
 296 250 291 241 284 233 c 0
 276 224 269 215 263 206 c 0
 258 197 254 184 251 170 c 2
 224 41 l 1
 285 41 l 2
 299 41 310 43 315 47 c 0
 319 51 324 60 327 73 c 2
 358 221 l 2
 368 267 351 289 312 289 c 1
168 332 m 0
 157 332 147 329 139 322 c 0
 133 315 127 307 125 297 c 0
 123 288 126 280 129 273 c 0
 134 266 142 262 153 262 c 0
 164 262 175 266 181 273 c 0
 189 280 193 288 195 297 c 0
 197 307 196 315 191 322 c 0
 188 329 179 332 168 332 c 0
EndSplineSet
EndChar
StartChar: uni0E0B
Encoding: 141 3595 141
OldEncoding: 3595
Width: 442
Flags: W
HStem: 0 41<154 322> 172 35<122 137> 277 33<144 154>
DStem: 246 247 293 245 202 41 250 41 386 231 433 231 353 73 400 73
Fore
346 330 m 1
 359 333 379 341 407 356 c 0
 434 370 459 392 483 424 c 1
 513 401 l 1
 501 384 485 367 467 355 c 0
 448 341 434 333 421 328 c 0
 407 321 398 316 392 315 c 1
 403 314 413 307 426 297 c 0
 438 286 440 263 433 231 c 2
 400 73 l 2
 393 43 384 23 371 14 c 0
 359 5 336 0 302 0 c 2
 146 0 l 1
 155 41 l 1
 202 41 l 1
 246 247 l 2
 250 266 256 278 263 286 c 0
 270 294 281 302 294 310 c 0
 300 313 302 316 303 322 c 0
 305 328 303 336 297 344 c 0
 290 350 284 355 278 356 c 1
 225 324 l 1
 178 356 l 1
 161 353 146 344 136 331 c 0
 124 319 117 307 115 297 c 1
 117 299 122 302 128 305 c 0
 134 308 143 310 154 310 c 0
 172 308 188 303 200 293 c 0
 211 281 214 264 209 241 c 0
 205 219 193 202 176 190 c 0
 159 177 141 172 124 172 c 0
 101 172 82 181 71 198 c 0
 60 216 58 238 64 267 c 0
 67 284 73 301 82 315 c 1
 92 338 110 356 133 371 c 0
 155 384 175 391 189 391 c 1
 233 360 l 1
 283 391 l 1
 299 388 312 382 320 373 c 0
 329 364 336 355 340 345 c 0
 343 336 346 331 346 330 c 1
 346 330 l 1
334 297 m 1
 330 294 325 289 320 285 c 0
 312 280 306 276 302 270 c 0
 298 264 296 257 293 245 c 2
 250 41 l 1
 311 41 l 2
 325 41 336 43 340 47 c 1
 345 51 350 60 353 73 c 2
 386 231 l 2
 395 275 378 297 334 297 c 1
146 277 m 0
 136 277 126 273 119 267 c 0
 110 260 106 252 103 242 c 0
 102 233 103 225 108 218 c 0
 113 210 121 207 131 207 c 0
 142 207 152 210 159 217 c 0
 167 225 172 233 173 242 c 0
 176 252 174 260 170 267 c 0
 165 273 157 277 146 277 c 0
EndSplineSet
EndChar
StartChar: uni0E0C
Encoding: 142 3596 142
OldEncoding: 3596
Width: 536
Flags: W
HStem: -7 35<131 145> -7 43<276 281> 0 21G<431 478> 97 35<152 164> 356 35<267 282> 364 20G<513 560>
DStem: 106 200 154 202 76 63 138 128 301 108 347 103 288 45 334 43 338 282 385 282 308 141 355 140 513 384 560 384 446 69 478 0
Fore
154 202 m 2
 138 128 l 1
 142 131 150 132 162 132 c 0
 184 132 199 125 208 112 c 0
 216 98 218 82 214 63 c 0
 210 44 201 28 187 15 c 0
 172 0 155 -7 133 -7 c 0
 113 -7 97 0 87 12 c 0
 75 25 72 42 76 63 c 2
 106 200 l 2
 115 244 137 271 171 282 c 1
 166 287 156 294 143 302 c 0
 130 310 112 315 92 321 c 1
 104 333 125 348 155 365 c 0
 184 382 222 391 267 391 c 0
 361 391 400 355 385 282 c 2
 355 140 l 1
 371 137 389 129 407 116 c 0
 425 103 437 87 446 69 c 1
 513 384 l 1
 560 384 l 1
 478 0 l 1
 431 0 l 1
 428 11 425 23 421 35 c 0
 416 46 407 59 395 72 c 0
 383 85 367 95 347 103 c 1
 334 43 l 2
 327 10 310 -7 279 -7 c 0
 260 -7 246 1 238 16 c 0
 232 31 229 49 234 70 c 0
 238 89 248 106 261 120 c 0
 273 133 289 140 308 141 c 1
 338 282 l 2
 343 306 339 325 326 338 c 0
 312 350 293 356 267 356 c 0
 234 356 198 347 162 328 c 1
 168 325 179 320 194 312 c 0
 210 304 221 294 234 280 c 1
 228 280 221 279 212 276 c 0
 202 272 191 266 178 254 c 0
 166 242 159 225 154 202 c 2
288 45 m 1
 301 108 l 1
 283 105 272 92 266 66 c 0
 264 58 265 51 269 45 c 0
 271 40 275 36 278 36 c 0
 283 36 286 40 288 45 c 1
139 28 m 0
 151 28 161 32 167 38 c 0
 175 45 179 53 181 63 c 0
 183 72 182 80 177 87 c 0
 173 94 165 97 154 97 c 0
 144 97 134 94 126 87 c 0
 119 80 113 72 111 63 c 0
 109 53 112 45 115 38 c 0
 121 32 129 28 139 28 c 0
EndSplineSet
EndChar
StartChar: uni0E0D
Encoding: 143 3597 143
OldEncoding: 3597
Width: 536
Flags: W
HStem: -192 34<296 305> -134 21G<260.5 270> -73 36<277 287> -27 20G<123 144> 0 41<239 411> 97 35<152 164> 356 35<267 283> 364 20G<513 560>
DStem: 106 200 154 202 76 63 138 128 338 282 385 282 287 41 334 41 513 384 560 384 447 73 494 73
Fore
469 -40 m 1
 462 -73 449 -102 433 -124 c 0
 415 -148 394 -165 371 -175 c 0
 346 -186 324 -192 300 -192 c 0
 270 -192 245 -183 226 -167 c 0
 205 -150 198 -131 203 -106 c 0
 207 -88 217 -72 231 -58 c 0
 244 -44 263 -36 287 -37 c 0
 308 -37 322 -45 330 -58 c 0
 339 -70 341 -86 337 -104 c 0
 335 -115 330 -125 322 -136 c 0
 315 -146 306 -153 296 -158 c 1
 321 -158 345 -150 370 -136 c 0
 394 -121 412 -88 422 -40 c 1
 469 -40 l 1
76 63 m 2
 106 200 l 2
 115 244 137 271 171 282 c 1
 166 287 156 294 143 302 c 0
 130 310 112 315 92 321 c 1
 104 333 125 348 155 365 c 0
 184 382 222 391 267 391 c 0
 361 391 400 355 385 282 c 2
 334 41 l 1
 405 41 l 2
 419 41 429 43 434 47 c 1
 439 51 444 60 447 73 c 2
 513 384 l 1
 560 384 l 1
 494 73 l 2
 489 52 484 36 477 26 c 0
 470 16 461 9 448 6 c 0
 436 2 419 0 396 0 c 2
 231 0 l 1
 240 41 l 1
 287 41 l 1
 338 282 l 2
 343 306 339 325 326 338 c 0
 312 350 293 356 267 356 c 0
 234 356 198 347 162 328 c 1
 168 325 179 320 194 312 c 0
 210 304 221 294 234 280 c 1
 228 280 221 279 212 276 c 0
 202 272 191 266 178 254 c 0
 166 242 159 225 154 202 c 2
 138 128 l 1
 142 131 150 132 162 132 c 0
 184 132 199 125 208 112 c 0
 216 98 218 82 214 63 c 0
 210 44 201 28 187 15 c 0
 172 0 155 -7 133 -7 c 0
 113 -7 97 0 87 12 c 0
 75 25 72 42 76 63 c 2
265 -134 m 0
 275 -134 282 -131 288 -125 c 0
 295 -120 299 -112 301 -104 c 0
 303 -96 302 -89 298 -82 c 0
 294 -77 287 -73 277 -73 c 0
 266 -73 260 -77 253 -82 c 0
 245 -88 241 -96 239 -104 c 0
 237 -112 238 -120 243 -125 c 0
 248 -131 256 -134 265 -134 c 0
139 28 m 0
 151 28 161 32 167 38 c 0
 175 45 179 53 181 63 c 0
 183 72 182 80 177 87 c 0
 173 94 165 97 154 97 c 0
 144 97 134 94 126 87 c 0
 119 80 113 72 111 63 c 0
 109 53 112 45 115 38 c 0
 121 32 129 28 139 28 c 0
EndSplineSet
Substitution: 0 65534 'nds0' uni0E0D.descless
Substitution: 0 65534 'ndsc' uni0E0D.descless
EndChar
StartChar: uni0E0E
Encoding: 144 3598 144
OldEncoding: 3598
Width: 456
Flags: W
HStem: -195 44<100 117> -80 42<131 154> -7 35<85 100> 97 35<104 118> 350 41<308 335>
DStem: 152 191 199 193 138 128 171 61 408 267 455 267 323 -130 357 -193
AnchorPoint: "BelowBase" 350.388 -224 basechar 0
Fore
138 128 m 1
 152 191 l 2
 155 206 160 219 167 231 c 0
 172 241 180 250 187 255 c 0
 195 261 205 266 213 269 c 1
 208 273 199 279 186 287 c 0
 174 295 156 301 134 302 c 1
 147 316 172 336 207 358 c 0
 243 380 282 391 328 391 c 0
 372 391 408 381 431 359 c 0
 449 343.25 458 321.875 458 295.297 c 0
 458 286.438 457 277 455 267 c 2
 357 -193 l 1
 310 -193 l 1
 299 -172 285 -154 268 -139 c 0
 253 -124 239 -115 230 -110 c 1
 219 -131 202 -150 178 -168 c 0
 154.958 -184.59 131.917 -195.234 106.527 -195.234 c 0
 104.369 -195.234 102.193 -195.157 100 -195 c 0
 77 -195 59 -188 48 -173 c 0
 40 -163 36 -151.222 36 -137.37 c 0
 36 -130.444 37 -123 39 -115 c 0
 45 -90 58 -71 78 -58 c 0
 97 -45 121 -38 147 -38 c 0
 168 -38 191 -43 214 -51 c 1
 216 -47 219 -42 224 -32 c 0
 228 -24 231 -12 235 0 c 1
 276 -9 l 1
 273 -21 269 -34 262 -45 c 0
 258 -55 255 -63 252 -69 c 1
 268 -78 283 -88 298 -101 c 0
 312 -113 320 -122 323 -130 c 1
 408 267 l 2
 409.036 272.869 409.595 278.38 409.595 283.615 c 0
 409.595 293.547 407.584 302.488 403 311 c 0
 397 323 386 333 371 340 c 0
 358 347 340 350 320 350 c 0
 280 350 243 338 208 313 c 1
 214 312 224 307 239 301 c 0
 253 294 266 284 277 271 c 1
 266 269 253 262 235 251 c 0
 217 240 205 220 199 193 c 2
 171 61 l 2
 167 42 159 26 143 14 c 0
 128 0 109 -7 87 -7 c 0
 66 -7 51 0 41 14 c 0
 34.3667 23.5814 30.4495 35.3358 30.4495 48.4622 c 0
 30.4495 53.1456 30.9481 58.0037 32 63 c 0
 36 82 46 98 61 112 c 0
 77 125 95 132 116 132 c 0
 125 132 133 131 138 128 c 1
141 -146 m 0
 153 -140 164 -131 174 -119 c 0
 183 -106 189 -97 193 -90 c 1
 173 -84 155 -80 138 -80 c 0
 106 -80 87 -92 83 -115 c 0
 82 -118 81.5 -121 81.5 -123.875 c 0
 81.5 -126.75 82 -129.5 83 -132 c 0
 85 -145 97 -151 117 -151 c 0
 125 -151 132 -149 141 -146 c 0
94 28 m 0
 105 28 115 32 123 38 c 0
 131 45 135 53 137 63 c 0
 137.633 65.8496 137.966 68.599 137.966 71.2481 c 0
 137.966 76.9657 136.417 82.2164 133 87 c 0
 128 94 120 97 109 97 c 0
 99 97 89 94 81 87 c 0
 73 79 68 71 66 63 c 0
 65.5 60.75 65.25 58.5625 65.25 56.4531 c 0
 65.25 50.125 67.5 44.5 72 40 c 0
 76 32 84 28 94 28 c 0
EndSplineSet
EndChar
StartChar: uni0E0F
Encoding: 145 3599 145
OldEncoding: 3599
Width: 456
Flags: W
HStem: -195 37<82 97> -98 37<107 119> -7 35<85 96> 97 35<107 118> 350 41<308 335>
DStem: 152 191 199 193 138 128 171 61 271 -130 280 -82 310 -193 322 -137 280 -82 271 -130 219 -134 202 -195 408 267 455 267 322 -137 357 -193
AnchorPoint: "BelowBase" 351.388 -224 basechar 0
Fore
138 128 m 1
 152 191 l 2
 155 206 160 219 167 231 c 0
 172 241 180 250 187 255 c 0
 195 261 205 266 213 269 c 1
 208 273 199 279 186 287 c 0
 174 295 156 301 134 302 c 1
 147 316 172 336 207 358 c 0
 243 380 282 391 328 391 c 0
 372 391 408 381 431 359 c 0
 449 343.25 458 321.875 458 295.297 c 0
 458 286.438 457 277 455 267 c 2
 357 -193 l 1
 310 -193 l 1
 271 -130 l 1
 202 -195 l 1
 198 -185 194 -175 188 -165 c 0
 182 -155 177 -147 172 -141 c 1
 166 -150 155 -162 139 -175 c 0
 123 -189 104 -195 82 -195 c 0
 63 -195 48 -189 40 -175 c 0
 33.0791 -167.45 30.1168 -157.129 30.1168 -144.535 c 0
 30.1168 -137.112 31.1459 -128.9 33 -120 c 1
 40 -101 50 -86 64 -76 c 0
 79 -66 95 -61 115 -61 c 0
 136 -61 154 -68 171 -80 c 1
 174 -73 180 -62 188 -46 c 0
 195 -32 203 -16 207 0 c 1
 245 -9 l 1
 242 -21 234 -38 223 -60 c 0
 214 -81 204 -97 197 -106 c 1
 198 -106 207 -115 219 -134 c 1
 280 -82 l 1
 322 -137 l 1
 408 267 l 2
 409.036 272.869 409.595 278.38 409.595 283.615 c 0
 409.595 293.547 407.584 302.488 403 311 c 0
 397 323 386 333 371 340 c 0
 358 347 340 350 320 350 c 0
 280 350 243 338 208 313 c 1
 214 312 224 307 239 301 c 0
 253 294 266 284 277 271 c 1
 266 269 253 262 235 251 c 0
 217 240 205 220 199 193 c 2
 171 61 l 2
 167 42 159 26 143 14 c 0
 128 0 109 -7 87 -7 c 0
 66 -7 51 0 41 14 c 0
 34.3667 23.5814 30.4495 35.3358 30.4495 48.4622 c 0
 30.4495 53.1456 30.9481 58.0037 32 63 c 0
 36 82 46 98 61 112 c 0
 77 125 95 132 116 132 c 0
 126 132 133 131 138 128 c 1
111 -153 m 0
 120 -147 127 -139 135 -131 c 0
 142 -123 147 -116 149 -113 c 1
 137 -103 125 -98 110 -98 c 0
 93 -98 81 -105 74 -119 c 1
 72.6029 -124.821 71.9106 -129.992 71.9106 -134.512 c 0
 71.9106 -149.404 79.4242 -157.233 94 -158 c 0
 99 -158 106 -156 111 -153 c 0
94 28 m 0
 105 28 115 32 123 38 c 0
 131 45 135 53 137 63 c 0
 137.633 65.8496 137.966 68.599 137.966 71.2481 c 0
 137.966 76.9657 136.417 82.2164 133 87 c 0
 128 94 120 97 109 97 c 0
 99 97 89 94 81 87 c 0
 73 79 68 71 66 63 c 0
 65.5 60.75 65.25 58.5625 65.25 56.4531 c 0
 65.25 50.125 67.5 44.5 72 40 c 0
 76 32 84 28 94 28 c 0
EndSplineSet
EndChar
StartChar: uni0E10
Encoding: 146 3600 146
OldEncoding: 3600
Width: 364
Flags: W
HStem: -145 27<218 233> -132 30<43 55> -63 28<233 247> 0 21G<250 306> 97 34<160 175> 201 35<177 195> 319 41<377 391> 353 38<243 265>
DStem: 299 186 346 189 279 94 306 0
Fore
191 236 m 0
 206 236 219 232 231 224 c 0
 241 216 250 205 253 191 c 2
 279 94 l 1
 299 186 l 2
 305 215 304 234 296 244 c 0
 289 254 274 263 251 271 c 0
 225 279 200 285 172 289 c 0
 145 295 125 298 111 299 c 1
 131 325 155 347 181 365 c 0
 205 382 232 391 259 391 c 0
 274 391 288 390 297 388 c 0
 308 384 319 381 333 375 c 0
 347 370 357 366 364 364 c 0
 372 362 381 360 389 360 c 0
 402 360 416 364 430 370 c 1
 430 330 l 1
 409 322 392 319 378 319 c 0
 367 319 358 320 350 322 c 0
 344 324 333 329 317 334 c 0
 303 340 291 345 282 348 c 0
 273 351 263 353 252 353 c 0
 241 353 229 349 215 344 c 0
 202 337 194 331 193 328 c 1
 198 327 205 325 214 322 c 0
 224 319 237 315 252 311 c 0
 268 307 281 304 288 302 c 0
 322 293 344 280 349 264 c 0
 356 247 353 223 346 189 c 2
 306 0 l 1
 250 0 l 1
 251 24 248 47 243 73 c 0
 237 99 232 119 228 131 c 1
 223 121 213 113 200 106 c 0
 188 101 176 97 162 97 c 0
 141 97 125 104 115 118 c 0
 106 132 103 148 107 166 c 0
 111 185 121 202 136 216 c 0
 152 229 170 236 191 236 c 0
225 -167 m 2
 226 -166 228 -162 230 -156 c 0
 232 -150 233 -147 233 -144 c 1
 232 -144 231 -144 229 -144 c 0
 228 -144 224 -144 221 -145 c 0
 204 -145 191 -139 184 -129 c 0
 176 -119 174 -106 177 -92 c 0
 181 -77 188 -64 201 -52 c 0
 214 -41 228 -35 245 -35 c 0
 262 -35 272 -40 281 -50 c 0
 289 -60 290 -73 286 -92 c 2
 272 -158 l 2
 271 -166 268 -173 265 -177 c 0
 260 -182 257 -185 250 -189 c 0
 244 -192 237 -197 230 -200 c 2
 194 -219 l 1
 157 -191 l 1
 107 -217 l 1
 93 -176 l 1
 76 -200 53 -214 24 -212 c 0
 -11 -211 -26 -191 -17 -154 c 0
 -14 -139 -4 -127 9 -116 c 0
 22 -106 37 -102 53 -102 c 0
 67 -102 80 -106 94 -115 c 1
 95 -111 99 -103 105 -90 c 0
 110 -78 115 -61 119 -40 c 1
 154 -40 l 1
 146 -78 133 -112 115 -142 c 1
 127 -170 l 1
 127 -170 132 -167 141 -163 c 0
 151 -157 159 -154 166 -150 c 1
 205 -179 l 1
 225 -167 l 2
227 -118 m 0
 235 -118 243 -115 249 -110 c 0
 255 -104 258 -98 260 -90 c 0
 262 -82 261 -77 257 -71 c 0
 253 -66 247 -63 239 -63 c 0
 230 -63 222 -66 218 -71 c 1
 211 -77 208 -82 206 -90 c 0
 204 -97 205 -104 210 -110 c 1
 212 -115 218 -118 227 -118 c 0
169 131 m 0
 181 131 190 134 197 141 c 0
 205 149 209 157 211 166 c 0
 213 176 212 184 208 191 c 0
 204 198 196 201 184 201 c 0
 174 201 164 198 157 191 c 0
 149 184 143 176 141 166 c 0
 139 157 142 149 146 142 c 0
 150 134 159 131 169 131 c 0
45 -132 m 0
 36 -132 30 -134 23 -140 c 0
 18 -146 14 -151 12 -158 c 0
 11 -164 13 -170 16 -174 c 0
 20 -180 25 -182 34 -182 c 0
 41 -182 48 -180 55 -175 c 0
 61 -171 66 -166 70 -160 c 0
 73 -155 75 -151 76 -150 c 1
 75 -147 71 -144 66 -139 c 0
 62 -134 54 -132 45 -132 c 0
EndSplineSet
Substitution: 0 65534 'nds0' uni0E10.descless
Substitution: 0 65534 'ndsc' uni0E10.descless
EndChar
StartChar: uni0E11
Encoding: 147 3601 147
OldEncoding: 3601
Width: 532
Flags: W
HStem: 0 21G<193 241 426 473> 172 35<122 137> 277 33<144 154> 341 43<470 483>
DStem: 246 247 293 245 193 0 280 184 489 297 536 297 426 0 473 0
Fore
193 0 m 1
 246 247 l 2
 248 261 252 271 257 279 c 0
 262 286 268 292 273 296 c 0
 278 299 285 304 294 310 c 0
 300 313 302 316 303 322 c 0
 305 328 303 336 297 344 c 0
 290 350 284 355 278 356 c 1
 225 324 l 1
 178 356 l 1
 161 353 146 344 136 331 c 0
 124 319 117 307 115 297 c 1
 117 299 122 302 128 305 c 0
 134 308 143 310 154 310 c 0
 172 308 188 303 200 293 c 0
 211 281 214 264 209 241 c 0
 205 219 193 202 176 190 c 0
 159 177 141 172 124 172 c 0
 101 172 82 181 71 198 c 0
 60 216 58 238 64 267 c 0
 67 284 73 301 82 315 c 1
 92 338 110 356 133 371 c 0
 155 384 175 391 189 391 c 1
 233 360 l 1
 283 391 l 1
 301 385 316 376 329 364 c 0
 343 351 347 336 344 319 c 0
 342 311 340 304 335 299 c 0
 331 295 326 290 320 285 c 0
 313 280 307 275 302 269 c 0
 298 263 295 255 293 245 c 2
 280 184 l 1
 288 199 302 221 323 252 c 0
 342 282 369 312 397 340 c 0
 428 370 455 384 483 384 c 0
 507 384 523 375 531 358 c 0
 540 341 541 321 536 297 c 2
 473 0 l 1
 426 0 l 1
 489 297 l 2
 496 327 489 341 470 341 c 0
 457 341 440 330 418 306 c 0
 396 282 372 253 347 217 c 0
 320 180 298 142 280 104 c 0
 260 66 248 31 241 0 c 1
 193 0 l 1
146 277 m 0
 136 277 126 273 119 267 c 0
 110 260 106 252 103 242 c 0
 102 233 103 225 108 218 c 0
 113 210 121 207 131 207 c 0
 142 207 152 210 159 217 c 0
 167 225 172 233 173 242 c 0
 176 252 174 260 170 267 c 0
 165 273 157 277 146 277 c 0
EndSplineSet
EndChar
StartChar: uni0E12
Encoding: 148 3602 148
OldEncoding: 3602
Width: 567
Flags: W
HStem: -7 43<307 312> 0 21G<92 139 462 508> 258 35<246 257> 364 20G<544 590>
DStem: 331 108 378 103 318 45 365 43 350 391 339 351 276 347 268 311 362 254 410 254 338 141 386 140 544 384 590 384 477 69 508 0
Fore
338 141 m 1
 362 254 l 2
 368 280 370 299 368 313 c 0
 365 327 354 339 339 351 c 1
 268 311 l 1
 268 312 261 316 250 327 c 0
 237 337 224 345 216 351 c 1
 163 327 131 292 121 245 c 0
 115 215 118 179 134 139 c 0
 143 113 147 95 145 87 c 1
 156 104 169 119 181 131 c 0
 193 144 200 151 207 156 c 1
 192 160 182 170 176 182 c 0
 169 194 167 209 171 224 c 0
 175 243 184 259 199 272 c 0
 215 286 234 293 255 293 c 0
 277 293 293 286 302 271 c 0
 312 257 313 241 309 221 c 0
 307 210 303 201 298 193 c 0
 292 185 285 177 279 172 c 0
 271 166 263 159 255 151 c 0
 236 134 220 119 207 104 c 0
 194 89 181 73 169 56 c 0
 158 40 146 20 139 0 c 1
 92 0 l 1
 99 9 103 19 106 31 c 0
 108 42 108 59 104 82 c 0
 104 90 100 105 94 128 c 0
 86 150 80 171 77 190 c 0
 75 209 76 229 81 252 c 0
 88 284 106 311 131 334 c 0
 156 358 186 377 220 391 c 1
 276 347 l 1
 350 391 l 1
 374 379 390 366 399 354 c 0
 409 341 415 328 416 313 c 0
 417 298 415 278 410 254 c 2
 386 140 l 1
 402 137 419 129 439 116 c 0
 457 103 469 87 477 69 c 1
 544 384 l 1
 590 384 l 1
 508 0 l 1
 462 0 l 1
 447 54 420 88 378 103 c 1
 365 43 l 2
 358 10 340 -7 310 -7 c 0
 291 -7 277 1 270 16 c 0
 262 31 260 49 265 70 c 0
 269 89 278 106 292 120 c 0
 304 133 320 140 338 141 c 1
248 258 m 0
 238 258 228 254 220 247 c 0
 213 240 207 232 205 223 c 0
 203 214 206 206 209 199 c 0
 215 191 223 188 233 188 c 0
 245 188 255 191 261 198 c 0
 269 205 273 212 275 223 c 0
 278 233 276 241 272 247 c 0
 268 254 260 258 248 258 c 0
318 45 m 1
 331 108 l 1
 314 105 302 92 296 66 c 0
 294 58 296 51 298 45 c 0
 302 40 305 36 309 36 c 0
 312 36 316 40 318 45 c 1
EndSplineSet
EndChar
StartChar: uni0E13
Encoding: 149 3603 149
OldEncoding: 3603
Width: 553
Flags: W
HStem: -28 20G<462.5 478.5> -7 35<131 145> 0 21G<278 325> 97 35<152 164> 356 35<267 283> 364 20G<506 553>
DStem: 106 200 154 202 76 63 138 128 338 282 385 282 278 0 342 82 450 124 499 130 431 35 480 43 506 384 553 384 459 163 506 166
Fore
76 63 m 2
 106 200 l 2
 115 244 137 271 171 282 c 1
 166 287 156 294 143 302 c 0
 130 310 112 315 92 321 c 1
 104 333 125 348 155 365 c 0
 184 382 222 391 267 391 c 0
 361 391 400 355 385 282 c 2
 342 82 l 1
 377 123 416 150 459 163 c 1
 506 384 l 1
 553 384 l 1
 506 166 l 1
 529 163 545 155 555 140 c 0
 565 125 567 104 562 78 c 0
 556 50 543 29 525 15 c 0
 507 0 488 -8 469 -8 c 0
 456 -8 445 -5 438 3 c 0
 430 11 428 21 431 35 c 2
 450 124 l 1
 421 114 394 95 371 68 c 0
 348 41 333 18 325 0 c 1
 278 0 l 1
 338 282 l 2
 343 306 339 325 326 338 c 0
 312 350 293 356 267 356 c 0
 234 356 198 347 162 328 c 1
 168 325 179 320 194 312 c 0
 210 304 221 294 234 280 c 1
 228 280 221 279 212 276 c 0
 202 272 191 266 178 254 c 0
 166 242 159 225 154 202 c 2
 138 128 l 1
 142 131 150 132 162 132 c 0
 184 132 199 125 208 112 c 0
 216 98 218 82 214 63 c 0
 210 44 201 28 187 15 c 0
 172 0 155 -7 133 -7 c 0
 113 -7 97 0 87 12 c 0
 75 25 72 42 76 63 c 2
480 43 m 2
 478 35 482 31 487 31 c 0
 494 31 501 35 508 44 c 0
 517 52 523 63 527 78 c 0
 533 108 524 127 499 130 c 1
 480 43 l 2
139 28 m 0
 151 28 161 32 167 38 c 0
 175 45 179 53 181 63 c 0
 183 72 182 80 177 87 c 0
 173 94 165 97 154 97 c 0
 144 97 134 94 126 87 c 0
 119 80 113 72 111 63 c 0
 109 53 112 45 115 38 c 0
 121 32 129 28 139 28 c 0
EndSplineSet
EndChar
StartChar: uni0E14
Encoding: 150 3604 150
OldEncoding: 3604
Width: 414
Flags: W
HStem: 0 21G<92 139 308 356> 258 35<246 257> 358 35<260 302>
DStem: 363 257 410 254 308 0 356 0
Fore
123 250 m 0
 115 216 119 180 134 141 c 0
 143 118 145 98 141 82 c 1
 154 101 167 116 180 129 c 0
 192 141 200 150 207 156 c 1
 192 160 182 170 176 182 c 0
 169 194 167 209 171 224 c 0
 175 243 184 259 199 272 c 0
 215 286 234 293 255 293 c 0
 277 293 293 286 302 271 c 0
 312 257 313 241 309 221 c 0
 307 210 303 201 298 193 c 0
 292 185 285 177 279 172 c 0
 271 166 263 159 255 151 c 0
 236 134 220 119 207 104 c 0
 194 89 181 73 169 56 c 0
 158 40 146 20 139 0 c 1
 92 0 l 1
 99 9 103 19 106 31 c 0
 108 42 108 59 104 82 c 0
 104 92 100 107 93 129 c 0
 85 151 81 172 79 191 c 0
 77 210 76 231 82 252 c 0
 91 290 115 324 151 353 c 0
 185 380 231 393 286 393 c 0
 389 393 430 347 410 254 c 2
 356 0 l 1
 308 0 l 1
 363 257 l 2
 369 287 368 311 358 330 c 0
 349 349 322 358 278 358 c 0
 241 358 207 348 178 328 c 0
 149 307 130 281 123 250 c 0
248 258 m 0
 238 258 228 254 220 247 c 0
 213 240 207 232 205 223 c 0
 203 214 206 206 209 199 c 0
 215 191 223 188 233 188 c 0
 245 188 255 191 261 198 c 0
 269 205 273 212 275 223 c 0
 278 233 276 241 272 247 c 0
 268 254 260 258 248 258 c 0
EndSplineSet
EndChar
StartChar: uni0E15
Encoding: 151 3605 151
OldEncoding: 3605
Width: 414
Flags: W
HStem: 0 21G<92 139 308 356> 258 35<246 257>
DStem: 350 391 339 351 276 347 268 311 362 254 410 254 308 0 356 0
Fore
145 87 m 1
 156 104 169 119 181 131 c 0
 193 144 200 151 207 156 c 1
 192 160 182 170 176 182 c 0
 169 194 167 209 171 224 c 0
 175 243 184 259 199 272 c 0
 215 286 234 293 255 293 c 0
 277 293 293 286 302 271 c 0
 312 257 313 241 309 221 c 0
 307 210 303 201 298 193 c 0
 292 185 285 177 279 172 c 0
 271 166 263 159 255 151 c 0
 236 134 220 119 207 104 c 0
 194 89 181 73 169 56 c 0
 158 40 146 20 139 0 c 1
 92 0 l 1
 99 9 103 19 106 31 c 0
 108 42 108 59 104 82 c 0
 104 90 100 105 94 128 c 0
 86 150 80 171 77 190 c 0
 75 209 76 229 81 252 c 0
 88 284 106 311 131 334 c 0
 156 358 186 377 220 391 c 1
 276 347 l 1
 350 391 l 1
 374 379 390 366 399 354 c 0
 409 341 415 328 416 313 c 0
 417 298 415 278 410 254 c 2
 356 0 l 1
 308 0 l 1
 362 254 l 2
 368 280 370 299 368 313 c 0
 365 327 354 339 339 351 c 1
 268 311 l 1
 268 312 261 316 250 327 c 0
 237 337 224 345 216 351 c 1
 163 327 131 292 121 245 c 0
 115 215 118 179 134 139 c 0
 143 113 147 95 145 87 c 1
248 258 m 0
 238 258 228 254 220 247 c 0
 213 240 207 232 205 223 c 0
 203 214 206 206 209 199 c 0
 215 191 223 188 233 188 c 0
 245 188 255 191 261 198 c 0
 269 205 273 212 275 223 c 0
 278 233 276 241 272 247 c 0
 268 254 260 258 248 258 c 0
EndSplineSet
EndChar
StartChar: uni0E16
Encoding: 152 3606 152
OldEncoding: 3606
Width: 410
Flags: W
HStem: -7 35<131 143> 0 21G<304 351> 97 35<150 164> 350 41<265 283>
DStem: 104 191 152 193 76 63 138 128 361 267 408 267 304 0 351 0
Fore
76 63 m 2
 104 191 l 2
 108 214 117 231 128 243 c 0
 139 254 152 263 165 269 c 1
 161 273 153 279 140 287 c 0
 127 295 109 301 88 302 c 1
 101 316 125 336 160 358 c 0
 194 380 234 391 281 391 c 0
 309 391 334 386 356 377 c 0
 377 368 393 355 402 336 c 0
 412 316 413 293 408 267 c 2
 351 0 l 1
 304 0 l 1
 361 267 l 2
 364 284 362 298 355 311 c 0
 349 323 339 333 324 340 c 0
 310 347 292 350 273 350 c 0
 232 350 195 338 161 313 c 1
 167 312 177 307 192 301 c 0
 206 294 218 284 230 271 c 1
 219 269 205 262 187 251 c 0
 170 240 158 220 152 193 c 2
 138 128 l 1
 142 131 150 132 162 132 c 0
 184 132 199 125 208 112 c 0
 216 98 218 82 214 63 c 0
 210 44 201 28 187 15 c 0
 172 0 155 -7 133 -7 c 0
 113 -7 97 0 87 12 c 0
 75 25 72 42 76 63 c 2
139 28 m 0
 151 28 161 32 167 38 c 0
 175 45 179 53 181 63 c 0
 183 72 182 80 177 87 c 0
 173 94 165 97 154 97 c 0
 144 97 134 94 126 87 c 0
 119 80 113 72 111 63 c 0
 109 53 112 45 115 38 c 0
 121 32 129 28 139 28 c 0
EndSplineSet
EndChar
StartChar: uni0E17
Encoding: 153 3607 153
OldEncoding: 3607
Width: 455
Flags: W
HStem: 0 21G<115 163 348 396> 250 34<145 156> 341 43<392 405> 354 35<163 177>
DStem: 169 253 231 319 115 0 202 184 411 297 459 297 348 0 396 0
Fore
115 0 m 1
 169 253 l 1
 163 251 156 250 147 250 c 0
 125 250 110 257 101 271 c 0
 92 285 88 301 92 320 c 0
 96 339 106 355 121 368 c 0
 136 382 155 389 177 389 c 0
 191 389 202 385 211 380 c 0
 219 374 227 365 230 355 c 0
 233 345 234 332 231 319 c 2
 202 184 l 1
 212 199 225 218 240 241 c 0
 255 264 271 287 291 310 c 0
 310 331 328 349 348 364 c 0
 367 377 386 384 405 384 c 0
 422 384 435 380 443 372 c 0
 451 363 457 351 460 339 c 0
 463 327 462 312 459 297 c 2
 396 0 l 1
 348 0 l 1
 411 297 l 2
 418 327 411 341 393 341 c 0
 380 341 364 330 341 306 c 0
 318 282 294 253 269 217 c 0
 243 180 220 142 202 104 c 0
 182 66 170 31 163 0 c 1
 115 0 l 1
169 354 m 0
 157 354 147 350 141 344 c 0
 134 337 129 329 127 319 c 0
 125 310 126 302 131 295 c 0
 134 287 142 284 154 284 c 0
 165 284 175 287 183 295 c 0
 189 302 195 310 197 319 c 0
 199 329 197 337 193 344 c 0
 188 350 180 354 169 354 c 0
EndSplineSet
EndChar
StartChar: uni0E18
Encoding: 154 3608 154
OldEncoding: 3608
Width: 367
Flags: W
HStem: 0 41<60 243> 321 38<362 373> 356 35<216 245>
DStem: 151 245 198 245 108 41 155 41 294 189 342 188 270 73 318 73
Fore
161 323 m 1
 179 322 207 318 243 310 c 0
 279 302 308 286 329 264 c 0
 340 255 346 245 347 234 c 0
 348 223 346 207 342 188 c 2
 318 73 l 2
 311 43 301 23 289 14 c 0
 276 5 252 0 219 0 c 2
 52 0 l 1
 61 41 l 1
 108 41 l 1
 151 245 l 1
 198 245 l 1
 155 41 l 1
 228 41 l 2
 243 41 253 43 259 47 c 0
 263 51 267 60 270 73 c 2
 294 189 l 2
 297 202 298 214 298 221 c 0
 296 231 292 238 283 246 c 0
 267 261 246 272 217 280 c 0
 186 288 155 292 122 292 c 0
 113 292 100 290 85 289 c 1
 94 306 113 328 138 354 c 0
 165 379 196 391 236 391 c 0
 260 391 287 385 314 375 c 0
 341 365 358 359 369 359 c 0
 382 359 397 363 411 370 c 1
 421 337 l 1
 401 327 381 321 364 321 c 0
 354 321 342 323 329 328 c 0
 315 332 304 338 292 341 c 0
 282 345 272 348 263 351 c 0
 251 355 241 356 229 356 c 0
 209 356 194 351 183 344 c 0
 170 336 164 329 161 323 c 1
EndSplineSet
EndChar
StartChar: uni0E19
Encoding: 155 3609 155
OldEncoding: 3609
Width: 445
Flags: W
HStem: -8 39<361 380> 0 21G<115 163> 250 35<145 157> 354 35<163 177> 364 20G<397 445>
DStem: 169 253 231 319 115 0 179 73 343 130 391 130 322 35 372 43 397 384 445 384 350 167 398 166
Fore
115 0 m 1
 169 253 l 1
 163 251 156 250 147 250 c 0
 125 250 110 257 101 271 c 0
 92 285 88 301 92 320 c 0
 96 339 106 355 121 368 c 0
 136 382 155 389 177 389 c 0
 191 389 202 385 211 380 c 0
 219 374 227 365 230 355 c 0
 233 345 234 332 231 319 c 2
 179 73 l 1
 226 124 284 156 350 167 c 1
 397 384 l 1
 445 384 l 1
 398 166 l 1
 421 163 438 155 447 140 c 0
 456 125 458 105 453 78 c 0
 447 50 435 29 418 15 c 0
 400 0 380 -8 361 -8 c 0
 347 -8 337 -5 330 3 c 0
 322 11 319 21 322 35 c 2
 343 130 l 1
 315 125 287 114 263 97 c 0
 237 80 216 62 201 45 c 0
 185 28 171 12 163 0 c 1
 115 0 l 1
169 354 m 0
 159 354 149 350 142 344 c 0
 134 337 129 329 127 320 c 0
 125 310 126 302 131 295 c 0
 134 288 143 285 155 285 c 0
 166 285 175 288 183 295 c 0
 189 303 195 311 197 320 c 0
 199 329 197 337 192 344 c 0
 187 350 179 354 169 354 c 0
372 43 m 2
 370 35 373 31 380 31 c 0
 386 31 392 35 401 44 c 0
 409 53 415 64 418 78 c 0
 424 108 416 127 391 130 c 1
 372 43 l 2
EndSplineSet
EndChar
StartChar: uni0E1A
Encoding: 156 3610 156
OldEncoding: 3610
Width: 442
Flags: W
HStem: 0 41<77 326> 250 34<145 156> 354 35<164 177> 364 20G<419 466>
DStem: 169 253 231 319 124 41 172 41 419 384 466 384 353 73 400 73
Fore
124 41 m 1
 169 253 l 1
 163 251 156 250 147 250 c 0
 125 250 110 257 101 271 c 0
 92 285 88 301 92 320 c 0
 96 339 106 355 121 368 c 0
 136 382 155 389 177 389 c 0
 191 389 202 385 211 380 c 0
 219 374 227 365 230 355 c 0
 233 345 234 332 231 319 c 2
 172 41 l 1
 311 41 l 2
 325 41 336 43 340 47 c 1
 345 51 350 60 353 73 c 2
 419 384 l 1
 466 384 l 1
 400 73 l 2
 393 43 384 23 371 14 c 0
 359 5 336 0 302 0 c 2
 69 0 l 1
 78 41 l 1
 124 41 l 1
169 354 m 0
 157 354 147 350 141 344 c 0
 134 337 129 329 127 319 c 0
 125 310 126 302 131 295 c 0
 134 287 142 284 154 284 c 0
 165 284 175 287 183 295 c 0
 189 302 195 310 197 319 c 0
 199 329 197 337 193 344 c 0
 188 350 180 354 169 354 c 0
EndSplineSet
EndChar
StartChar: uni0E1B
Encoding: 157 3611 157
OldEncoding: 3611
Width: 442
Flags: W
HStem: 0 41<77 326> 250 35<145 157> 354 35<164 177>
DStem: 169 253 231 319 124 41 172 41 448 523 495 523 353 73 400 73
AnchorPoint: "AboveBase" 398.65 450 basechar 0
Fore
124 41 m 1
 169 253 l 1
 163 251 156 250 147 250 c 0
 125 250 110 257 101 271 c 0
 92 285 88 301 92 320 c 0
 96 339 106 355 121 368 c 0
 136 382 155 389 177 389 c 0
 191 389 202 385 211 380 c 0
 219 374 227 365 230 355 c 0
 233 345 234 332 231 319 c 2
 172 41 l 1
 311 41 l 2
 325 41 336 43 340 47 c 1
 345 51 350 60 353 73 c 2
 448 523 l 1
 495 523 l 1
 400 73 l 2
 393 43 384 23 371 14 c 0
 359 5 336 0 302 0 c 2
 69 0 l 1
 78 41 l 1
 124 41 l 1
169 354 m 0
 159 354 149 350 142 344 c 0
 134 337 129 329 127 320 c 0
 125 310 126 302 131 295 c 0
 134 288 143 285 155 285 c 0
 166 285 175 288 183 295 c 0
 189 303 195 311 197 320 c 0
 199 329 197 337 192 344 c 0
 187 350 179 354 169 354 c 0
EndSplineSet
EndChar
StartChar: uni0E1C
Encoding: 158 3612 158
OldEncoding: 3612
Width: 423
Flags: W
HStem: 0 21G<59 106 318 365> 250 34<179 190> 354 35<201 213> 364 20G<400 447>
DStem: 127 319 160 254 59 0 127 99 247 163 258 215 310 70 339 99 258 215 247 163 127 99 145 70 400 384 447 384 339 99 365 0
Fore
160 254 m 1
 127 99 l 1
 258 215 l 1
 339 99 l 1
 400 384 l 1
 447 384 l 1
 365 0 l 1
 318 0 l 1
 325 31 321 53 310 70 c 2
 247 163 l 1
 145 70 l 2
 125 53 112 29 106 0 c 1
 59 0 l 1
 127 319 l 2
 131 339 140 356 156 370 c 0
 170 382 189 389 211 389 c 0
 233 389 248 382 258 368 c 0
 267 355 270 339 266 320 c 0
 262 301 252 284 237 270 c 0
 222 257 202 250 181 250 c 0
 174 250 167 251 160 254 c 1
188 284 m 0
 199 284 209 287 218 295 c 0
 224 303 230 311 232 319 c 0
 234 329 232 337 228 344 c 0
 222 350 214 354 203 354 c 0
 193 354 182 350 175 344 c 0
 167 336 163 328 161 319 c 0
 159 311 160 303 165 295 c 0
 169 287 178 284 188 284 c 0
EndSplineSet
EndChar
StartChar: uni0E1D
Encoding: 159 3613 159
OldEncoding: 3613
Width: 423
Flags: W
HStem: 0 21G<59 106 318 365> 250 35<179 191> 354 35<201 211>
DStem: 127 319 160 254 59 0 127 99 247 163 258 215 310 70 339 99 258 215 247 163 127 99 145 70 429 523 476 523 339 99 365 0
AnchorPoint: "AboveBase" 379.65 450 basechar 0
Fore
160 254 m 1
 127 99 l 1
 258 215 l 1
 339 99 l 1
 429 523 l 1
 476 523 l 1
 365 0 l 1
 318 0 l 1
 325 31 321 53 310 70 c 2
 247 163 l 1
 145 70 l 2
 125 53 112 29 106 0 c 1
 59 0 l 1
 127 319 l 2
 131 339 140 356 156 370 c 0
 170 382 189 389 211 389 c 0
 233 389 248 382 258 368 c 0
 267 355 270 339 266 320 c 0
 262 301 252 284 237 270 c 0
 222 257 202 250 181 250 c 0
 174 250 167 251 160 254 c 1
189 285 m 0
 200 285 209 288 218 296 c 0
 224 303 230 311 232 320 c 0
 234 328 231 336 227 344 c 0
 221 350 213 354 203 354 c 0
 193 354 182 350 176 344 c 0
 167 336 163 328 161 320 c 0
 159 311 160 303 165 296 c 0
 169 288 179 285 189 285 c 0
EndSplineSet
EndChar
StartChar: uni0E1E
Encoding: 160 3614 160
OldEncoding: 3614
Width: 490
Flags: W
HStem: 0 21G<115 163 391 438> 250 35<145 157> 354 35<163 177> 364 20G<473 520>
DStem: 169 253 231 319 115 0 189 124 339 293 359 384 392 47 417 123 359 384 339 293 189 124 182 47 473 384 520 384 417 123 438 0
Fore
115 0 m 1
 169 253 l 1
 163 251 156 250 147 250 c 0
 125 250 110 257 101 271 c 0
 92 285 88 301 92 320 c 0
 96 339 106 355 121 368 c 0
 136 382 155 389 177 389 c 0
 191 389 202 385 211 380 c 0
 219 374 227 365 230 355 c 0
 233 345 234 332 231 319 c 2
 189 124 l 1
 359 384 l 1
 417 123 l 1
 473 384 l 1
 520 384 l 1
 438 0 l 1
 391 0 l 1
 392 5 393 11 394 21 c 0
 396 32 394 40 392 47 c 2
 339 293 l 1
 182 47 l 2
 177 40 173 31 169 21 c 0
 166 11 165 5 163 0 c 1
 115 0 l 1
169 354 m 0
 159 354 149 350 142 344 c 0
 134 337 129 329 127 320 c 0
 125 310 126 302 131 295 c 0
 134 288 143 285 155 285 c 0
 166 285 175 288 183 295 c 0
 189 303 195 311 197 320 c 0
 199 329 197 337 192 344 c 0
 187 350 179 354 169 354 c 0
EndSplineSet
EndChar
StartChar: uni0E1F
Encoding: 161 3615 161
OldEncoding: 3615
Width: 490
Flags: W
HStem: 0 21G<115 163 391 438> 250 34<145 156> 354 35<163 177>
DStem: 169 253 231 319 115 0 189 124 339 293 359 384 392 47 417 123 359 384 339 293 189 124 182 47 502 523 549 523 417 123 438 0
AnchorPoint: "AboveBase" 446.65 450 basechar 0
Fore
115 0 m 1
 169 253 l 1
 163 251 156 250 147 250 c 0
 125 250 110 257 101 271 c 0
 92 285 88 301 92 320 c 0
 96 339 106 355 121 368 c 0
 136 382 155 389 177 389 c 0
 191 389 202 385 211 380 c 0
 219 374 227 365 230 355 c 0
 233 345 234 332 231 319 c 2
 189 124 l 1
 359 384 l 1
 417 123 l 1
 502 523 l 1
 549 523 l 1
 438 0 l 1
 391 0 l 1
 392 5 393 11 394 21 c 0
 396 32 394 40 392 47 c 2
 339 293 l 1
 182 47 l 2
 177 40 173 31 169 21 c 0
 166 11 165 5 163 0 c 1
 115 0 l 1
169 354 m 0
 157 354 147 350 141 344 c 0
 134 337 129 329 127 319 c 0
 125 310 126 302 131 295 c 0
 134 287 142 284 154 284 c 0
 165 284 175 287 183 295 c 0
 189 302 195 310 197 319 c 0
 199 329 197 337 193 344 c 0
 188 350 180 354 169 354 c 0
EndSplineSet
EndChar
StartChar: uni0E20
Encoding: 162 3616 162
OldEncoding: 3616
Width: 456
Flags: W
HStem: -7 35<85 96> 0 21G<351 398> 97 35<107 118> 350 41<317 335>
DStem: 152 191 199 193 138 128 171 61 408 267 455 267 351 0 398 0
Fore
138 128 m 1
 152 191 l 2
 155 206 160 219 167 231 c 0
 172 241 180 250 187 255 c 0
 195 261 205 266 213 269 c 1
 208 273 199 279 186 287 c 0
 174 295 156 301 134 302 c 1
 147 316 172 336 207 358 c 0
 243 380 282 391 328 391 c 0
 372 391 408 381 431 359 c 0
 455 338 463 307 455 267 c 2
 398 0 l 1
 351 0 l 1
 408 267 l 2
 411 284 410 298 403 311 c 0
 397 323 386 333 371 340 c 0
 358 347 340 350 320 350 c 0
 280 350 243 338 208 313 c 1
 214 312 224 307 239 301 c 0
 253 294 266 284 277 271 c 1
 266 269 253 262 235 251 c 0
 217 240 205 220 199 193 c 2
 171 61 l 2
 167 42 159 26 143 14 c 0
 128 0 109 -7 87 -7 c 0
 66 -7 51 0 41 14 c 0
 32 27 28 44 32 63 c 0
 36 82 46 98 61 112 c 0
 77 125 95 132 116 132 c 0
 126 132 133 131 138 128 c 1
94 28 m 0
 105 28 115 32 123 38 c 0
 131 45 135 53 137 63 c 0
 139 72 138 80 133 87 c 0
 128 94 120 97 109 97 c 0
 99 97 89 94 81 87 c 0
 73 79 68 71 66 63 c 0
 64 54 66 46 72 40 c 0
 76 32 84 28 94 28 c 0
EndSplineSet
EndChar
StartChar: uni0E21
Encoding: 163 3617 163
OldEncoding: 3617
Width: 440
Flags: W
HStem: -7 40<107 116> 0 21G<334 382> 250 34<153 165> 354 35<176 186> 364 20G<416 464>
DStem: 152 132 200 130 135 52 185 59 178 253 240 319 159 167 207 167 416 384 464 384 351 80 382 0
Fore
159 167 m 1
 178 253 l 1
 172 251 165 250 156 250 c 0
 134 250 119 257 109 270 c 0
 100 284 98 301 102 320 c 0
 106 339 115 355 130 368 c 0
 145 382 164 389 186 389 c 0
 199 389 211 385 220 380 c 0
 228 374 236 365 239 355 c 0
 243 345 243 332 240 319 c 2
 207 167 l 1
 232 165 254 158 274 149 c 0
 294 139 311 129 324 116 c 0
 337 103 346 90 351 80 c 1
 416 384 l 1
 464 384 l 1
 382 0 l 1
 334 0 l 1
 337 15 334 32 323 51 c 0
 312 70 296 88 274 103 c 0
 252 118 227 127 200 130 c 1
 185 59 l 2
 180 38 171 23 158 11 c 0
 145 -1 128 -7 107 -7 c 0
 85 -7 68 1 59 18 c 0
 50 34 47 53 52 76 c 0
 57 99 70 121 89 139 c 0
 106 156 131 166 159 167 c 1
96 43 m 0
 101 36 106 33 114 33 c 0
 126 33 133 40 135 52 c 2
 152 132 l 1
 136 132 123 127 113 116 c 0
 102 105 96 93 93 78 c 0
 89 63 90 51 96 43 c 0
178 354 m 0
 168 354 158 350 150 344 c 0
 142 336 138 328 136 319 c 0
 134 311 135 303 140 295 c 0
 145 287 153 284 163 284 c 0
 174 284 184 287 192 295 c 0
 198 302 204 310 206 319 c 0
 208 329 206 337 202 344 c 0
 197 350 189 354 178 354 c 0
EndSplineSet
EndChar
StartChar: uni0E22
Encoding: 164 3618 164
OldEncoding: 3618
Width: 393
Flags: W
HStem: 0 41<106 275> 160 42<206 217> 259 34<192 201> 358 33<207 224> 364 20G<369 416>
DStem: 70 94 117 94 50 0 106 41 369 384 416 384 303 73 350 73
Fore
152 182 m 1
 129 190 115 202 107 220 c 0
 98 238 97 259 102 280 c 0
 107 308 122 334 146 357 c 0
 169 380 194 391 222 391 c 0
 243 391 258 384 268 372 c 0
 276 358 279 342 275 324 c 0
 271 306 262 290 248 278 c 0
 233 266 214 259 194 259 c 0
 179 259 168 261 162 267 c 0
 155 272 151 277 149 280 c 1
 143 254 148 234 163 221 c 0
 177 209 196 202 217 202 c 1
 208 160 l 1
 183 160 163 155 148 142 c 0
 132 130 121 114 117 94 c 2
 106 41 l 1
 261 41 l 2
 276 41 286 43 291 47 c 0
 296 51 300 60 303 73 c 2
 369 384 l 1
 416 384 l 1
 350 73 l 2
 343 43 334 23 322 14 c 0
 308 5 285 0 252 0 c 2
 50 0 l 1
 70 94 l 2
 74 113 80 128 89 140 c 0
 96 151 106 160 115 166 c 0
 125 172 132 176 139 179 c 0
 144 180 149 181 152 182 c 1
201 293 m 0
 222 294 237 304 241 325 c 0
 243 334 243 342 238 349 c 0
 233 355 225 358 215 358 c 0
 205 358 196 355 189 349 c 0
 183 342 177 334 175 325 c 0
 174 318 176 310 179 303 c 0
 184 296 191 293 201 293 c 0
EndSplineSet
EndChar
StartChar: uni0E23
Encoding: 165 3619 165
OldEncoding: 3619
Width: 353
Flags: W
HStem: -7 35<211 222> 97 35<226 242> 319 41<353 367> 354 37<219 242>
DStem: 275 186 322 189 262 129 295 61
Fore
322 189 m 2
 295 61 l 2
 291 40 280 24 264 11 c 0
 250 -1 232 -7 213 -7 c 0
 191 -7 175 0 166 15 c 0
 156 28 153 44 157 62 c 0
 161 81 171 97 187 112 c 0
 202 125 219 132 240 132 c 0
 245 132 253 131 262 129 c 1
 275 186 l 2
 279 206 280 221 279 233 c 0
 277 244 272 252 264 258 c 0
 256 262 243 267 228 271 c 0
 200 279 175 285 147 289 c 0
 121 294 101 297 88 299 c 1
 107 325 132 347 157 365 c 0
 182 382 208 391 236 391 c 0
 250 391 264 390 273 388 c 0
 284 384 296 381 309 375 c 0
 323 370 333 366 340 364 c 0
 348 362 357 360 365 360 c 0
 379 360 392 364 407 370 c 1
 407 330 l 1
 386 322 369 319 354 319 c 0
 343 319 334 320 327 322 c 0
 320 324 310 329 294 336 c 0
 278 341 266 346 257 349 c 0
 248 353 238 354 228 354 c 0
 215 354 202 350 188 345 c 0
 175 338 166 332 164 328 c 1
 164 328 l 1
 164 328 197 319 264 302 c 0
 298 294 319 281 325 264 c 0
 331 247 329 223 322 189 c 2
220 28 m 0
 231 28 241 32 248 38 c 0
 255 45 260 53 262 63 c 0
 264 72 262 80 258 87 c 0
 254 94 246 97 235 97 c 0
 224 97 214 94 207 87 c 0
 199 79 194 71 192 63 c 0
 190 54 192 46 198 40 c 0
 201 32 209 28 220 28 c 0
EndSplineSet
EndChar
StartChar: uni0E24
Encoding: 166 3620 166
OldEncoding: 3620
Width: 410
Flags: W
HStem: -7 35<131 143> 97 35<150 164> 350 41<259 283>
DStem: 104 191 152 193 76 63 138 128 361 267 408 267 261 -200 308 -200
Fore
76 63 m 2
 104 191 l 2
 108 214 117 231 128 243 c 0
 139 254 152 263 165 269 c 1
 161 273 153 279 140 287 c 0
 127 295 109 301 88 302 c 1
 101 316 125 336 160 358 c 0
 194 380 234 391 281 391 c 0
 309 391 334 386 356 377 c 0
 377 368 393 355 402 336 c 0
 412 316 413 293 408 267 c 2
 308 -200 l 1
 261 -200 l 1
 361 267 l 2
 364 284 362 298 355 311 c 0
 349 323 339 333 324 340 c 0
 310 347 292 350 273 350 c 0
 232 350 195 338 161 313 c 1
 167 312 177 307 192 301 c 0
 206 294 218 284 230 271 c 1
 219 269 205 262 187 251 c 0
 170 240 158 220 152 193 c 2
 138 128 l 1
 142 131 150 132 162 132 c 0
 184 132 199 125 208 112 c 0
 216 98 218 82 214 63 c 0
 210 44 201 28 187 15 c 0
 172 0 155 -7 133 -7 c 0
 113 -7 97 0 87 12 c 0
 75 25 72 42 76 63 c 2
139 28 m 0
 151 28 161 32 167 38 c 0
 175 45 179 53 181 63 c 0
 183 72 182 80 177 87 c 0
 173 94 165 97 154 97 c 0
 144 97 134 94 126 87 c 0
 119 80 113 72 111 63 c 0
 109 53 112 45 115 38 c 0
 121 32 129 28 139 28 c 0
EndSplineSet
EndChar
StartChar: uni0E25
Encoding: 167 3621 167
OldEncoding: 3621
Width: 395
Flags: W
HStem: -7 34<129 140> 0 21G<289 337> 97 35<151 162> 243 39<198 207> 354 37<248 277>
DStem: 345 264 393 264 317 132 337 0
Fore
198 243 m 1
 164 240 142 211 131 158 c 0
 128 148 127 137 125 123 c 1
 127 124 131 127 137 129 c 0
 143 131 150 132 160 132 c 0
 182 132 198 125 207 112 c 0
 216 98 218 82 214 63 c 0
 210 43 201 26 186 14 c 0
 171 0 153 -7 131 -7 c 0
 110 -7 94 0 84 15 c 0
 75 29 71 45 73 64 c 0
 74 90 79 123 88 160 c 0
 95 194 110 223 129 244 c 0
 149 267 170 279 199 282 c 1
 230 282 252 272 270 253 c 0
 287 233 298 209 306 183 c 0
 312 156 316 139 317 132 c 1
 345 264 l 2
 351 293 346 314 330 330 c 0
 315 346 290 354 259 354 c 0
 208 354 164 333 125 293 c 1
 100 316 l 1
 115 336 138 353 170 368 c 0
 200 383 233 391 269 391 c 0
 314 391 348 380 371 358 c 0
 395 337 402 305 393 264 c 2
 337 0 l 1
 289 0 l 1
 292 14 292 34 290 61 c 0
 287 87 282 115 275 144 c 0
 268 172 256 195 244 215 c 0
 231 234 215 243 198 243 c 1
153 97 m 0
 143 97 133 94 124 87 c 0
 118 80 112 72 110 62 c 0
 108 53 111 45 114 38 c 0
 120 31 128 27 138 27 c 0
 150 27 160 31 166 38 c 0
 174 45 178 53 180 62 c 0
 182 72 181 80 176 87 c 0
 173 94 165 97 153 97 c 0
EndSplineSet
EndChar
StartChar: uni0E26
Encoding: 168 3622 168
OldEncoding: 3622
Width: 456
Flags: W
HStem: -7 35<85 96> 97 35<107 118> 350 41<306 335>
DStem: 152 191 199 193 138 128 171 61 408 267 455 267 308 -200 355 -200
Fore
138 128 m 1
 152 191 l 2
 155 206 160 219 167 231 c 0
 172 241 180 250 187 255 c 0
 195 261 205 266 213 269 c 1
 208 273 199 279 186 287 c 0
 174 295 156 301 134 302 c 1
 147 316 172 336 207 358 c 0
 243 380 282 391 328 391 c 0
 372 391 408 381 431 359 c 0
 455 338 463 307 455 267 c 2
 355 -200 l 1
 308 -200 l 1
 408 267 l 2
 411 284 410 298 403 311 c 0
 397 323 386 333 371 340 c 0
 358 347 340 350 320 350 c 0
 280 350 243 338 208 313 c 1
 214 312 224 307 239 301 c 0
 253 294 266 284 277 271 c 1
 266 269 253 262 235 251 c 0
 217 240 205 220 199 193 c 2
 171 61 l 2
 167 42 159 26 143 14 c 0
 128 0 109 -7 87 -7 c 0
 66 -7 51 0 41 14 c 0
 32 27 28 44 32 63 c 0
 36 82 46 98 61 112 c 0
 77 125 95 132 116 132 c 0
 126 132 133 131 138 128 c 1
94 28 m 0
 105 28 115 32 123 38 c 0
 131 45 135 53 137 63 c 0
 139 72 138 80 133 87 c 0
 128 94 120 97 109 97 c 0
 99 97 89 94 81 87 c 0
 73 79 68 71 66 63 c 0
 64 54 66 46 72 40 c 0
 76 32 84 28 94 28 c 0
EndSplineSet
EndChar
StartChar: uni0E27
Encoding: 169 3623 169
OldEncoding: 3623
Width: 375
Flags: W
HStem: -7 35<243 254> 97 35<261 276> 354 37<229 254>
DStem: 325 264 371 264 296 129 328 63
Fore
371 264 m 2
 328 63 l 2
 324 44 316 28 302 15 c 0
 289 0 270 -7 246 -7 c 0
 225 -7 209 0 200 14 c 0
 190 27 186 44 190 63 c 0
 194 82 204 98 219 112 c 0
 234 125 252 132 274 132 c 0
 281 132 289 131 296 129 c 1
 325 264 l 2
 331 293 327 316 312 331 c 0
 297 347 273 354 242 354 c 0
 216 354 192 347 167 334 c 0
 144 322 125 306 110 289 c 1
 86 313 l 1
 97 327 110 339 128 351 c 0
 144 363 163 372 185 380 c 0
 206 388 229 391 250 391 c 0
 294 391 328 380 351 357 c 0
 373 336 380 304 371 264 c 2
267 97 m 0
 257 97 247 94 239 87 c 0
 232 79 226 71 224 63 c 0
 222 54 225 46 229 40 c 0
 234 32 242 28 252 28 c 0
 264 28 274 32 280 38 c 0
 288 45 292 53 294 63 c 0
 296 72 295 80 290 87 c 0
 287 94 279 97 267 97 c 0
EndSplineSet
EndChar
StartChar: uni0E28
Encoding: 170 3624 170
OldEncoding: 3624
Width: 414
Flags: W
HStem: 0 21G<97 144 308 356> 160 34<218 229> 264 35<238 252> 356 37<255 288>
DStem: 112 69 181 174 97 0 144 0 363 257 411 261 308 0 356 0
Fore
395 349 m 1
 399 354 406 362 413 373 c 0
 421 383 429 394 436 408 c 1
 473 386 l 1
 465 371 456 356 443 344 c 0
 429 330 418 320 412 314 c 1
 416 298 416 280 411 261 c 2
 356 0 l 1
 308 0 l 1
 363 257 l 2
 365 267 365 275 366 281 c 1
 360 278 350 272 337 266 c 0
 324 259 314 254 306 252 c 1
 306 249 305 245 305 242 c 0
 305 237 304 232 303 226 c 0
 299 207 290 192 273 180 c 0
 258 167 240 160 220 160 c 0
 201 160 188 165 181 174 c 1
 144 0 l 1
 97 0 l 1
 112 69 l 2
 115 86 116 101 113 114 c 0
 111 127 105 142 96 162 c 0
 88 181 84 197 81 210 c 0
 78 223 79 238 83 257 c 0
 89 286 102 311 121 331 c 0
 142 353 165 367 193 377 c 0
 220 388 249 393 277 393 c 0
 330 393 370 379 395 349 c 1
356 313 m 1
 352 321 343 330 330 340 c 0
 316 350 296 356 269 356 c 0
 252 356 233 353 215 347 c 0
 195 340 176 329 161 314 c 0
 143 298 134 278 129 254 c 0
 126 241 127 225 131 208 c 0
 136 191 137 177 137 167 c 1
 145 203 l 2
 151 232 162 254 181 272 c 0
 200 290 223 299 250 299 c 0
 261 299 269 298 275 296 c 0
 281 293 286 289 290 285 c 0
 294 281 295 279 295 279 c 1
 304 281 314 286 325 293 c 0
 337 299 347 306 356 313 c 1
242 264 m 0
 231 264 221 261 214 254 c 0
 208 247 202 240 200 229 c 0
 198 220 200 212 204 206 c 0
 208 198 216 194 227 194 c 0
 239 194 249 198 256 206 c 0
 263 212 268 220 270 229 c 0
 272 240 271 247 266 254 c 0
 262 261 254 264 242 264 c 0
EndSplineSet
EndChar
StartChar: uni0E29
Encoding: 171 3625 171
OldEncoding: 3625
Width: 454
Flags: W
HStem: 0 41<77 326> 139 35<336 359.25> 246 30<300 313> 250 34<145 156> 354 35<164 177> 364 20G<419 466>
DStem: 169 253 231 319 124 41 172 41 367 141 417 156 353 73 400 73 419 384 466 384 374 175 425 193
Fore
417 156 m 1
 400 73 l 2
 393 43 384 23 371 14 c 0
 359 5 336 0 302 0 c 2
 69 0 l 1
 78 41 l 1
 124 41 l 1
 169 253 l 1
 163 251 156 250 147 250 c 0
 125 250 110 257 101 271 c 0
 92 285 88 301 92 320 c 0
 96 339 106 355 121 368 c 0
 136 382 155 389 177 389 c 0
 191 389 202 385 211 380 c 0
 219 374 227 365 230 355 c 0
 233 345 234 332 231 319 c 2
 172 41 l 1
 311 41 l 2
 325 41 336 43 340 47 c 1
 345 51 350 60 353 73 c 2
 367 141 l 1
 361 140 351 139 336 139 c 0
 307 140 282 146 260 157 c 0
 239 168 232 188 237 215 c 0
 240 229 247 244 261 257 c 0
 273 269 290 276 311 276 c 0
 332 276 346 270 354 259 c 0
 362 246 364 232 361 216 c 0
 357 197 349 183 334 174 c 1
 348 174 361 174 374 175 c 1
 419 384 l 1
 466 384 l 1
 425 193 l 1
 434 199 443 208 454 220 c 0
 464 232 471 249 477 271 c 1
 515 271 l 1
 508 238 496 214 478 198 c 0
 462 183 441 168 417 156 c 1
291 185 m 0
 297 185 303 186 309 190 c 0
 314 193 319 197 322 201 c 0
 325 206 327 210 328 216 c 0
 330 225 329 232 325 237 c 0
 321 243 314 246 304 246 c 0
 294 246 287 243 279 237 c 0
 273 232 269 224 267 216 c 0
 265 208 267 201 270 194 c 0
 275 189 281 185 291 185 c 0
169 354 m 0
 157 354 147 350 141 344 c 0
 134 337 129 329 127 319 c 0
 125 310 126 302 131 295 c 0
 134 287 142 284 154 284 c 0
 165 284 175 287 183 295 c 0
 189 302 195 310 197 319 c 0
 199 329 197 337 193 344 c 0
 188 350 180 354 169 354 c 0
EndSplineSet
EndChar
StartChar: uni0E2A
Encoding: 172 3626 172
OldEncoding: 3626
Width: 395
Flags: W
HStem: -7 34<129 140> 0 21G<289 337> 97 35<151 162> 243 39<198 207> 354 37<247 277>
DStem: 345 264 393 264 317 132 337 0
Fore
153 97 m 0
 143 97 133 94 124 87 c 0
 118 80 112 72 110 62 c 0
 108 53 111 45 114 38 c 0
 120 31 128 27 138 27 c 0
 150 27 160 31 166 38 c 0
 174 45 178 53 180 62 c 0
 182 72 181 80 176 87 c 0
 173 94 165 97 153 97 c 0
343 311 m 1
 342 307 333 296 314 276 c 0
 296 257 285 244 284 241 c 1
 291 231 297 217 302 202 c 0
 307 188 309 174 312 162 c 0
 314 149 316 139 317 132 c 1
 345 264 l 2
 349 281 348 296 343 311 c 1
269 268 m 2
 271 268 280 279 300 301 c 0
 319 322 329 332 329 332 c 1
 315 347 291 354 259 354 c 0
 208 354 164 333 125 293 c 1
 100 316 l 1
 115 336 138 353 170 368 c 0
 200 383 233 391 269 391 c 0
 303 391 332 384 355 371 c 0
 357 371 366 380 380 397 c 0
 395 414 405 423 409 423 c 0
 409 421 413 419 418 416 c 0
 424 411 429 407 434 403 c 0
 438 400 439 397 439 393 c 1
 431 386 421 376 406 363 c 0
 390 350 384 344 384 342 c 0
 396 322 400 296 393 264 c 2
 337 0 l 1
 289 0 l 1
 292 14 292 34 290 61 c 0
 287 87 282 115 275 144 c 0
 268 172 256 195 244 215 c 0
 231 234 215 243 198 243 c 1
 164 240 142 211 131 158 c 0
 128 148 127 137 125 123 c 1
 127 124 131 127 137 129 c 0
 143 131 150 132 160 132 c 0
 182 132 198 125 207 112 c 0
 216 98 218 82 214 63 c 0
 210 43 201 26 186 14 c 0
 171 0 153 -7 131 -7 c 0
 110 -7 94 0 84 15 c 0
 75 29 71 45 73 64 c 0
 74 90 79 123 88 160 c 0
 95 194 110 223 129 244 c 0
 149 267 170 279 199 282 c 1
 223 282 239 279 248 273 c 1
 248 273 250 273 253 272 c 0
 257 271 261 271 264 270 c 0
 267 269 269 268 269 268 c 2
EndSplineSet
EndChar
StartChar: uni0E2B
Encoding: 173 3627 173
OldEncoding: 3627
Width: 454
Flags: W
HStem: 0 21G<115 163 349 396> 250 34<145 156> 335 20G<396.5 407.5> 354 35<163 177 395 412>
DStem: 169 253 231 319 115 0 194 144 388 182 435 182 349 0 396 0
Fore
115 0 m 1
 169 253 l 1
 163 251 156 250 147 250 c 0
 125 250 110 257 101 271 c 0
 92 285 88 301 92 320 c 0
 96 339 106 355 121 368 c 0
 136 382 155 389 177 389 c 0
 191 389 202 385 211 380 c 0
 219 374 227 365 230 355 c 0
 233 345 234 332 231 319 c 2
 194 144 l 1
 213 176 238 201 268 223 c 0
 298 243 321 258 336 264 c 1
 322 277 318 295 323 319 c 0
 327 338 337 354 353 368 c 0
 368 382 388 389 410 389 c 0
 432 389 447 382 457 368 c 0
 466 355 469 339 465 320 c 0
 462 307 456 296 449 285 c 0
 439 273 428 264 415 259 c 1
 421 257 427 250 432 237 c 0
 439 226 440 208 435 182 c 2
 396 0 l 1
 349 0 l 1
 388 182 l 2
 392 203 392 218 386 227 c 0
 380 235 375 241 371 243 c 1
 316 218 271 183 235 139 c 0
 196 95 174 53 166 15 c 2
 163 0 l 1
 115 0 l 1
402 355 m 0
 391 355 382 351 375 345 c 0
 367 338 362 330 360 320 c 0
 358 311 359 303 365 296 c 0
 368 288 377 285 388 285 c 0
 399 285 408 288 416 296 c 0
 422 303 428 311 430 320 c 0
 432 330 430 338 426 345 c 0
 422 351 413 355 402 355 c 0
169 354 m 0
 157 354 147 350 141 344 c 0
 134 337 129 329 127 319 c 0
 125 310 126 302 131 295 c 0
 134 287 142 284 154 284 c 0
 165 284 175 287 183 295 c 0
 189 302 195 310 197 319 c 0
 199 329 197 337 193 344 c 0
 188 350 180 354 169 354 c 0
EndSplineSet
EndChar
StartChar: uni0E2C
Encoding: 174 3628 174
OldEncoding: 3628
Width: 490
Flags: W
HStem: 0 21G<115 163 384 432> 250 34<145 156> 321 33<441 452> 354 35<163 177> 412 31<460 473>
DStem: 169 253 231 319 115 0 189 123 334 271 354 367 387 47 410 123 354 367 334 271 189 123 182 47 452 321 502 330 410 123 432 0
AnchorPoint: "AboveBase" 446.65 450 basechar 0
Fore
115 0 m 1
 169 253 l 1
 163 251 156 250 147 250 c 0
 125 250 110 257 101 271 c 0
 92 285 88 301 92 320 c 0
 96 339 106 355 121 368 c 0
 136 382 155 389 177 389 c 0
 191 389 202 385 211 380 c 0
 219 374 227 365 230 355 c 0
 233 345 234 332 231 319 c 2
 189 123 l 1
 354 367 l 1
 410 123 l 1
 452 321 l 1
 428 321 412 327 402 339 c 0
 393 350 391 365 395 384 c 0
 398 401 407 415 422 426 c 0
 437 437 452 443 471 443 c 0
 488 443 501 437 509 425 c 0
 519 412 520 397 516 377 c 1
 523 380 531 385 542 394 c 0
 553 403 561 416 570 432 c 1
 599 412 l 1
 587 391 572 374 552 359 c 0
 532 345 515 334 502 330 c 1
 432 0 l 1
 384 0 l 2
 383 0 384 3 385 9 c 0
 386 15 386 21 387 29 c 0
 388 37 388 44 387 47 c 2
 334 271 l 1
 182 47 l 2
 177 40 173 32 170 23 c 0
 167 12 165 5 163 0 c 1
 115 0 l 1
169 354 m 0
 157 354 147 350 141 344 c 0
 134 337 129 329 127 319 c 0
 125 310 126 302 131 295 c 0
 134 287 142 284 154 284 c 0
 165 284 175 287 183 295 c 0
 189 302 195 310 197 319 c 0
 199 329 197 337 193 344 c 0
 188 350 180 354 169 354 c 0
449 354 m 0
 459 354 467 357 474 363 c 0
 479 368 483 375 484 383 c 0
 486 391 486 399 483 405 c 0
 478 410 472 412 462 412 c 0
 453 412 445 409 440 403 c 0
 433 398 429 391 427 383 c 0
 426 375 426 368 431 363 c 0
 434 357 440 354 449 354 c 0
EndSplineSet
EndChar
StartChar: uni0E2D
Encoding: 175 3629 175
OldEncoding: 3629
Width: 405
Flags: W
HStem: 0 41<139 283> 137 35<161 172> 241 35<179 193> 355 36<262 283>
DStem: 107 206 141 141 79 73 127 73 355 264 403 264 315 73 363 73
Fore
141 141 m 1
 127 73 l 2
 124 60 124 51 128 47 c 1
 130 43 140 41 155 41 c 2
 273 41 l 2
 288 41 298 43 304 47 c 0
 308 51 312 60 315 73 c 2
 355 264 l 2
 361 293 356 315 340 330 c 0
 324 346 299 355 268 355 c 0
 220 356 174 334 134 293 c 1
 110 316 l 1
 125 336 148 353 179 368 c 0
 209 383 242 391 278 391 c 0
 307 391 332 386 353 376 c 0
 374 366 389 353 399 333 c 0
 407 314 409 292 403 264 c 2
 363 73 l 2
 356 43 346 23 334 14 c 0
 321 5 297 0 264 0 c 2
 146 0 l 2
 122 0 105 2 95 6 c 0
 84 9 78 16 77 26 c 1
 74 36 74 52 79 73 c 2
 107 206 l 2
 109 215 114 225 120 235 c 0
 125 245 135 255 148 263 c 0
 160 271 175 276 193 276 c 0
 215 276 230 269 239 255 c 0
 249 242 251 226 247 207 c 0
 243 188 234 171 218 157 c 0
 204 144 185 137 163 137 c 0
 160 137 152 138 141 141 c 1
170 172 m 0
 181 172 190 175 198 183 c 0
 205 189 210 197 212 206 c 0
 214 216 213 224 208 231 c 0
 204 237 196 241 184 241 c 0
 173 241 163 237 156 232 c 0
 150 225 144 217 142 207 c 0
 140 197 142 189 146 182 c 0
 151 175 160 172 170 172 c 0
EndSplineSet
EndChar
StartChar: uni0E2E
Encoding: 176 3630 176
OldEncoding: 3630
Width: 405
Flags: W
HStem: 0 41<139 283> 99 34<153 168> 203 35<169 187> 257 38<217 260> 356 35<245 283>
DStem: 360 285 411 299 315 73 363 73
Fore
79 73 m 2
 98 167 l 2
 102 183 111 199 125 215 c 0
 138 231 159 238 185 238 c 0
 207 238 222 232 231 218 c 0
 242 205 243 189 239 170 c 0
 235 150 226 134 211 120 c 0
 196 106 177 99 155 99 c 0
 148 99 140 101 133 104 c 1
 127 73 l 2
 124 60 124 51 128 47 c 1
 130 43 140 41 155 41 c 2
 273 41 l 2
 288 41 298 43 304 47 c 0
 308 51 312 60 315 73 c 2
 360 285 l 1
 351 278 334 271 309 266 c 0
 282 260 260 257 239 257 c 0
 205 257 176 262 150 273 c 0
 124 285 114 301 118 321 c 0
 122 337 130 350 148 360 c 0
 165 371 184 379 206 384 c 0
 229 389 248 391 267 391 c 0
 297 391 320 388 339 382 c 0
 357 376 371 368 382 360 c 0
 390 354 395 350 395 349 c 1
 395 349 l 1
 413 364 430 379 444 393 c 1
 471 367 l 1
 458 353 446 340 434 331 c 0
 422 322 413 316 408 313 c 1
 410 311 411 306 411 299 c 1
 363 73 l 2
 356 43 346 23 334 14 c 0
 321 5 297 0 264 0 c 2
 146 0 l 2
 122 0 105 2 95 6 c 0
 84 9 78 16 77 26 c 1
 74 36 74 52 79 73 c 2
247 295 m 0
 266 295 284 297 301 302 c 0
 318 305 331 308 343 313 c 0
 353 318 357 320 357 321 c 0
 354 327 344 334 330 344 c 0
 315 351 291 356 260 356 c 0
 239 356 217 354 198 348 c 0
 179 342 168 334 166 323 c 0
 162 304 190 295 247 295 c 0
161 133 m 0
 173 133 183 137 190 144 c 0
 197 151 202 159 204 168 c 0
 206 179 205 186 200 193 c 0
 197 200 188 203 176 203 c 0
 166 203 157 200 148 193 c 0
 142 188 136 179 134 168 c 0
 132 158 134 150 138 144 c 0
 143 137 151 133 161 133 c 0
EndSplineSet
EndChar
StartChar: uni0E2F
Encoding: 177 3631 177
OldEncoding: 3631
Width: 377
Flags: W
HStem: 173 42<190 209> 254 33<172 181> 356 35<190 204> 364 20G<353 401>
DStem: 325 252 401 384 297 124 345 120
Fore
198 391 m 0
 221 391 237 384 245 372 c 0
 255 358 257 342 253 323 c 0
 249 305 238 289 225 276 c 0
 209 261 193 254 174 254 c 0
 164 254 156 255 150 259 c 0
 144 261 141 263 138 264 c 1
 141 251 148 240 159 229 c 0
 169 219 184 215 202 215 c 0
 223 215 244 223 265 238 c 0
 285 254 303 275 321 301 c 0
 337 327 346 354 353 384 c 1
 401 384 l 1
 345 120 l 2
 336 81 321 52 297 32 c 0
 273 11 240 -5 195 -15 c 1
 192 28 l 1
 228 36 253 47 268 60 c 1
 281 72 291 94 297 124 c 2
 325 252 l 1
 309 226 290 206 267 193 c 0
 243 180 219 173 195 173 c 0
 170 173 148 180 129 194 c 0
 110 209 99 228 97 252 c 0
 96 264 96 278 99 293 c 0
 105 320 116 344 132 363 c 0
 149 382 170 391 198 391 c 0
179 287 m 0
 190 287 200 290 207 297 c 0
 214 304 219 312 221 322 c 0
 223 331 221 339 216 346 c 0
 212 353 204 356 194 356 c 0
 183 356 173 353 167 346 c 0
 159 339 154 331 152 322 c 0
 150 312 152 304 156 297 c 0
 160 290 168 287 179 287 c 0
EndSplineSet
EndChar
StartChar: uni0E30
Encoding: 178 3632 178
OldEncoding: 3632
Width: 313
Flags: W
HStem: 0 43<99 128> 108 31<113 123> 252 43<153 182> 360 31<164 177> 364 20G<306 353>
Fore
182 252 m 0
 147 252 122 259 108 273 c 0
 94 287 89 304 93 324 c 0
 97 342 107 358 122 372 c 0
 137 384 154 391 173 391 c 0
 197 391 213 385 221 373 c 0
 231 360 233 346 229 329 c 0
 226 315 219 302 207 289 c 1
 219 289 238 295 259 306 c 0
 282 319 297 345 306 384 c 1
 353 384 l 1
 347 356 336 331 320 312 c 0
 304 293 285 277 262 267 c 0
 238 257 212 252 182 252 c 0
128 0 m 0
 94 0 69 7 54 21 c 0
 41 36 35 53 39 72 c 0
 43 89 53 105 68 119 c 0
 83 132 101 140 120 139 c 0
 137 139 148 134 157 129 c 0
 166 123 171 115 176 106 c 0
 178 97 177 87 175 77 c 0
 172 62 166 50 154 37 c 1
 166 37 184 43 206 55 c 0
 228 67 244 93 252 132 c 1
 299 132 l 1
 293 104 283 79 267 60 c 0
 251 40 231 25 208 15 c 0
 184 5 158 0 128 0 c 0
113 108 m 0
 103 108 94 105 88 99 c 0
 81 93 77 85 75 76 c 0
 73 68 75 60 79 53 c 0
 83 46 89 43 99 43 c 0
 110 43 120 46 126 52 c 0
 134 59 137 67 139 76 c 0
 141 86 141 94 136 99 c 0
 132 105 124 108 113 108 c 0
167 360 m 0
 157 360 148 357 142 351 c 0
 134 345 131 337 129 328 c 0
 127 320 128 312 133 305 c 0
 136 298 143 295 153 295 c 0
 164 295 173 298 180 305 c 0
 187 311 191 319 193 328 c 0
 197 349 189 360 167 360 c 0
EndSplineSet
EndChar
StartChar: uni0E31
Encoding: 179 3633 179
OldEncoding: 3633
Width: 0
Flags: W
HStem: 454 40<7 19> 580 32<-52 -41>
AnchorPoint: "AboveMark" 85.5625 666 basemark 0
AnchorPoint: "AboveBase" 57.6504 450 mark 0
Fore
-124 538 m 1
 -119 559 -110 577 -95 591 c 0
 -81 606 -64 612 -43 612 c 0
 -21 612 -7 606 3 593 c 0
 12 580 15 565 11 548 c 0
 7 529 -3 513 -21 499 c 1
 -17 498 -10 497 -1 496 c 0
 8 495 15 494 19 494 c 0
 41 495 63 501 84 508 c 0
 107 518 127 529 145 546 c 0
 163 562 177 580 188 601 c 1
 223 582 l 1
 212 559 195 539 173 520 c 0
 149 501 124 486 96 473 c 0
 67 461 38 454 9 454 c 0
 -32 453 -64 461 -89 473 c 0
 -115 487 -127 508 -124 538 c 1
-64 514 m 0
 -54 514 -45 518 -38 523 c 0
 -31 530 -27 538 -25 547 c 0
 -23 557 -24 565 -28 571 c 0
 -33 576 -40 580 -50 580 c 0
 -60 580 -69 576 -76 571 c 0
 -82 565 -88 557 -90 547 c 0
 -91 539 -89 531 -86 524 c 0
 -81 518 -74 514 -64 514 c 0
EndSplineSet
EndChar
StartChar: uni0E32
Encoding: 180 3634 180
OldEncoding: 3634
Width: 334
Flags: W
HStem: 0 21G<228 276> 356 35<207 230>
DStem: 288 280 335 278 228 0 276 0
Fore
80 306 m 1
 100 333 121 355 145 370 c 0
 167 384 194 391 228 391 c 0
 267 391 297 381 317 362 c 0
 336 342 343 314 335 278 c 2
 276 0 l 1
 228 0 l 1
 288 280 l 2
 293 304 289 324 278 337 c 0
 264 350 246 356 221 356 c 0
 199 356 178 350 159 338 c 0
 139 325 123 308 111 289 c 1
 106 293 101 295 96 298 c 0
 91 301 84 303 80 306 c 1
EndSplineSet
EndChar
StartChar: uni0E33
Encoding: 181 3635 181
OldEncoding: 3635
Width: 334
Flags: W
HStem: 0 21G<228 276> 356 35<211 230> 455 31<13 23> 563 30<35 46>
DStem: 288 280 335 278 228 0 276 0
Fore
15 455 m 0
 -7 455 -23 462 -32 476 c 0
 -42 489 -46 505 -42 524 c 0
 -37 544 -28 559 -12 573 c 0
 3 586 21 593 44 593 c 0
 65 593 81 586 90 573 c 0
 100 559 102 544 97 524 c 0
 93 505 85 489 69 476 c 0
 54 462 36 455 15 455 c 0
80 306 m 1
 100 333 121 355 145 370 c 0
 167 384 194 391 228 391 c 0
 267 391 297 381 317 362 c 0
 336 342 343 314 335 278 c 2
 276 0 l 1
 228 0 l 1
 288 280 l 2
 293 304 289 324 278 337 c 0
 264 350 246 356 221 356 c 0
 199 356 178 350 159 338 c 0
 139 325 123 308 111 289 c 1
 106 293 101 295 96 298 c 0
 91 301 84 303 80 306 c 1
38 563 m 0
 25 563 15 559 6 551 c 0
 -2 544 -7 534 -10 524 c 0
 -12 514 -11 505 -5 497 c 0
 -0 489 8 486 21 486 c 0
 28 486 36 488 43 492 c 0
 49 495 54 501 59 506 c 0
 64 512 66 519 67 524 c 0
 70 534 69 544 63 551 c 0
 58 559 50 563 38 563 c 0
EndSplineSet
MultipleSubs: 0 1 'ccmp' uni0E4D uni0E32
EndChar
StartChar: uni0E34
Encoding: 182 3636 182
OldEncoding: 3636
Width: 0
Flags: W
HStem: 488 34<-168 -114> 575 35<-87 -66>
AnchorPoint: "AboveMark" 61.5625 666 basemark 0
AnchorPoint: "AboveBase" 59.6504 450 mark 0
Fore
-66 610 m 5
 -17 603 14 584 30 553 c 4
 43 521 51 487 51 450 c 5
 39 454 20 461 -4 469 c 4
 -29 477 -56 481 -86 485 c 4
 -105 487 -126 488 -147 488 c 4
 -172 488 -195 487 -215 486 c 4
 -235 484 -251 481 -259 480 c 5
 -250 503 -236 524 -215 545 c 4
 -197 565 -174 581 -148 592 c 4
 -121 605 -94 610 -66 610 c 5
-83 575 m 5
 -107 575 -128 570 -150 557 c 4
 -171 546 -186 533 -192 519 c 5
 -185 520 -179 520 -168 521 c 4
 -158 522 -142 522 -123 522 c 4
 -106 522 -94 522 -85 521 c 4
 -56 519 -35 514 -19 507 c 4
 -3 502 5 496 11 493 c 5
 -1 540 -31 567 -83 575 c 5
EndSplineSet
EndChar
StartChar: uni0E35
Encoding: 183 3637 183
OldEncoding: 3637
Width: 0
Flags: W
HStem: 488 34<-168 -113> 575 35<-87 -65>
DStem: 38 655 81 655 19 566 48 498
AnchorPoint: "AboveMark" 61.5625 666 basemark 0
AnchorPoint: "AboveBase" 37.6504 450 mark 0
Fore
19 566 m 1
 38 655 l 1
 81 655 l 1
 48 498 l 1
 48 498 l 1
 48 498 48 494 49 486 c 0
 50 477 51 464 51 450 c 5
 40 454 20 461 -4 469 c 0
 -29 477 -56 481 -85 485 c 0
 -105 487 -125 488 -147 488 c 0
 -171 488 -194 487 -214 486 c 0
 -235 484 -250 481 -258 480 c 1
 -250 503 -236 524 -215 545 c 0
 -196 565 -174 581 -147 593 c 0
 -120 605 -93 610 -65 610 c 1
 -48 608 -33 603 -20 597 c 0
 -7 591 1 584 8 579 c 0
 14 573 17 568 19 566 c 1
-82 575 m 1
 -99 575 -114 572 -129 566 c 0
 -144 560 -156 554 -167 545 c 0
 -178 537 -186 528 -191 519 c 1
 -185 520 -178 520 -168 521 c 0
 -158 522 -142 522 -123 522 c 0
 -106 522 -93 522 -84 521 c 0
 -56 519 -34 514 -18 507 c 0
 -2 502 6 496 12 493 c 1
 8 512 -1 530 -15 546 c 0
 -29 562 -49 572 -82 575 c 1
EndSplineSet
EndChar
StartChar: uni0E36
Encoding: 184 3638 184
OldEncoding: 3638
Width: 0
Flags: W
HStem: 488 34<-168 -114> 575 37<-100 -83> 632 30<28 41>
AnchorPoint: "AboveMark" 39.5625 666 basemark 0
AnchorPoint: "AboveBase" 59.6504 450 mark 0
Fore
88 601 m 4
 85 586 79 574 69 563 c 4
 58 551 47 545 33 542 c 5
 38 534 41 523 46 506 c 4
 50 489 51 470 51 450 c 5
 39 454 20 461 -4 469 c 4
 -29 477 -56 481 -86 485 c 4
 -105 487 -126 488 -147 488 c 4
 -172 488 -195 487 -215 486 c 4
 -235 484 -251 481 -259 480 c 5
 -249 504 -235 527 -215 548 c 4
 -196 568 -173 584 -150 596 c 4
 -127 607 -105 612 -85 612 c 4
 -77 612 -68 611 -60 610 c 4
 -53 609 -46 607 -41 606 c 4
 -36 603 -34 602 -34 602 c 5
 -31 617 -22 631 -8 643 c 4
 4 655 21 662 39 662 c 4
 58 662 73 657 80 645 c 4
 88 633 90 618 88 601 c 4
33 632 m 4
 23 632 16 629 11 624 c 4
 3 618 -0 611 -2 603 c 4
 -3 597 -3 590 2 584 c 4
 6 579 12 575 21 575 c 4
 29 575 37 579 44 584 c 4
 50 590 54 597 55 603 c 4
 57 611 56 618 54 624 c 4
 49 629 42 632 33 632 c 4
-83 575 m 5
 -100 575 -114 572 -130 566 c 4
 -145 560 -157 554 -168 545 c 4
 -179 537 -187 528 -192 519 c 5
 -185 520 -179 520 -168 521 c 4
 -158 522 -142 522 -123 522 c 4
 -106 522 -94 522 -85 521 c 4
 -56 519 -35 514 -19 507 c 4
 -3 502 5 496 11 493 c 5
 7 512 -2 529 -15 545 c 4
 -29 560 -51 571 -83 575 c 5
EndSplineSet
EndChar
StartChar: uni0E37
Encoding: 185 3639 185
OldEncoding: 3639
Width: 0
Flags: W
HStem: 488 34<-168 -113> 575 37<-87 -81>
DStem: -47 655 -4 655 -57 609 -16 596 38 655 81 655 19 565 48 497
AnchorPoint: "AboveMark" 19.5625 666 basemark 0
AnchorPoint: "AboveBase" 37.6504 450 mark 0
Fore
48 497 m 1
 49 497 49 481 51 450 c 5
 40 454 20 461 -4 469 c 0
 -29 477 -56 481 -85 485 c 0
 -105 487 -125 488 -147 488 c 0
 -171 488 -194 487 -214 486 c 0
 -235 484 -250 481 -258 480 c 1
 -250 505 -233 528 -215 547 c 0
 -194 567 -174 583 -151 594 c 0
 -126 607 -102 612 -81 612 c 0
 -72 612 -64 611 -57 609 c 1
 -47 655 l 1
 -4 655 l 1
 -16 596 l 1
 0 589 11 579 19 565 c 1
 38 655 l 1
 81 655 l 1
 48 497 l 1
-82 575 m 1
 -106 575 -127 570 -149 557 c 0
 -171 546 -185 533 -191 519 c 1
 -185 520 -178 520 -168 521 c 0
 -158 522 -142 522 -123 522 c 0
 -106 522 -93 522 -84 521 c 0
 -56 519 -34 514 -18 507 c 0
 -2 502 6 496 12 493 c 1
 -0 540 -30 567 -82 575 c 1
EndSplineSet
EndChar
StartChar: uni0E38
Encoding: 186 3640 186
OldEncoding: 3640
Width: 0
Flags: W
HStem: -186 35<-170 -158> -82 35<-147 -136>
DStem: -145 -183 -83 -115 -166 -282 -119 -282
AnchorPoint: "BelowBase" -68.9902 -47 mark 0
Fore
-119 -282 m 1
 -166 -282 l 1
 -145 -183 l 1
 -152 -185 -161 -186 -170 -186 c 0
 -191 -186 -206 -180 -215 -166 c 0
 -225 -153 -227 -137 -223 -118 c 0
 -219 -98 -209 -82 -194 -68 c 0
 -178 -54 -160 -47 -138 -47 c 4
 -118 -47 -103 -53 -93 -66 c 0
 -83 -77 -79 -94 -83 -115 c 2
 -119 -282 l 1
-160 -151 m 0
 -150 -151 -139 -148 -132 -141 c 0
 -125 -136 -120 -128 -118 -118 c 0
 -116 -107 -117 -99 -122 -93 c 0
 -125 -86 -133 -82 -145 -82 c 0
 -156 -82 -166 -86 -175 -94 c 0
 -181 -101 -187 -108 -189 -118 c 0
 -191 -127 -188 -134 -184 -141 c 0
 -178 -148 -170 -151 -160 -151 c 0
EndSplineSet
EndChar
StartChar: uni0E39
Encoding: 187 3641 187
OldEncoding: 3641
Width: 0
Flags: W
HStem: -293 39<-199 -186> -186 35<-276 -260> -82 35<-253 -242>
DStem: -117 -52 -70 -52 -154 -226 -107 -226
AnchorPoint: "BelowBase" -68.9902 -47 mark 0
Fore
-260 -226 m 2
 -251 -183 l 1
 -258 -185 -267 -186 -275 -186 c 0
 -297 -186 -310 -180 -320 -165 c 0
 -329 -150 -332 -134 -329 -116 c 0
 -325 -98 -314 -82 -299 -68 c 0
 -283 -54 -265 -47 -244 -47 c 0
 -225 -47 -209 -53 -199 -66 c 0
 -189 -77 -185 -94 -189 -115 c 2
 -213 -226 l 2
 -215 -234 -213 -241 -208 -246 c 0
 -204 -252 -198 -254 -190 -254 c 0
 -182 -254 -175 -252 -167 -246 c 0
 -161 -241 -156 -234 -154 -226 c 2
 -117 -52 l 1
 -70 -52 l 1
 -107 -226 l 2
 -111 -246 -123 -262 -139 -275 c 0
 -157 -287 -176 -293 -198 -293 c 0
 -218 -293 -235 -286 -247 -273 c 0
 -260 -261 -264 -245 -260 -226 c 2
-266 -151 m 0
 -255 -151 -245 -148 -238 -141 c 0
 -230 -134 -226 -127 -224 -118 c 0
 -222 -108 -223 -101 -228 -94 c 0
 -232 -86 -240 -82 -251 -82 c 0
 -262 -82 -272 -86 -280 -93 c 0
 -287 -99 -292 -107 -294 -118 c 0
 -296 -127 -294 -134 -289 -141 c 0
 -284 -148 -276 -151 -266 -151 c 0
EndSplineSet
EndChar
StartChar: uni0E3A
Encoding: 188 3642 188
OldEncoding: 3642
Width: 0
Flags: W
AnchorPoint: "BelowBase" -68.9902 -47 mark 0
Fore
-97 -70 m 0
 -86 -70 -78 -73 -73 -80 c 0
 -70 -88 -67 -96 -70 -106 c 0
 -71 -115 -77 -123 -84 -131 c 0
 -91 -138 -101 -141 -112 -141 c 0
 -124 -141 -132 -138 -136 -131 c 0
 -141 -123 -143 -115 -142 -106 c 0
 -140 -97 -134 -89 -127 -81 c 0
 -119 -75 -109 -71 -97 -70 c 0
EndSplineSet
EndChar
StartChar: uni0E3F
Encoding: 189 3647 191
OldEncoding: 3647
Width: 464
VWidth: 2048
Flags: W
HStem: 0 52<125 190 253 314> 237 53<176 240 299 318> 460 52<171 288 340 353> 460 114<312 361.991>
DStem: 171 512 212 460 62 0 176 290 171 512 164 237 62 0 125 52 190 0 242 0 175 -69 227 -69 240 237 292 237 201 52 253 52 288 460 340 460 252 290 304 290 312 574 364 574 299 512 351 512
Fore
252 290 m 5
 288 460 l 5
 212 460 l 5
 176 290 l 5
 252 290 l 5
201 52 m 5
 240 237 l 5
 164 237 l 5
 125 52 l 5
 201 52 l 5
292 237 m 5
 253 52 l 5
 295 52 l 6
 357 52 394 84 407 147 c 4
 415 184 407 209 384 223 c 4
 368 233 338 237 299 237 c 6
 292 237 l 5
340 460 m 5
 304 290 l 5
 316 290 l 6
 343 290 367 297 388 310 c 4
 411 325 426 345 432 371 c 4
 445 431 413 460 340 460 c 5
312 574 m 5
 364 574 l 5
 351 512 l 5
 386 512 l 6
 415 512 439 503 460 485 c 4
 488 461 497 427 487 383 c 4
 477 333 444 296 390 271 c 5
 418 255 l 6
 456 235 469 197 458 144 c 4
 448 98 424 61 387 33 c 4
 358 11 331 0 305 0 c 6
 242 0 l 5
 227 -69 l 5
 175 -69 l 5
 190 0 l 5
 62 0 l 5
 171 512 l 5
 299 512 l 5
 312 574 l 5
EndSplineSet
EndChar
StartChar: uni0E40
Encoding: 190 3648 192
OldEncoding: 3648
Width: 226
Flags: W
HStem: -7 35<130 145> 97 35<146 164> 364 20G<145 193>
DStem: 145 384 193 384 76 61 138 129
Fore
145 384 m 1
 193 384 l 1
 138 129 l 1
 144 131 152 132 162 132 c 0
 184 132 200 125 209 112 c 0
 218 98 219 81 215 62 c 0
 211 43 203 27 187 14 c 0
 172 0 154 -7 132 -7 c 0
 112 -7 97 -1 87 11 c 0
 77 23 72 40 76 61 c 2
 145 384 l 1
154 97 m 0
 144 97 134 94 126 87 c 0
 119 80 113 72 111 63 c 0
 109 53 112 45 115 38 c 0
 121 32 129 28 139 28 c 0
 151 28 161 32 167 38 c 0
 175 45 179 53 181 63 c 0
 183 72 182 80 177 87 c 0
 173 94 165 97 154 97 c 0
EndSplineSet
EndChar
StartChar: uni0E41
Encoding: 191 3649 193
OldEncoding: 3649
Width: 407
Flags: W
HStem: -7 35<130 145 311 327> 97 35<146 164 329 345> 364 20G<145 193 327 375>
DStem: 145 384 193 384 76 61 138 129 327 384 375 384 258 61 320 129
Fore
145 384 m 1
 193 384 l 1
 138 129 l 1
 144 131 152 132 162 132 c 0
 184 132 200 125 209 112 c 0
 218 98 219 81 215 62 c 0
 211 43 203 27 187 14 c 0
 172 0 154 -7 132 -7 c 0
 112 -7 97 -1 87 11 c 0
 77 23 72 40 76 61 c 2
 145 384 l 1
327 384 m 1
 375 384 l 1
 320 129 l 1
 327 131 335 132 343 132 c 0
 365 132 381 125 390 112 c 0
 400 97 401 81 397 62 c 0
 393 44 383 28 368 15 c 0
 353 0 335 -7 313 -7 c 0
 294 -7 279 -1 269 11 c 0
 259 23 254 40 258 61 c 2
 327 384 l 1
335 97 m 0
 325 97 315 94 307 87 c 0
 299 79 294 71 292 63 c 0
 290 54 292 46 297 40 c 0
 302 32 310 28 320 28 c 0
 331 28 341 32 350 40 c 0
 357 46 361 54 363 63 c 0
 365 71 364 79 358 87 c 0
 353 94 345 97 335 97 c 0
154 97 m 0
 144 97 134 94 126 87 c 0
 119 80 113 72 111 63 c 0
 109 53 112 45 115 38 c 0
 121 32 129 28 139 28 c 0
 151 28 161 32 167 38 c 0
 175 45 179 53 181 63 c 0
 183 72 182 80 177 87 c 0
 173 94 165 97 154 97 c 0
EndSplineSet
EndChar
StartChar: uni0E42
Encoding: 192 3650 194
OldEncoding: 3650
Width: 242
Flags: W
HStem: -7 35<161 172> 97 35<177 195> 632 39<324 335> 660 39<217 238>
DStem: 205 521 252 523 107 61 168 129
Fore
107 61 m 2
 205 521 l 2
 209 541 210 556 208 566 c 0
 206 575 197 584 184 594 c 0
 170 605 143 619 103 638 c 1
 114 649 132 662 156 677 c 0
 181 692 208 699 236 699 c 0
 252 699 270 695 290 686 c 0
 309 676 324 671 333 671 c 0
 344 671 358 676 374 686 c 1
 386 653 l 1
 364 638 344 632 325 632 c 0
 313 632 297 637 276 646 c 0
 255 657 238 660 227 660 c 0
 216 660 206 658 197 654 c 0
 188 651 183 647 179 645 c 1
 208 628 226 617 235 611 c 0
 244 605 250 594 254 581 c 0
 259 567 257 548 252 523 c 2
 168 129 l 1
 175 131 183 132 193 132 c 0
 214 132 230 125 239 112 c 0
 248 98 250 81 246 62 c 0
 242 43 233 27 218 14 c 0
 202 0 184 -7 163 -7 c 0
 144 -7 129 -1 118 11 c 0
 108 23 103 40 107 61 c 2
185 97 m 0
 175 97 165 94 157 87 c 0
 149 80 144 72 142 63 c 0
 140 53 142 45 146 38 c 0
 151 32 159 28 170 28 c 0
 181 28 191 32 198 38 c 0
 205 45 210 53 212 63 c 0
 214 72 212 80 207 87 c 0
 203 94 195 97 185 97 c 0
EndSplineSet
EndChar
StartChar: uni0E43
Encoding: 193 3651 195
OldEncoding: 3651
Width: 242
Flags: W
HStem: -7 35<161 176> 97 35<183 195> 532 27<129 144> 614 27<147 159> 669 33<184 202>
DStem: 225 614 271 612 107 61 168 129
Fore
107 61 m 2
 225 614 l 2
 232 651 222 669 194 669 c 0
 179 669 169 666 161 659 c 0
 154 651 149 645 147 641 c 1
 167 641 181 635 191 625 c 0
 199 615 201 602 198 586 c 0
 194 570 186 557 174 547 c 0
 161 537 148 532 133 532 c 0
 121 532 112 536 103 542 c 0
 93 548 90 558 88 571 c 0
 88 582 89 594 92 607 c 0
 98 634 111 657 128 675 c 0
 147 693 172 702 200 702 c 0
 227 702 247 694 260 679 c 0
 274 663 277 641 271 612 c 2
 168 129 l 1
 175 131 183 132 193 132 c 0
 214 132 230 125 239 112 c 0
 248 98 250 81 246 62 c 0
 242 43 233 27 218 14 c 0
 202 0 184 -7 163 -7 c 0
 144 -7 129 -1 118 11 c 0
 108 23 103 40 107 61 c 2
150 614 m 0
 141 614 133 611 129 606 c 1
 122 600 118 594 117 586 c 0
 115 579 116 573 121 567 c 1
 122 562 129 559 138 559 c 0
 147 559 154 562 161 567 c 0
 166 573 169 579 171 586 c 0
 172 593 172 600 169 606 c 0
 165 611 159 614 150 614 c 0
185 97 m 0
 175 97 165 94 157 87 c 0
 149 80 144 72 142 63 c 0
 140 53 142 45 146 38 c 0
 151 32 159 28 170 28 c 0
 181 28 191 32 198 38 c 0
 205 45 210 53 212 63 c 0
 214 72 212 80 207 87 c 0
 203 94 195 97 185 97 c 0
EndSplineSet
EndChar
StartChar: uni0E44
Encoding: 194 3652 196
OldEncoding: 3652
Width: 282
Flags: W
HStem: -7 35<200 211> 97 35<222 234> 657 42<270 286>
DStem: 127 647 161 660 134 508 168 530 230 662 262 651 168 530 190 506 272 647 320 651 147 61 209 129
Fore
147 61 m 2
 272 647 l 2
 273 653 273 657 270 657 c 0
 267 657 264 654 262 651 c 2
 190 506 l 2
 181 487 170 478 156 478 c 0
 143 478 136 488 134 508 c 2
 127 647 l 2
 125 663 120 672 111 676 c 1
 140 702 l 1
 154 696 161 683 161 660 c 2
 168 530 l 1
 230 662 l 1
 242 687 260 699 286 699 c 0
 299 699 310 695 316 687 c 0
 321 679 324 667 320 651 c 2
 209 129 l 1
 216 131 223 132 234 132 c 0
 255 132 271 125 281 112 c 0
 289 98 290 82 286 63 c 0
 282 44 274 27 258 14 c 0
 243 0 224 -7 202 -7 c 0
 183 -7 168 -1 158 11 c 0
 149 23 143 40 147 61 c 2
224 97 m 0
 214 97 205 94 197 87 c 0
 189 79 183 71 181 63 c 0
 179 54 182 46 188 40 c 0
 191 32 199 28 209 28 c 0
 221 28 231 32 237 38 c 0
 245 45 249 53 251 63 c 0
 253 72 252 80 247 87 c 0
 243 94 235 97 224 97 c 0
EndSplineSet
EndChar
StartChar: uni0E45
Encoding: 195 3653 197
OldEncoding: 3653
Width: 334
Flags: W
HStem: 356 35<207 235>
DStem: 288 280 335 278 185 -200 233 -200
Fore
80 306 m 1
 100 333 121 355 145 370 c 0
 167 384 194 391 228 391 c 0
 267 391 297 381 317 362 c 0
 336 342 343 314 335 278 c 2
 233 -200 l 1
 185 -200 l 1
 288 280 l 2
 293 304 289 324 278 337 c 0
 264 350 246 356 221 356 c 0
 199 356 178 350 159 338 c 0
 139 325 123 308 111 289 c 1
 106 293 101 295 96 298 c 0
 91 301 84 303 80 306 c 1
EndSplineSet
EndChar
StartChar: uni0E46
Encoding: 196 3654 198
OldEncoding: 3654
Width: 449
Flags: W
HStem: 163 32<240 253> 257 30<260 270>
DStem: 402 271 450 278 340 -17 387 -21
Fore
387 391 m 1
 406 388 422 380 434 370 c 0
 444 359 451 346 453 331 c 0
 456 316 454 298 450 278 c 2
 387 -21 l 2
 381 -47 371 -70 361 -87 c 0
 349 -104 332 -119 313 -129 c 0
 293 -140 267 -149 238 -156 c 1
 235 -113 l 1
 271 -105 295 -94 310 -81 c 0
 323 -69 334 -47 340 -17 c 2
 402 271 l 2
 406 293 407 310 405 322 c 0
 403 333 394 344 379 351 c 1
 328 323 l 1
 328 323 l 1
 328 324 322 327 311 333 c 0
 298 340 289 347 281 351 c 1
 262 345 248 334 238 320 c 0
 227 305 219 288 215 267 c 1
 219 270 225 273 234 279 c 0
 244 285 254 287 268 287 c 0
 287 287 302 281 310 269 c 0
 318 257 321 243 317 226 c 0
 313 209 304 194 292 182 c 0
 278 170 261 163 242 163 c 0
 223 163 208 168 196 179 c 0
 185 189 177 202 175 219 c 0
 171 236 172 254 177 276 c 0
 183 304 197 329 218 350 c 0
 239 372 263 385 290 391 c 1
 298 386 308 381 319 374 c 0
 330 367 336 364 336 363 c 1
 387 391 l 1
262 257 m 0
 253 257 245 253 238 247 c 0
 231 242 226 234 224 226 c 0
 222 218 224 211 228 206 c 0
 232 199 238 195 248 195 c 0
 258 195 267 199 275 205 c 0
 281 210 284 218 286 226 c 0
 288 235 288 243 284 249 c 0
 279 254 272 257 262 257 c 0
EndSplineSet
EndChar
StartChar: uni0E47
Encoding: 197 3655 199
OldEncoding: 3655
Width: 0
Flags: W
HStem: 450 27<-19 -3> 507 37<-116 -106> 531 25<-5 10> 582 34<-44 -9>
AnchorPoint: "AboveMark" -96.3496 450 mark 0
AnchorPoint: "AboveBase" 57.6504 450 mark 0
Fore
-16 450 m 0xb0
 -28 450 -38 452 -45 458 c 0
 -55 463 -63 470 -71 479 c 0
 -80 489 -88 496 -95 501 c 0
 -102 505 -108 507 -116 507 c 0xd0
 -133 506 -146 498 -156 484 c 0
 -166 469 -172 458 -175 447 c 1
 -188 454 -198 468 -204 487 c 0
 -212 506 -213 525 -209 545 c 4
 -207 554 -203 563 -198 573 c 0
 -178 605 -145 620 -95 620 c 0
 -83 620 -73 620 -65 619 c 0
 -48 617 -31 616 -16 616 c 0
 6 616 24 619 35 627 c 0
 47 634 56 647 60 668 c 1
 97 668 l 1
 90 637 77 615 57 602 c 0
 36 589 6 582 -32 582 c 0
 -48 582 -66 583 -85 585 c 1
 -111 585 -131 583 -145 577 c 0
 -159 572 -169 562 -172 547 c 0
 -174 537 -174 524 -170 510 c 1
 -167 515 -159 522 -148 531 c 0xb0
 -138 539 -125 544 -108 544 c 0xd0
 -94 544 -83 540 -74 534 c 0
 -64 528 -57 522 -54 518 c 1
 -47 530 -40 539 -30 546 c 0
 -19 553 -7 556 6 556 c 0
 23 556 35 551 43 541 c 0
 50 531 51 519 48 504 c 0
 45 489 38 476 27 466 c 0
 15 455 1 450 -16 450 c 0xb0
-11 477 m 0
 -3 477 5 479 10 485 c 0
 16 490 20 497 21 504 c 0
 23 512 22 518 18 523 c 0
 15 529 9 531 1 531 c 0xb0
 -7 531 -15 529 -20 523 c 0
 -26 518 -29 512 -31 504 c 0
 -32 497 -31 492 -28 486 c 0
 -25 480 -19 477 -11 477 c 0
EndSplineSet
EndChar
StartChar: uni0E48
Encoding: 198 3656 200
OldEncoding: 3656
Width: 0
Flags: W
DStem: 73 832 116 832 45 699 88 699
AnchorPoint: "AboveMark" 58.5625 666 mark 0
Fore
45 699 m 1
 73 832 l 1
 116 832 l 1
 88 699 l 1
 45 699 l 1
EndSplineSet
Substitution: 0 65534 'loww' uni0E48.low
Substitution: 0 65534 'amni' uni0E4D
EndChar
StartChar: uni0E49
Encoding: 199 3657 201
OldEncoding: 3657
Width: 0
Flags: W
HStem: 666 32<11 33> 716 29<-15 -4> 800 29<0 16>
AnchorPoint: "AboveMark" 44.5625 666 mark 0
Fore
65 770 m 0
 60 750 53 734 45 722 c 0
 36 710 28 702 23 698 c 1
 54 698 82 706 105 723 c 0
 121 736 133 749 140 766 c 0
 148 783 154 802 159 825 c 1
 201 825 l 1
 186 754 152 707 99 684 c 0
 73 671 44 666 11 666 c 0
 -3 666 -15 667 -25 668 c 0
 -35 670 -42 671 -46 672 c 1
 -41 675 -33 679 -24 686 c 0
 -14 694 -6 704 -0 719 c 1
 -1 719 -2 719 -4 718 c 0
 -8 716 -12 716 -15 716 c 0
 -19 716 -22 718 -29 719 c 0
 -53 727 -62 745 -56 773 c 0
 -54 783 -49 793 -42 801 c 0
 -36 810 -27 817 -17 823 c 0
 -8 827 2 829 14 829 c 0
 34 829 48 824 56 811 c 0
 65 800 68 786 65 770 c 0
8 800 m 0
 -1 800 -7 798 -14 792 c 0
 -19 786 -23 781 -25 773 c 0
 -26 765 -25 759 -22 754 c 0
 -18 748 -13 745 -4 745 c 0
 4 745 12 748 19 754 c 0
 25 758 30 765 31 773 c 0
 33 781 31 786 27 792 c 0
 24 798 17 800 8 800 c 0
EndSplineSet
Substitution: 0 65534 'loww' uni0E49.low
Substitution: 0 65534 'amni' uni0E4D
EndChar
StartChar: uni0E4A
Encoding: 200 3658 202
OldEncoding: 3658
Width: 0
Flags: W
HStem: 676 20<-67 -58> 746 20<-60 -45> 794 31<-43 -29 35 47>
AnchorPoint: "AboveMark" -10.4375 666 mark 0
Fore
-66 676 m 0
 -79 677 -88 680 -97 688 c 0
 -105 696 -110 706 -111 719 c 0
 -114 731 -113 744 -110 756 c 0
 -105 776 -94 793 -82 806 c 0
 -69 818 -53 825 -35 825 c 0
 -27 825 -20 824 -14 822 c 0
 -9 818 -4 816 -1 812 c 0
 1 809 4 807 4 806 c 1
 7 809 13 812 20 818 c 0
 28 823 37 825 47 825 c 0
 65 825 78 818 83 806 c 0
 89 793 89 777 85 756 c 0
 81 740 74 724 61 707 c 1
 66 710 74 713 83 719 c 0
 93 724 102 732 107 740 c 0
 119 755 128 770 131 786 c 0
 133 796 134 806 133 816 c 1
 169 827 l 1
 169 820 169 811 167 799 c 0
 160 768 147 742 127 721 c 0
 102 693 60 679 5 679 c 1
 13 687 21 697 31 707 c 0
 41 719 49 732 53 749 c 0
 56 763 57 774 54 782 c 0
 53 790 46 794 35 794 c 0
 27 794 20 792 13 786 c 0
 7 781 1 776 -1 773 c 1
 -1 776 -5 781 -10 786 c 0
 -16 792 -24 794 -36 794 c 0
 -45 794 -53 791 -60 785 c 0
 -67 779 -71 770 -74 759 c 1
 -72 760 -69 762 -64 764 c 0
 -60 765 -54 766 -47 766 c 0
 -32 766 -23 762 -17 754 c 0
 -12 745 -9 733 -12 719 c 0
 -14 709 -22 698 -33 689 c 0
 -43 680 -54 676 -66 676 c 0
-51 746 m 0
 -59 746 -67 744 -71 738 c 0
 -77 732 -80 727 -82 721 c 0
 -83 714 -82 709 -78 704 c 0
 -77 698 -70 696 -62 696 c 0
 -54 696 -47 698 -41 704 c 0
 -38 707 -33 713 -32 721 c 0
 -30 728 -32 733 -34 739 c 0
 -37 744 -43 746 -51 746 c 0
EndSplineSet
Substitution: 0 65534 'loww' uni0E4A.low
Substitution: 0 65534 'amni' uni0E4D
EndChar
StartChar: uni0E4B
Encoding: 201 3659 203
OldEncoding: 3659
Width: 0
Flags: W
HStem: 734 39<-11 52 103 165>
DStem: 52 734 95 734 40 679 83 679 72 829 115 829 60 773 103 773
AnchorPoint: "AboveMark" 58.5625 666 mark 0
Fore
52 734 m 1
 -18 734 l 1
 -10 773 l 1
 60 773 l 1
 72 829 l 1
 115 829 l 1
 103 773 l 1
 173 773 l 1
 165 734 l 5
 95 734 l 1
 83 679 l 1
 40 679 l 1
 52 734 l 1
EndSplineSet
Substitution: 0 65534 'loww' uni0E4B.low
Substitution: 0 65534 'amni' uni0E4D
EndChar
StartChar: uni0E4C
Encoding: 202 3660 204
OldEncoding: 3660
Width: 0
Flags: W
HStem: 632 30<36 47>
AnchorPoint: "AboveMark" 36.3359 632 mark 0
Fore
13 713 m 0
 14 716 20 722 27 728 c 0
 35 733 45 736 59 737 c 1
 74 736 85 731 93 721 c 0
 100 711 103 699 100 685 c 0
 97 671 89 659 78 649 c 0
 67 638 53 632 36 632 c 0
 13 631 -3 638 -13 651 c 0
 -23 663 -27 679 -22 701 c 0
 -18 718 -11 732 -0 746 c 0
 10 758 22 768 38 775 c 0
 54 781 74 785 100 786 c 0
 126 788 145 791 158 796 c 0
 170 799 178 810 182 827 c 1
 216 827 l 1
 212 810 205 798 193 788 c 0
 183 777 172 771 160 767 c 0
 145 762 125 758 100 757 c 0
 76 756 57 753 44 748 c 0
 30 742 19 731 13 713 c 0
53 710 m 0
 37 710 27 702 24 686 c 0
 23 680 23 675 27 670 c 0
 29 664 35 662 43 662 c 0
 49 662 55 664 62 669 c 1
 67 675 72 680 73 686 c 0
 74 693 72 698 69 703 c 0
 65 707 61 710 53 710 c 0
EndSplineSet
Substitution: 0 65534 'loww' uni0E4C.low
EndChar
StartChar: uni0E4D
Encoding: 203 3661 205
OldEncoding: 3661
Width: 0
Flags: W
HStem: 432 31<-32 -22> 539 32<-9 1>
AnchorPoint: "AboveMark" -30.6006 430 mark 0
AnchorPoint: "AboveMark" 15.3115 646 basemark 0
AnchorPoint: "AboveBase" 57.6504 450 mark 0
Fore
-30 432 m 0
 -52 432 -67 438 -77 453 c 0
 -86 467 -89 483 -85 502 c 0
 -81 520 -71 536 -56 549 c 0
 -40 564 -23 571 -1 571 c 0
 20 571 36 564 46 550 c 0
 55 537 58 521 54 502 c 0
 50 483 40 466 25 452 c 0
 9 438 -9 432 -30 432 c 0
-7 539 m 0
 -19 539 -30 536 -38 528 c 0
 -46 520 -51 512 -53 502 c 0
 -55 492 -54 483 -49 475 c 0
 -45 467 -36 463 -24 463 c 0
 -12 463 -2 467 7 475 c 0
 16 483 21 492 23 502 c 0
 24 507 24 513 22 519 c 0
 19 524 17 530 11 533 c 0
 7 537 1 539 -7 539 c 0
EndSplineSet
Substitution: 0 65534 'G006' uni0E4B
Substitution: 0 65534 'G005' uni0E4A
Substitution: 0 65534 'G004' uni0E49
Substitution: 0 65534 'G003' uni0E48
EndChar
StartChar: uni0E4E
Encoding: 204 3662 206
OldEncoding: 3662
Width: 0
VWidth: 2048
Flags: W
HStem: 468 27<-113 -90> 593 44<-66 -50> 670 39<67 82>
AnchorPoint: "AboveBase" 57.6504 450 mark 0
Fore
128 640 m 2
 127 641 l 2
 124 647 119 653 112 660 c 0
 106 667 95 670 80 670 c 2
 73 670 l 2
 63 670 54 666 44 658 c 0
 33 651 24 641 17 628 c 1
 12 614 l 1
 10 608 10 601 12 597 c 2
 15 580 l 1
 16 574 l 1
 16 567 l 1
 15 565 14 563 11 560 c 1
 3 558 l 1
 -2 558 -5 560 -5 565 c 1
 -13 579 -19 588 -26 589 c 0
 -32 592 -42 593 -57 593 c 0
 -66 593 -78 590 -90 583 c 0
 -102 575 -109 565 -115 555 c 1
 -119 540 l 1
 -122 528 -121 518 -117 510 c 0
 -113 501 -106 496 -95 495 c 2
 -90 495 l 2
 -81 495 -74 496 -64 501 c 0
 -55 505 -47 510 -42 515 c 1
 -52 492 l 1
 -69 476 -90 468 -113 468 c 1
 -133 470 l 1
 -149 475 -159 485 -165 498 c 0
 -171 513 -172 528 -168 545 c 0
 -165 560 -159 574 -152 585 c 0
 -139 602 -124 615 -108 624 c 0
 -91 633 -75 637 -59 637 c 0
 -42 637 -28 633 -15 624 c 1
 -13 638 l 1
 -12 645 -9 653 -7 659 c 0
 -4 667 -1 673 6 680 c 0
 12 688 21 695 35 702 c 0
 47 706 58 709 69 709 c 0
 84 709 99 706 112 699 c 0
 124 693 134 683 139 670 c 1
 143 657 l 2
 145 651 145 645 144 641 c 0
 143 636 141 635 137 635 c 0
 134 635 130 636 128 640 c 2
EndSplineSet
EndChar
StartChar: uni0E4F
Encoding: 205 3663 207
OldEncoding: 3663
Width: 407
VWidth: 2048
Flags: W
HStem: 0 43<190 214> 95 43<210 225> 297 42<253 266> 391 43<262 289>
Fore
255 297 m 1
 212 297 170 261 161 217 c 0
 152 174 178 138 221 138 c 0
 264 138 306 174 315 217 c 1
 324 261 298 298 255 297 c 1
192 0 m 0
 125 0 77 23 48 66 c 0
 18 110 10 160 22 217 c 0
 35 277 65 328 112 371 c 0
 158 414 215 434 284 434 c 0
 329 434 368 424 397 403 c 1
 426 382 443 355 453 323 c 0
 462 290 463 255 455 217 c 0
 447 179 431 144 408 112 c 0
 385 79 356 52 318 31 c 1
 280 10 237 0 192 0 c 0
275 391 m 0
 221 391 174 374 136 340 c 0
 99 306 75 264 65 217 c 0
 59 189 59 160 65 133 c 0
 73 106 88 85 112 69 c 1
 134 51 164 43 201 43 c 0
 238 43 272 51 303 69 c 0
 331 84 355 105 376 132 c 1
 394 160 407 189 413 217 c 0
 419 245 418 273 412 302 c 1
 402 330 388 351 366 367 c 0
 342 383 312 391 275 391 c 0
212 95 m 0
 187 95 166 101 149 113 c 0
 133 125 124 141 119 159 c 0
 114 177 113 198 117 217 c 0
 121 236 131 257 144 276 c 0
 155 294 171 308 193 321 c 0
 217 332 239 339 264 339 c 0
 289 339 309 332 327 321 c 0
 344 310 353 295 358 276 c 0
 363 258 363 237 359 217 c 0
 352 185 336 157 310 132 c 0
 283 107 249 95 212 95 c 0
EndSplineSet
EndChar
StartChar: uni0E50
Encoding: 206 3664 208
OldEncoding: 3664
Width: 400
Flags: W
HStem: -5 45<197 211> 234 44<237 261>
Fore
199 -5 m 0
 148 -5 110 10 88 38 c 0
 66 67 58 99 66 137 c 0
 71 160 83 184 100 206 c 0
 117 227 139 245 167 259 c 0
 195 271 225 278 259 278 c 0
 293 278 321 271 343 259 c 0
 365 245 380 227 389 206 c 0
 396 184 397 160 392 137 c 0
 387 113 375 89 358 68 c 0
 341 46 319 29 291 16 c 0
 265 3 234 -5 199 -5 c 0
250 234 m 0
 215 234 185 225 162 206 c 0
 138 186 123 163 117 137 c 0
 112 111 117 88 133 69 c 0
 148 50 174 40 209 40 c 0
 244 40 274 50 297 69 c 0
 321 88 336 111 341 137 c 0
 347 163 342 186 326 206 c 0
 311 225 285 234 250 234 c 0
EndSplineSet
EndChar
StartChar: uni0E51
Encoding: 207 3665 209
OldEncoding: 3665
Width: 400
Flags: W
HStem: 17 42<164 183> 70 32<213 222> 163 30<228 243> 245 42<242 273>
Fore
117 141 m 0
 113 120 115 101 126 84 c 0
 137 67 153 59 173 59 c 0
 186 59 199 62 215 70 c 1
 205 70 192 73 176 80 c 0
 161 88 155 103 158 124 c 0
 163 145 173 162 190 174 c 0
 205 186 222 193 241 193 c 0
 265 193 283 186 292 173 c 0
 302 159 303 141 299 120 c 0
 294 101 286 82 273 67 c 0
 261 52 246 40 227 31 c 0
 207 21 188 17 169 17 c 0
 134 17 107 28 90 50 c 0
 73 71 66 102 73 141 c 0
 78 168 92 193 112 215 c 0
 130 237 152 255 179 268 c 0
 206 280 233 287 261 287 c 0
 314 286 352 270 376 242 c 0
 401 212 409 173 398 124 c 0
 392 92 378 63 360 41 c 0
 341 17 315 -6 283 -28 c 1
 260 -5 l 1
 312 33 344 76 354 124 c 0
 362 159 356 189 340 211 c 0
 322 234 293 245 252 245 c 0
 219 245 191 235 166 216 c 0
 141 197 125 172 117 141 c 0
235 163 m 0
 225 163 217 159 210 154 c 0
 203 148 200 140 198 132 c 0
 196 124 197 118 201 112 c 0
 205 105 212 102 222 102 c 0
 232 102 239 105 247 112 c 0
 253 118 257 124 259 132 c 0
 261 140 259 148 256 154 c 0
 251 159 245 163 235 163 c 0
EndSplineSet
EndChar
StartChar: uni0E52
Encoding: 208 3666 210
OldEncoding: 3666
Width: 490
Flags: W
HStem: 0 43<175 358> 80 33<230 245> 179 33<251 262> 238 40<282 297 410 427>
DStem: 125 311 177 334 85 120 131 118 436 189 486 202 415 89 462 89
Fore
171 160 m 0
 176 184 185 205 197 223 c 0
 210 241 226 254 242 263 c 0
 260 273 278 278 295 278 c 0
 314 278 329 273 339 266 c 0
 348 258 354 251 356 245 c 1
 358 251 366 259 378 267 c 0
 389 276 406 280 427 280 c 0
 452 280 469 272 478 255 c 0
 487 238 490 220 486 202 c 2
 462 89 l 2
 456 59 444 36 425 21 c 0
 408 7 381 0 344 0 c 2
 186 0 l 2
 139 0 108 9 93 28 c 0
 78 47 76 78 85 120 c 2
 125 311 l 2
 129 328 129 342 128 354 c 0
 128 365 121 373 111 377 c 1
 157 410 l 1
 178 396 185 370 177 334 c 2
 131 118 l 2
 126 94 128 75 137 62 c 0
 147 50 165 43 193 43 c 2
 353 43 l 2
 373 43 387 46 396 54 c 0
 405 61 411 72 415 89 c 2
 436 189 l 2
 443 221 435 238 411 238 c 0
 396 238 382 233 370 220 c 0
 357 208 349 197 344 189 c 1
 344 192 341 198 338 206 c 0
 333 212 327 219 318 227 c 0
 310 235 301 238 289 238 c 0
 277 238 265 235 254 228 c 0
 244 220 235 212 229 202 c 0
 232 205 235 207 239 209 c 0
 245 211 252 212 260 212 c 0
 273 212 285 209 294 203 c 0
 303 198 308 190 311 180 c 0
 314 170 314 159 311 147 c 0
 307 128 299 112 284 99 c 0
 270 87 253 80 232 80 c 0
 209 80 193 88 181 103 c 0
 170 118 166 137 171 160 c 0
253 179 m 0
 243 179 234 175 227 170 c 0
 220 164 215 156 213 146 c 0
 211 138 213 130 217 123 c 0
 222 116 229 113 239 113 c 0
 249 113 258 116 264 123 c 0
 271 129 276 137 278 146 c 0
 280 155 280 163 276 170 c 0
 271 175 263 179 253 179 c 0
EndSplineSet
EndChar
StartChar: uni0E53
Encoding: 209 3667 211
OldEncoding: 3667
Width: 471
Flags: W
HStem: -5 42<123 138> 0 21G<226 276 349 401> 104 35<148 162> 245 42<206 219 373 386>
DStem: 262 170 312 170 226 0 276 0
Fore
210 245 m 0
 184 245 164 234 150 212 c 0
 136 190 126 162 119 128 c 1
 121 129 126 131 133 134 c 0
 141 138 151 139 162 139 c 0
 184 139 199 132 208 119 c 0
 216 105 219 89 215 70 c 0
 211 51 200 33 184 18 c 0
 168 3 147 -5 123 -5 c 0
 95 -6 78 8 70 34 c 0
 63 60 64 98 75 151 c 0
 80 175 89 198 102 218 c 0
 117 238 133 255 153 268 c 0
 173 280 193 287 217 287 c 0
 245 287 266 280 277 266 c 0
 288 251 295 238 295 228 c 1
 297 234 306 245 324 262 c 0
 339 279 360 287 384 287 c 0
 421 287 444 272 455 244 c 0
 466 215 466 176 456 130 c 0
 443 73 424 31 401 0 c 1
 349 0 l 1
 360 10 372 28 383 54 c 0
 394 80 404 107 410 137 c 0
 417 170 417 195 413 215 c 0
 408 235 396 245 375 245 c 0
 344 245 323 220 312 170 c 2
 276 0 l 1
 226 0 l 1
 262 170 l 2
 266 190 264 208 256 223 c 0
 247 237 232 245 210 245 c 0
152 104 m 0
 142 104 133 101 126 94 c 0
 120 88 114 80 112 71 c 0
 110 62 112 54 116 47 c 0
 122 41 129 37 138 37 c 0
 148 37 158 41 165 47 c 0
 171 53 176 61 178 71 c 0
 180 79 178 87 175 94 c 0
 170 101 163 104 152 104 c 0
EndSplineSet
EndChar
StartChar: uni0E54
Encoding: 210 3668 212
OldEncoding: 3668
Width: 471
Flags: W
HStem: 0 45<189 217> 50 58<261 270> 170 35<268 284> 231 40<356 386> 236 42<274 293>
Fore
270 50 m 0
 266 50 250 58 226 73 c 0
 199 89 189 111 195 139 c 0
 198 156 209 172 225 185 c 0
 242 198 261 205 282 205 c 0
 304 205 319 198 327 185 c 0
 338 172 339 156 336 139 c 0
 332 122 325 110 316 102 c 0
 306 94 298 89 291 87 c 1
 306 75 321 67 337 64 c 0
 351 62 368 61 386 58 c 0
 403 55 420 47 439 35 c 1
 411 -5 l 1
 400 8 374 15 333 15 c 0
 318 15 297 12 268 7 c 0
 241 2 215 0 189 0 c 0
 163 0 140 6 121 16 c 0
 101 26 86 42 76 63 c 0
 68 85 67 111 74 144 c 0
 79 170 92 192 111 212 c 0
 130 233 152 249 180 260 c 0
 209 272 241 278 274 278 c 0
 280 278 292 277 309 276 c 0
 336 272 355 271 365 271 c 0
 394 271 418 276 437 286 c 0
 456 296 473 313 486 337 c 0
 498 360 511 394 524 438 c 1
 572 432 l 1
 567 410 557 380 539 342 c 0
 520 305 496 276 467 257 c 0
 440 240 409 231 376 231 c 0
 365 231 352 232 334 234 c 0
 314 235 297 236 281 236 c 0
 241 237 206 227 177 212 c 0
 147 197 129 172 121 137 c 0
 108 76 139 45 215 45 c 0
 234 45 252 46 270 50 c 0
274 170 m 0
 264 170 255 166 249 160 c 0
 242 155 238 147 237 139 c 0
 235 131 235 124 240 118 c 0
 244 112 251 108 261 108 c 0
 272 108 279 112 286 118 c 0
 293 123 297 131 299 139 c 0
 300 148 300 156 295 162 c 0
 290 167 285 170 274 170 c 0
EndSplineSet
EndChar
StartChar: uni0E55
Encoding: 211 3669 213
OldEncoding: 3669
Width: 471
Flags: W
HStem: 0 45<189 217> 50 58<261 270> 170 35<268 284> 229 43<355 378> 235 46<281 302> 342 39<308 322>
Fore
375 315 m 0
 372 303 369 294 366 287 c 0
 362 280 358 276 355 272 c 1
 385 272 409 277 429 285 c 0
 448 293 467 310 482 333 c 0
 497 358 512 393 524 438 c 1
 572 432 l 1
 567 410 557 380 539 342 c 0
 520 305 496 276 467 257 c 0
 440 238 408 229 374 229 c 0
 371 229 357 231 336 233 c 0
 314 234 295 235 281 235 c 0
 256 235 232 232 210 226 c 0
 187 219 167 209 152 194 c 0
 136 180 126 160 121 137 c 0
 108 76 139 45 215 45 c 0
 234 45 252 46 270 50 c 0
 266 50 250 58 226 73 c 0
 199 89 189 111 195 139 c 0
 198 156 209 172 225 185 c 0
 242 198 261 205 282 205 c 0
 304 205 319 198 327 185 c 0
 338 172 339 156 336 139 c 0
 332 122 325 110 316 102 c 0
 306 94 298 89 291 87 c 1
 306 75 321 67 337 64 c 0
 351 62 368 61 386 58 c 0
 403 55 420 47 439 35 c 1
 411 -5 l 1
 400 8 374 15 333 15 c 0
 318 15 297 12 268 7 c 0
 241 2 215 0 189 0 c 0
 163 0 140 6 121 16 c 0
 101 26 86 42 76 63 c 0
 68 85 67 111 74 144 c 0
 80 172 92 194 111 214 c 0
 130 233 150 247 174 258 c 0
 197 268 218 273 241 276 c 1
 240 279 239 284 237 292 c 0
 237 299 237 307 239 315 c 0
 243 334 253 350 268 363 c 0
 285 375 302 381 322 381 c 0
 342 380 357 374 367 362 c 0
 377 349 379 334 375 315 c 0
313 342 m 0
 302 342 295 339 288 333 c 0
 281 328 277 320 275 312 c 0
 274 304 274 297 279 290 c 0
 284 285 289 281 300 281 c 0
 305 281 311 282 318 286 c 0
 321 289 325 293 330 297 c 0
 333 302 335 306 336 312 c 0
 338 321 338 329 333 334 c 0
 329 340 323 342 313 342 c 0
274 170 m 0
 264 170 255 166 249 160 c 0
 242 155 238 147 237 139 c 0
 235 131 235 124 240 118 c 0
 244 112 251 108 261 108 c 0
 272 108 279 112 286 118 c 0
 293 123 297 131 299 139 c 0
 300 148 300 156 295 162 c 0
 290 167 285 170 274 170 c 0
EndSplineSet
EndChar
StartChar: uni0E56
Encoding: 212 3670 214
OldEncoding: 3670
Width: 360
Flags: W
HStem: -5 48<173 192> 123 37<154 164> 245 48<222 260>
Fore
188 43 m 1
 209 43 229 47 247 58 c 0
 265 67 280 79 291 95 c 0
 303 111 309 129 313 148 c 0
 317 167 317 184 311 199 c 0
 306 214 295 225 281 233 c 0
 265 241 245 245 222 245 c 1
 201 242 182 236 163 228 c 0
 145 219 131 212 122 207 c 1
 124 223 126 240 126 258 c 0
 126 275 124 294 123 314 c 0
 122 333 119 353 115 371 c 0
 110 388 106 402 103 412 c 1
 144 432 l 1
 149 421 156 398 161 360 c 0
 165 324 168 295 169 273 c 1
 206 286 236 293 260 293 c 0
 288 293 311 286 328 273 c 0
 345 261 358 243 363 221 c 0
 370 200 369 175 363 148 c 0
 356 112 341 82 321 60 c 0
 301 36 276 20 251 10 c 0
 225 0 199 -5 173 -5 c 0
 156 -5 139 0 124 8 c 0
 108 16 96 28 88 43 c 0
 79 58 77 75 81 94 c 0
 85 113 95 129 111 141 c 0
 128 154 145 160 164 160 c 0
 185 160 203 154 212 141 c 0
 222 127 224 111 220 92 c 0
 216 77 212 67 205 59 c 0
 197 51 192 46 188 43 c 1
156 123 m 0
 147 123 140 120 132 114 c 0
 126 107 120 101 119 93 c 0
 117 85 118 77 122 71 c 0
 127 64 134 61 143 61 c 0
 153 61 161 64 168 71 c 0
 174 77 178 85 180 93 c 0
 181 101 181 107 177 114 c 0
 173 120 166 123 156 123 c 0
EndSplineSet
EndChar
StartChar: uni0E57
Encoding: 213 3671 215
OldEncoding: 3671
Width: 494
Flags: W
HStem: -5 36<138 152> 93 34<163 173> 228 41<190 205 323 339>
Fore
340 47 m 1
 365 52 384 62 400 78 c 0
 416 93 427 112 435 133 c 0
 443 155 450 180 456 209 c 0
 458 217 461 229 464 244 c 0
 466 259 469 272 472 285 c 0
 478 316 487 342 495 364 c 0
 503 385 517 403 532 417 c 1
 564 393 l 1
 540 374 524 337 512 281 c 0
 509 269 507 259 506 249 c 0
 504 238 501 226 497 209 c 0
 490 172 480 140 468 114 c 0
 455 87 439 64 416 45 c 0
 400 33 380 21 359 12 c 0
 337 3 319 -2 305 -5 c 1
 282 28 l 1
 297 43 312 64 328 94 c 0
 344 122 353 147 358 171 c 0
 366 209 356 228 330 228 c 0
 316 228 304 221 293 207 c 0
 282 192 274 177 271 163 c 1
 233 163 l 1
 236 177 234 192 229 207 c 0
 223 221 212 228 196 228 c 0
 177 228 161 219 147 202 c 0
 133 184 124 163 119 139 c 0
 115 122 115 108 116 99 c 1
 119 104 126 110 136 116 c 0
 145 123 157 127 173 127 c 0
 193 127 208 121 216 108 c 0
 223 96 226 80 222 63 c 0
 218 44 209 28 194 16 c 0
 179 2 161 -5 138 -5 c 0
 110 -5 89 11 79 42 c 0
 67 72 66 106 74 144 c 0
 81 177 97 207 122 232 c 0
 148 257 175 269 205 269 c 0
 227 269 242 264 251 254 c 0
 259 244 264 236 266 231 c 1
 269 236 277 244 289 254 c 0
 301 264 318 269 339 269 c 0
 370 269 391 259 398 237 c 0
 406 216 408 190 401 158 c 0
 395 132 385 110 372 90 c 0
 359 70 348 55 340 47 c 1
165 93 m 0
 154 93 147 89 140 84 c 0
 132 77 129 70 127 62 c 0
 125 54 126 46 131 41 c 0
 135 34 141 31 152 31 c 0
 162 31 170 34 177 40 c 0
 184 45 187 53 189 62 c 0
 191 70 191 78 186 84 c 0
 182 89 175 93 165 93 c 0
EndSplineSet
EndChar
StartChar: uni0E58
Encoding: 214 3672 216
OldEncoding: 3672
Width: 471
Flags: W
HStem: -7 38<318 336> 0 21G<118 174> 56 33<344 355> 87 46<179 192> 151 35<359 376> 217 42<361 406> 231 40<244 267>
Fore
252 89 m 0
 271 66 284 50 294 42 c 0
 303 34 314 31 326 31 c 0
 340 31 353 35 365 43 c 0
 377 51 385 62 390 78 c 1
 388 75 382 70 374 64 c 0
 367 59 357 56 344 56 c 0
 327 56 312 62 302 73 c 0
 291 85 288 101 293 120 c 0
 297 139 306 155 321 167 c 0
 336 180 354 186 372 186 c 0
 388 186 402 182 412 173 c 0
 423 165 431 153 434 137 c 0
 437 121 437 104 433 87 c 0
 427 58 414 35 394 18 c 0
 373 1 348 -7 320 -7 c 0
 298 -7 280 -1 264 9 c 0
 248 19 230 40 210 70 c 0
 203 81 197 87 190 87 c 0
 180 87 173 77 169 56 c 0
 164 34 166 15 174 0 c 1
 118 0 l 1
 100 21 88 43 78 64 c 0
 68 85 67 112 74 146 c 1
 89 188 112 218 145 240 c 0
 177 261 215 271 259 271 c 0
 276 271 289 270 298 269 c 0
 312 267 324 264 334 263 c 0
 344 262 352 261 361 260 c 0
 371 259 380 259 389 259 c 0
 409 259 423 262 434 268 c 0
 446 275 455 286 460 302 c 0
 464 316 468 329 470 339 c 0
 478 376 479 402 478 417 c 1
 525 417 l 1
 527 409 520 372 506 304 c 0
 499 272 485 250 464 236 c 0
 445 224 418 217 386 217 c 0
 361 217 335 220 307 226 c 0
 286 229 272 231 261 231 c 0
 231 231 205 224 182 214 c 0
 158 202 139 186 127 163 c 0
 122 155 119 147 118 139 c 0
 114 124 115 108 118 92 c 0
 120 75 125 63 132 56 c 1
 142 102 157 128 179 133 c 1
 198 133 212 129 224 121 c 0
 234 113 243 102 252 89 c 0
366 151 m 0
 356 151 349 148 342 141 c 0
 335 136 331 129 330 121 c 0
 328 113 328 105 333 98 c 0
 338 93 343 89 353 89 c 0
 364 89 371 93 378 98 c 0
 385 105 389 112 391 120 c 0
 392 128 392 136 387 141 c 0
 382 148 377 151 366 151 c 0
EndSplineSet
EndChar
StartChar: uni0E59
Encoding: 215 3673 217
OldEncoding: 3673
Width: 428
Flags: W
HStem: -7 45<173 190> 99 38<201 213> 207 44<398 404> 225 44<209 225> 231 44<343 352>
DStem: 282 176 334 176 340 -5 389 15
Fore
173 -7 m 0
 147 -7 122 3 98 21 c 0
 76 40 63 63 63 94 c 0
 64 111 64 125 66 138 c 0
 72 166 85 192 104 214 c 0
 123 235 148 251 178 261 c 0
 195 267 210 269 223 269 c 0
 246 269 263 264 275 254 c 0
 288 244 296 236 301 231 c 1
 308 260 322 275 343 275 c 0
 356 275 368 270 378 262 c 0
 386 254 393 251 400 251 c 0
 412 251 422 266 427 294 c 0
 434 323 437 351 435 377 c 0
 434 403 433 417 430 417 c 2
 478 417 l 1
 479 410 481 399 481 382 c 0
 481 365 481 345 476 321 c 0
 469 284 459 255 449 236 c 0
 438 217 423 207 402 207 c 0
 393 207 383 211 371 219 c 0
 359 227 351 231 346 231 c 0
 341 229 335 223 333 212 c 0
 330 198 331 185 334 176 c 2
 389 15 l 1
 340 -5 l 1
 282 176 l 2
 278 191 269 203 256 212 c 0
 244 220 229 225 212 225 c 0
 188 225 168 217 149 200 c 0
 129 182 115 160 109 132 c 0
 106 118 107 103 111 89 c 0
 114 75 121 64 131 59 c 0
 129 59 129 67 132 82 c 1
 139 97 148 111 163 121 c 0
 175 131 192 137 211 137 c 0
 230 137 245 131 255 121 c 0
 266 111 270 96 267 78 c 0
 262 51 250 31 232 16 c 0
 216 1 197 -7 173 -7 c 0
203 99 m 0
 193 99 184 96 177 90 c 0
 171 85 166 77 165 69 c 0
 163 61 165 54 169 47 c 0
 174 42 180 38 190 38 c 0
 200 38 208 42 215 47 c 0
 221 53 225 61 227 69 c 0
 229 78 228 86 225 92 c 0
 220 97 213 99 203 99 c 0
EndSplineSet
EndChar
StartChar: uni0E5A
Encoding: 216 3674 218
OldEncoding: 3674
Width: 461
VWidth: 2048
Flags: W
HStem: -14 40<197 211> 203 42<197 213> 298 35<174 184> 389 21G<417.5 430> 406 34<193 204>
DStem: 316 272 390 372 279 99 332 98 448 360 502 364 386 72 445 93
Fore
194 406 m 0
 177 407 162 394 152 370 c 1
 147 349 157 337 179 333 c 1
 191 333 201 337 209 344 c 1
 215 351 218 359 224 370 c 1
 229 393 218 406 194 406 c 0
392 414 m 1
 421 429 l 2
 428 434 438 436 447 437 c 1
 473 437 491 428 499 411 c 0
 504 407 505 398 505 385 c 1
 502 364 l 1
 445 93 l 2
 434 43 403 9 354 -8 c 1
 328 -15 l 1
 313 25 l 1
 329 28 l 2
 337 31 343 33 348 36 c 2
 370 52 l 2
 378 59 384 66 386 72 c 1
 448 360 l 2
 450 370 450 376 447 379 c 0
 444 385 436 389 424 389 c 0
 411 389 399 383 390 372 c 1
 332 98 l 2
 326 69 312 43 289 21 c 0
 267 -1 240 -14 211 -14 c 1
 197 26 l 1
 214 26 232 35 253 51 c 0
 265 62 275 78 279 99 c 2
 316 272 l 1
 298 247 281 231 264 220 c 0
 245 209 224 203 197 203 c 0
 154 203 124 218 107 249 c 0
 92 276 89 312 99 356 c 1
 106 379 119 399 139 415 c 0
 160 432 181 440 204 440 c 0
 215 440 224 438 229 435 c 1
 256 428 267 408 259 372 c 0
 255 351 244 333 228 320 c 0
 213 306 194 298 174 298 c 0
 161 298 151 302 142 306 c 1
 142 293 l 1
 145 275 l 1
 149 267 151 260 158 257 c 1
 182 247 l 1
 203 245 l 1
 219 245 235 251 249 261 c 1
 272 281 l 1
 299 314 l 2
 308 327 315 340 322 357 c 1
 340 418 l 1
 345 432 354 438 369 438 c 0
 375 438 381 437 385 434 c 1
 389 424 l 1
 392 414 l 1
EndSplineSet
EndChar
StartChar: uni0E5B
Encoding: 217 3675 219
OldEncoding: 3675
Width: 814
VWidth: 2048
Flags: W
HStem: 35 40<178 193> 133 39<205 214> 176 33<699 841> 245 35<201 209> 364 39<231 248>
VStem: 404 34<201.047 256.953>
Fore
848 210 m 1
 841 180 l 1
 679 176 l 1
 673 177 666 181 661 185 c 1
 651 197 l 1
 647 206 l 1
 642 216 l 1
 577 95 l 1
 568 216 l 1
 494 67 l 1
 487 220 l 1
 427 73 l 1
 408 73 l 1
 404 257 l 1
 388 220 373 191 360 170 c 0
 338 131 319 105 305 90 c 0
 268 53 225 35 180 35 c 0
 132 35 99 54 80 95 c 0
 62 131 58 173 68 221 c 0
 78 267 98 307 127 342 c 0
 160 383 200 403 242 403 c 0
 280 403 307 390 322 363 c 0
 336 338 340 306 332 268 c 0
 325 234 311 205 290 179 c 0
 265 148 237 133 205 133 c 0
 183 133 167 144 155 164 c 1
 146 185 145 205 148 221 c 0
 151 235 158 249 170 261 c 0
 181 275 196 280 209 280 c 0
 223 280 232 275 239 261 c 0
 246 249 248 235 245 221 c 0
 241 200 229 184 212 172 c 1
 227 172 243 181 260 199 c 1
 278 220 288 244 293 269 c 0
 307 332 287 364 233 364 c 0
 204 364 177 347 150 312 c 0
 128 282 114 252 107 220 c 0
 99 184 102 151 114 123 c 0
 129 90 154 75 189 75 c 0
 233 75 273 99 307 151 c 0
 318 170 344 218 383 296 c 1
 420 373 l 1
 438 373 l 1
 442 201 l 1
 499 341 l 1
 518 341 l 1
 524 202 l 1
 592 340 l 1
 603 214 l 1
 651 307 l 1
 671 249 l 2
 679 225 688 212 700 210 c 1
 746 209 l 1
 848 210 l 1
201 245 m 1
 196 242 192 238 190 236 c 1
 183 220 l 1
 180 207 182 199 191 198 c 1
 195 199 199 201 200 203 c 1
 209 221 l 1
 210 227 210 233 208 237 c 0
 208 243 205 245 201 245 c 1
EndSplineSet
EndChar
StartChar: endash
Encoding: 219 8211 120
OldEncoding: 8211
Width: 601
VWidth: 2048
Flags: W
HStem: 193 32<27 627>
Fore
21 193 m 1
 28 225 l 1
 634 225 l 1
 627 193 l 1
 21 193 l 1
EndSplineSet
EndChar
StartChar: emdash
Encoding: 220 8212 121
OldEncoding: 8212
Width: 1203
VWidth: 2048
Flags: W
HStem: 193 32<-9 1229>
Fore
-15 193 m 1
 -8 225 l 1
 1236 225 l 1
 1229 193 l 1
 -15 193 l 1
EndSplineSet
EndChar
StartChar: quoteleft
Encoding: 221 8216 115
OldEncoding: 8216
Width: 136
VWidth: 2048
Flags: W
Fore
91 462 m 0
 98 497 114 525 139 544 c 0
 163 563 188 574 213 579 c 1
 225 579 229 576 229 572 c 0
 228 571 227 568 224 566 c 1
 214 563 199 555 180 544 c 0
 160 533 149 520 143 504 c 1
 154 506 l 1
 169 510 l 1
 203 506 216 488 210 457 c 0
 207 442 199 428 187 418 c 0
 177 407 162 401 146 401 c 0
 103 401 84 421 91 462 c 0
EndSplineSet
EndChar
StartChar: quoteright
Encoding: 222 8217 116
OldEncoding: 8217
Width: 136
VWidth: 2048
Flags: W
Fore
236 507 m 4
 228 471 213 445 188 426 c 4
 164 408 138 397 112 392 c 5
 101 392 95 394 96 399 c 4
 96 400 97 402 102 405 c 5
 112 408 126 416 146 427 c 4
 164 436 177 450 184 467 c 5
 172 464 l 5
 158 461 l 5
 125 466 112 483 118 515 c 4
 122 530 129 542 142 553 c 4
 152 564 166 568 183 568 c 4
 225 568 243 548 236 507 c 4
EndSplineSet
EndChar
StartChar: quotedblleft
Encoding: 223 8220 117
OldEncoding: 8220
Width: 255
VWidth: 2048
Flags: W
Fore
231 463 m 0
 239 498 254 527 279 546 c 0
 303 565 328 576 354 581 c 1
 365 581 372 579 371 574 c 1
 366 568 l 1
 365 567 l 2
 356 565 341 557 321 545 c 0
 303 536 290 522 283 505 c 1
 294 508 l 1
 309 511 l 1
 343 507 356 490 350 458 c 0
 347 443 341 431 327 420 c 0
 318 409 303 403 287 403 c 0
 243 402 226 423 231 463 c 0
91 462 m 4
 98 497 114 525 139 544 c 4
 163 563 188 574 213 579 c 5
 225 579 229 576 229 572 c 4
 228 571 227 568 224 566 c 5
 214 563 199 555 180 544 c 4
 160 533 149 520 143 504 c 5
 154 506 l 5
 169 510 l 5
 203 506 216 488 210 457 c 4
 207 442 199 428 187 418 c 4
 177 407 162 401 146 401 c 4
 103 401 84 421 91 462 c 4
EndSplineSet
EndChar
StartChar: quotedblright
Encoding: 224 8221 118
OldEncoding: 8221
Width: 255
VWidth: 2048
Flags: W
Fore
236 507 m 4
 228 472 213 445 188 426 c 4
 164 408 138 397 112 392 c 5
 100 392 95 394 96 399 c 4
 96 400 97 402 101 405 c 5
 111 408 125 416 147 427 c 4
 165 436 177 450 184 467 c 5
 174 464 l 5
 158 461 l 5
 125 466 112 483 118 515 c 4
 122 530 129 542 142 553 c 4
 152 564 166 568 182 568 c 4
 225 568 243 548 236 507 c 4
376 507 m 4
 368 471 354 445 328 426 c 4
 304 408 278 397 253 392 c 5
 241 392 237 394 238 399 c 4
 238 400 239 402 242 405 c 5
 252 408 267 416 288 427 c 4
 305 436 317 450 324 467 c 5
 314 464 l 5
 298 461 l 5
 265 466 252 483 258 515 c 4
 262 530 269 542 282 553 c 4
 292 564 306 568 322 568 c 4
 366 568 383 548 376 507 c 4
EndSplineSet
EndChar
StartChar: bullet
Encoding: 225 8226 119
OldEncoding: 8226
Width: 203
VWidth: 2048
Flags: W
Fore
120 115 m 0
 86 115 62 127 47 148 c 0
 33 170 29 194 36 224 c 0
 40 243 47 261 59 277 c 0
 72 294 88 307 105 318 c 0
 123 328 144 332 167 332 c 0
 191 332 210 328 224 318 c 0
 237 307 246 294 252 278 c 1
 256 261 257 243 253 224 c 0
 246 194 231 168 207 147 c 0
 185 127 155 115 120 115 c 0
EndSplineSet
EndChar
StartChar: ellipsis
Encoding: 226 8230 103
OldEncoding: 8230
Width: 592
VWidth: 2048
Flags: W
HStem: -16 21G<56.5 90>
Fore
523 31 m 1
 516 2 496 -12 464 -16 c 1
 434 -16 420 0 424 31 c 1
 431 64 450 81 484 81 c 0
 497 81 509 77 516 67 c 1
 522 58 524 46 523 31 c 1
328 31 m 1
 321 2 302 -14 268 -16 c 1
 239 -16 225 0 228 31 c 1
 235 64 255 81 288 81 c 0
 302 81 313 77 320 67 c 1
 327 56 330 45 328 31 c 1
132 31 m 0
 125 0 107 -16 73 -16 c 0
 40 -16 26 0 33 31 c 0
 40 64 60 81 93 81 c 0
 127 81 139 64 132 31 c 0
EndSplineSet
EndChar
StartChar: dottedcircle
Encoding: 227 9676 190
OldEncoding: 9676
Width: 442
Flags: W
HStem: 3 26<236 242> 29 25<140 146> 35 27<331 337> 90 25<86 92> 98 25<399 408> 187 26<443 449> 279 25<439 445> 339 26<387 393> 368 25<313 319>
AnchorPoint: "AboveBase" 499.65 450 basechar 0
AnchorPoint: "BelowBase" 373.01 -47 basechar 0
Fore
131 305 m 6
212 368 m 6
138 52 m 6
85 114 m 6
329 59 m 6
398 122 m 6
436 303 m 6
385 362 m 6
441 211 m 6
82 215 m 6
311 391 m 6
138 307 m 4,11,12
 145 307 149 303 148 295 c 4,13,14
 146 288 140 282 133 282 c 4,15,16
 126 282 122 288 124 295 c 4,17,18
 125 303 131 307 138 307 c 4,11,12
220 369 m 4,19,20
 227 369 232 364 231 357 c 4,21,22
 229 350 222 344 215 344 c 4,23,24
 208 344 203 350 205 357 c 4,25,26
 206 364 213 369 220 369 c 4,19,20
146 54 m 4,27,28
 153 54 158 48 157 41 c 4,29,30
 155 34 148 29 141 29 c 4,31,32
 134 29 129 34 131 41 c 4,33,34
 132 48 139 54 146 54 c 4,27,28
92 115 m 4,35,36
 99 115 103 110 102 103 c 4,37,38
 100 96 94 90 87 90 c 4,39,40
 80 90 75 96 77 103 c 4,41,42
 78 110 85 115 92 115 c 4,35,36
337 62 m 4,43,44
 344 62 348 55 346 48 c 4,45,46
 345 41 338 35 331 35 c 4,47,48
 323 35 320 41 321 48 c 4,49,50
 323 55 329 62 337 62 c 4,43,44
406 123 m 4,51,52
 413 123 417 119 416 111 c 4,53,54
 412 99 408 98 401 98 c 4,55,56
 393 98 389 104 391 111 c 4,57,58
 392 119 398 123 406 123 c 4,51,52
445 304 m 4,59,60
 452 304 455 298 454 291 c 4,61,62
 452 283 446 279 439 279 c 4,63,64
 431 279 427 283 429 291 c 4,65,66
 430 298 437 304 445 304 c 4,59,60
393 365 m 4,67,68
 401 365 404 359 403 351 c 4,69,70
 401 345 395 339 387 339 c 4,71,72
 381 339 376 345 378 351 c 4,73,74
 379 359 387 365 393 365 c 4,67,68
449 213 m 4,75,76
 456 213 461 207 460 200 c 4,77,78
 458 192 451 187 444 187 c 4,79,80
 437 187 432 192 434 200 c 4,81,82
 435 207 442 213 449 213 c 4,75,76
89 216 m 4,83,84
 96 216 100 211 98 203 c 4,85,86
 97 197 91 191 84 191 c 4,87,88
 77 191 72 197 73 203 c 4,89,90
 75 211 82 216 89 216 c 4,83,84
242 29 m 4,91,92
 250 29 253 23 251 16 c 4,93,94
 250 8 245 3 237 3 c 4,95,96
 230 3 225 8 226 16 c 4,97,98
 228 23 235 29 242 29 c 4,91,92
319 393 m 4,99,100
 327 393 329 387 328 381 c 4,101,102
 326 374 321 368 313 368 c 4,103,104
 306 368 301 374 303 381 c 4,105,106
 304 387 312 393 319 393 c 4,99,100
EndSplineSet
EndChar
StartChar: uni0E10.descless
Encoding: 228 63232 98
OldEncoding: 63232
Width: 364
Flags: W
HStem: 0 21G<250 306> 97 34<160 175> 201 35<179 195> 319 41<377 391> 353 38<243 266>
DStem: 299 186 346 189 279 94 306 0
Fore
191 236 m 0
 206 236 219 232 231 224 c 0
 241 216 250 205 253 191 c 2
 279 94 l 1
 299 186 l 2
 305 215 304 234 296 244 c 0
 289 254 274 263 251 271 c 0
 225 279 200 285 172 289 c 0
 145 295 125 298 111 299 c 1
 131 325 155 347 181 365 c 0
 205 382 232 391 259 391 c 0
 274 391 288 390 297 388 c 0
 308 384 319 381 333 375 c 0
 347 370 357 366 364 364 c 0
 372 362 381 360 389 360 c 0
 402 360 416 364 430 370 c 1
 430 330 l 1
 409 322 392 319 378 319 c 0
 367 319 358 320 350 322 c 0
 344 324 333 329 317 334 c 0
 303 340 291 345 282 348 c 0
 273 351 263 353 252 353 c 0
 241 353 229 349 215 344 c 0
 202 337 194 331 193 328 c 1
 198 327 205 325 214 322 c 0
 224 319 237 315 252 311 c 0
 268 307 281 304 288 302 c 0
 322 293 344 280 349 264 c 0
 356 247 353 223 346 189 c 2
 306 0 l 1
 250 0 l 1
 251 24 248 47 243 73 c 0
 237 99 232 119 228 131 c 1
 223 121 213 113 200 106 c 0
 188 101 176 97 162 97 c 0
 141 97 125 104 115 118 c 0
 106 132 103 148 107 166 c 0
 111 185 121 202 136 216 c 0
 152 229 170 236 191 236 c 0
169 131 m 0
 181 131 190 134 197 141 c 0
 205 149 209 157 211 166 c 0
 213 176 212 184 208 191 c 0
 204 198 196 201 184 201 c 0
 174 201 164 198 157 191 c 0
 149 184 143 176 141 166 c 0
 139 157 142 149 146 142 c 0
 150 134 159 131 169 131 c 0
EndSplineSet
EndChar
StartChar: uni0E34.left
Encoding: 229 63233 99
OldEncoding: 63233
Width: 0
Flags: HW
Fore
-148 610 m 1
 -99 603 -68 584 -53 553 c 0
 -39 521 -32 487 -32 450 c 1
 -43 454 -61 461 -86 469 c 0
 -113 477 -140 481 -168 485 c 0
 -188 487 -208 488 -229 488 c 0
 -254 488 -277 487 -297 486 c 0
 -317 484 -333 481 -341 480 c 1
 -331 503 -317 524 -298 545 c 0
 -278 565 -256 581 -229 593 c 0
 -202 605 -176 610 -148 610 c 1
-165 575 m 1
 -189 575 -210 570 -232 557 c 0
 -252 546 -267 533 -274 519 c 1
 -268 520 -260 520 -249 521 c 0
 -239 522 -225 522 -205 522 c 0
 -188 522 -176 522 -167 521 c 0
 -140 519 -117 514 -101 507 c 0
 -85 502 -77 496 -71 493 c 1
 -83 540 -113 567 -165 575 c 1
EndSplineSet
EndChar
